<?xml version="1.0" encoding="UTF-8"?> <svg xmlns="http://www.w3.org/2000/svg" xmlns:xlink="http://www.w3.org/1999/xlink" version="1.1" id="Capa_1" x="0px" y="0px" viewBox="0 0 150 49.74" style="enable-background:new 0 0 150 49.74;" xml:space="preserve"> <style type="text/css"> .st0{fill:#004580;} </style> <path class="st0" d="M126.58,3.27h0.46c0.55,0.35,0.75,1,1.05,1.54c4.15,7.77,8.3,15.53,12.45,23.3c2.01,3.78,4.05,7.55,6.04,11.34 v0.07c-0.12,0.21-0.21,0.55-0.52,0.52c-2.02,0.01-4.04,0.01-6.05,0c-0.48,0.02-0.61-0.51-0.8-0.85c-0.37-0.7-0.76-1.38-1.09-2.09 c-0.57-0.96-1.01-1.98-1.58-2.94c-0.43-0.95-1-1.83-1.43-2.78c-0.27-0.57-0.63-1.1-0.89-1.68c-0.4-0.85-0.91-1.64-1.3-2.5 c-0.58-1.01-1.06-2.07-1.65-3.08c-0.41-0.9-0.95-1.74-1.37-2.64c-0.29-0.62-0.67-1.19-0.96-1.81c-0.37-0.81-0.87-1.55-1.23-2.37 c-0.18-0.32-0.3-0.75-0.67-0.88c-0.24-0.02-0.58-0.08-0.71,0.18c-0.63,1.01-1.09,2.11-1.69,3.14c-0.43,0.95-1,1.83-1.43,2.78 c-0.26,0.55-0.6,1.06-0.86,1.61c-0.2,0.41-0.4,0.82-0.63,1.22c-0.41,0.7-0.71,1.46-1.13,2.16c-0.37,0.61-0.63,1.28-0.99,1.89 c-0.38,0.63-0.65,1.32-1.03,1.95c-0.43,0.72-0.74,1.5-1.17,2.22c-0.36,0.61-0.62,1.28-0.99,1.89c-0.38,0.63-0.65,1.32-1.03,1.95 c-0.41,0.68-0.7,1.41-1.09,2.1c-0.13,0.2-0.26,0.46-0.51,0.52c-0.39,0.07-0.8,0.03-1.2,0.03c-1.54,0-3.08-0.01-4.62,0.01 c-0.28-0.01-0.61,0-0.81-0.24c-0.06-0.26-0.04-0.55,0.1-0.78c6.29-11.79,12.59-23.57,18.88-35.36 C126.24,3.5,126.42,3.38,126.58,3.27L126.58,3.27z M6.39,8.93c0.43-0.45,1.09-0.31,1.64-0.32c5.61,0,11.23,0,16.84,0 c1.65-0.06,3.32,0.19,4.87,0.77c2.61,0.94,4.85,3.04,5.7,5.71c0.37,1.01,0.45,2.11,0.53,3.17c-0.07,1.14-0.21,2.31-0.64,3.38 c-0.52,1.25-1.27,2.46-2.38,3.27c-0.27,0.26-0.69,0.37-0.88,0.7c1.49,0.54,2.76,1.55,3.73,2.79c1.58,2.07,2.02,4.81,1.76,7.35 c-0.14,1.68-0.62,3.34-1.5,4.78c-0.58,0.9-1.31,1.72-2.18,2.35c-1.91,1.42-4.27,2.07-6.61,2.34c-0.48,0.06-0.97,0.03-1.44,0.16H6.82 c-0.16-0.13-0.31-0.27-0.43-0.43L6.39,8.93 M12.69,14.2c-0.18,0.22-0.13,0.52-0.14,0.78c0.02,2.73-0.02,5.46,0.02,8.19 c0.17,0.21,0.42,0.35,0.7,0.34c3.63,0,7.26,0,10.89,0c0.51,0.02,1-0.08,1.5-0.15c1.13-0.16,2.26-0.61,3.05-1.46 c0.54-0.54,0.78-1.28,0.97-2c0.04-0.58,0.23-1.17,0.07-1.75c-0.08-0.98-0.48-1.94-1.14-2.67c-0.93-0.85-2.18-1.25-3.42-1.4 c-0.39-0.04-0.79,0.02-1.19-0.06c-0.49-0.1-0.98-0.05-1.48-0.06c-2.98,0-5.96,0-8.94,0C13.27,13.95,12.96,14.04,12.69,14.2 M12.89,28.99c-0.12,0.04-0.24,0.11-0.27,0.24c-0.22,0.42-0.17,0.91-0.17,1.37c0,2.81,0,5.62,0,8.43c0.01,0.4,0.23,0.97,0.71,0.92 c3.83,0,7.67,0,11.51,0c0.39,0.01,0.77,0,1.15-0.07c1.35-0.12,2.75-0.39,3.88-1.16c0.91-0.65,1.42-1.72,1.61-2.8 c0.26-1.24,0.16-2.55-0.2-3.76c-0.32-0.94-0.96-1.79-1.86-2.24c-1.18-0.65-2.54-0.85-3.87-0.96c-4.04,0-8.08,0-12.12,0 C13.14,28.95,13.02,28.96,12.89,28.99L12.89,28.99z M43.81,8.64c0.43-0.07,0.86-0.02,1.3-0.03c5.96,0,11.91,0,17.87,0 c2.69,0.14,5.43,1.08,7.37,3c1.48,1.46,2.37,3.47,2.58,5.53c0,0.81,0.03,1.63-0.02,2.45c-0.26,1.75-0.94,3.51-2.26,4.73 c-0.37,0.39-0.78,0.75-1.25,1.01c-0.1,0.08-0.3,0.12-0.24,0.29c1.51,0.62,2.88,1.65,3.82,2.99c0.4,0.55,0.69,1.18,0.97,1.8 c0.56,1.25,0.66,2.64,0.74,3.99c-0.07,1.05-0.13,2.1-0.38,3.12c-0.36,1.78-1.29,3.44-2.59,4.71c-0.53,0.44-1.06,0.87-1.66,1.22 c-1.67,1.03-3.62,1.5-5.55,1.75c-0.54,0.09-1.09,0.04-1.62,0.18h-19c-0.3-0.17-0.58-0.44-0.54-0.82c0-11.71,0-23.43,0-35.14 C43.35,9.11,43.54,8.8,43.81,8.64 M50.18,13.99c-0.2,0.05-0.41,0.12-0.52,0.31c-0.18,0.26-0.13,0.59-0.14,0.89c0.01,2.5,0,5,0,7.5 c-0.02,0.33,0.2,0.61,0.45,0.79c0.74,0.06,1.48,0.01,2.22,0.03c3.15,0,6.3,0,9.45,0c1.06-0.12,2.15-0.26,3.08-0.82 c0.96-0.43,1.56-1.36,1.88-2.32c0.24-0.78,0.16-1.6,0.16-2.4c-0.07-0.57-0.25-1.13-0.51-1.64c-0.74-1.27-2.17-1.97-3.58-2.18 C62.12,14,61.54,14.12,60.99,14c-0.43-0.08-0.86-0.04-1.29-0.05c-3.05,0-6.1,0-9.14,0C50.42,13.95,50.3,13.96,50.18,13.99 M49.97,28.99c-0.31,0.07-0.46,0.39-0.44,0.68c0,2.95,0,5.89,0,8.84c0,0.38-0.04,0.77,0.11,1.12c0.07,0.25,0.38,0.31,0.61,0.31 c3.9,0.01,7.81,0,11.71,0.01c0.52,0.03,1.02-0.11,1.53-0.13c1.32-0.16,2.67-0.54,3.68-1.44c0.8-0.81,1.19-1.94,1.28-3.05 c0.1-0.55,0.13-1.12,0.01-1.67c-0.1-1.25-0.54-2.59-1.57-3.37c-1.25-0.97-2.88-1.19-4.41-1.34c-3.9,0-7.81,0-11.71,0 C50.49,28.96,50.23,28.93,49.97,28.99L49.97,28.99z M74.92,9.39c-0.19-0.38,0.18-0.83,0.58-0.78c1.92,0,3.84,0.01,5.76,0 c0.22-0.01,0.47,0.02,0.59,0.24c0.45,0.7,0.82,1.45,1.19,2.2c0.23,0.48,0.53,0.92,0.76,1.4c0.43,0.92,0.98,1.78,1.4,2.71 c0.56,0.96,1.01,1.98,1.58,2.94c0.48,1.04,1.09,2.01,1.57,3.05c0.42,0.73,0.79,1.47,1.17,2.22c0.48,0.78,0.81,1.63,1.29,2.41 c0.33,0.57,0.57,1.19,0.92,1.76c0.43,0.72,0.74,1.51,1.17,2.22c0.43,0.72,0.72,1.51,1.18,2.21c0.21,0.39,0.88,0.39,1.09,0 c0.46-0.7,0.75-1.49,1.18-2.21c0.38-0.63,0.65-1.32,1.03-1.95c0.43-0.72,0.74-1.5,1.17-2.22c0.43-0.75,0.76-1.55,1.21-2.28 c0.53-1.1,1.16-2.15,1.68-3.25c0.43-0.72,0.78-1.48,1.17-2.22c0.45-0.73,0.77-1.54,1.21-2.28c0.38-0.66,0.67-1.37,1.05-2.03 c0.39-0.65,0.67-1.37,1.06-2.02c0.53-0.89,0.87-1.89,1.49-2.72c0.14-0.22,0.42-0.17,0.64-0.18c1.88,0.02,3.77,0,5.65,0.01 c0.26-0.03,0.47,0.14,0.59,0.35c0.12,0.35-0.14,0.68-0.3,0.97c-5.99,11.2-11.97,22.41-17.96,33.61c-0.34,0.64-0.63,1.34-1.16,1.85 h-0.45c-0.68-0.43-0.91-1.26-1.3-1.92C87.06,32.12,81,20.75,74.92,9.39L74.92,9.39z"></path> </svg> 