<svg xmlns="http://www.w3.org/2000/svg" xmlns:xlink="http://www.w3.org/1999/xlink" id="NosCasamos" viewBox="0 0 580 108"><defs><style> .st0 { fill: url(#Degradado_sin_nombre); } .st1 { fill: url(#Degradado_sin_nombre_7); } .st2 { fill: url(#Degradado_sin_nombre_6); } .st3 { fill: url(#Degradado_sin_nombre_5); } .st4 { fill: url(#Degradado_sin_nombre_4); } .st5 { fill: url(#Degradado_sin_nombre_3); } .st6 { fill: url(#Degradado_sin_nombre_2); } </style><linearGradient id="Degradado_sin_nombre" data-name="Degradado sin nombre" x1="34.4" y1="56" x2="138" y2="56" gradientTransform="translate(0 110) scale(1 -1)" gradientUnits="userSpaceOnUse"><stop offset="0" stop-color="#ab8d60"></stop><stop offset=".5" stop-color="#dcc188"></stop><stop offset="1" stop-color="#ab8d60"></stop></linearGradient><linearGradient id="Degradado_sin_nombre_2" data-name="Degradado sin nombre 2" x1="104.9" y1="41.5" x2="181.3" y2="41.5" gradientTransform="translate(0 110) scale(1 -1)" gradientUnits="userSpaceOnUse"><stop offset="0" stop-color="#ab8d60"></stop><stop offset=".5" stop-color="#dcc188"></stop><stop offset="1" stop-color="#ab8d60"></stop></linearGradient><linearGradient id="Degradado_sin_nombre_3" data-name="Degradado sin nombre 3" x1="206.7" y1="58.6" x2="530.6" y2="58.6" gradientTransform="translate(0 110) scale(1 -1)" gradientUnits="userSpaceOnUse"><stop offset="0" stop-color="#ab8d60"></stop><stop offset=".5" stop-color="#dcc188"></stop><stop offset="1" stop-color="#ab8d60"></stop></linearGradient><linearGradient id="Degradado_sin_nombre_4" data-name="Degradado sin nombre 4" x1="529.2" y1="30.5" x2="535.7" y2="30.5" gradientTransform="translate(0 110) scale(1 -1)" gradientUnits="userSpaceOnUse"><stop offset="0" stop-color="#ab8d60"></stop><stop offset=".5" stop-color="#dcc188"></stop><stop offset="1" stop-color="#ab8d60"></stop></linearGradient><linearGradient id="Degradado_sin_nombre_5" data-name="Degradado sin nombre 5" x1="535.4" y1="66.3" x2="580" y2="66.3" gradientTransform="translate(0 110) scale(1 -1)" gradientUnits="userSpaceOnUse"><stop offset="0" stop-color="#ab8d60"></stop><stop offset=".5" stop-color="#dcc188"></stop><stop offset="1" stop-color="#ab8d60"></stop></linearGradient><linearGradient id="Degradado_sin_nombre_6" data-name="Degradado sin nombre 6" x1="0" y1="11" x2="6.5" y2="11" gradientTransform="translate(50.7 24.2) rotate(-180) scale(1 -1)" gradientUnits="userSpaceOnUse"><stop offset="0" stop-color="#ab8d60"></stop><stop offset=".5" stop-color="#dcc188"></stop><stop offset="1" stop-color="#ab8d60"></stop></linearGradient><linearGradient id="Degradado_sin_nombre_7" data-name="Degradado sin nombre 7" x1="6.2" y1="46.9" x2="50.8" y2="46.9" gradientTransform="translate(50.7 24.2) rotate(-180) scale(1 -1)" gradientUnits="userSpaceOnUse"><stop offset="0" stop-color="#ab8d60"></stop><stop offset=".5" stop-color="#dcc188"></stop><stop offset="1" stop-color="#ab8d60"></stop></linearGradient></defs><path class="st0" d="M124.8,17c3-4.1,5.7-7.4,8.1-9.7,0,0,0,.2.1.2.2.3.7.5,1.3.5s1.3-.2,1.9-.5c.6-.4,1-.9,1.3-1.6v-.2c.2-.6.4-1.2.5-1.9.1-.7,0-1.4-.2-2.1-.3-.7-.9-1.1-1.9-1.3-.8-.2-1.7,0-2.7.6-.9.6-2.1,1.7-3.6,3.4-1.4,1.7-3.4,4.2-5.9,7.5-2.1,2.9-4.2,5.9-6.2,9s-3.6,5.6-4.7,7.4c-2.2,3.6-4.3,7-6.3,10.3-6.3,10.2-11.9,19.4-16.9,27.3-4.9,7.8-9.3,14.6-13.1,20-2.9,4.2-5.6,7.9-7.9,11s-4.2,5.3-5.7,6.7c-1.1,1-1.7,1.1-1.8,1,0,0-.2,0-.3-.3-.2-1.7,0-4,.8-6.6.8-2.8,2.3-7.4,4.6-13.7.2-.7.5-1.4.7-2.1,2.8-7.7,6.1-16.1,9.9-24.9,2.1-5,4.2-10,6.1-14.7.8-1.9,1.5-3.8,2.2-5.5,4.1-10.2,7-17.7,8.8-22.4,2.4-6.4,2.4-8.1,2.1-8.8,0-.5-.4-1-.9-1.3-.5-.4-1.3-.5-2.3-.2-.9.3-2.1,1.1-3.6,2.4-1.5,1.3-3.3,3.3-5.5,6.1-4.7,6-11,14.9-18.8,26.3.3-.6.6-1.2.9-1.9,1.8-3.6,3.1-6.3,4-8.2.9-1.9,1.4-3.3,1.5-4.2,0-1,0-1.7-.7-2.2-.8-.6-1.7-.9-2.7-.8-1,0-1.8.3-2.4.7,0,0-.3.2-.9.7-.4.4-.9.8-1.3,1.3-.5.5-.8,1-1,1.5-.2.8,0,1.4.3,1.9.3.4.7.7,1.2.8-1.7,5.7-5,13.1-9.9,22.2-5.1,9.4-11,20-17.8,31.3-.2.4-.4.6-.4.6,0,0-.2.2-.2.2-.2,0-.3.2-.5.3s-.3.3-.5.7c-.4.8-.4,1.4,0,2,.3.4.8.8,2,.4h.5v-.2c.3-.2.5-.4.8-.6.3-.3.6-.7.8-1,2-3.4,3.9-6.7,5.7-9.6,8.1-13.5,16.9-26.9,26.2-39.8,6.1-8.6,10.8-15,14-19.1,3.3-4.3,4.8-5.4,5.5-5.7,0,.7-.5,2.5-2.3,7.3-1.8,4.7-4,10.2-6.5,16.3l-3,7.4c-6,14.7-11.4,28.8-16.1,41.9-2.2,6.3-3.7,11.2-4.4,14.6-.8,3.5-1,5.9-.7,7.3.4,2,1.5,2.5,2.3,2.6.3,0,.6,0,.9,0h.3c1.4,0,3.2-1.2,5.4-3.7s5.9-7.2,10.8-14.1c9-12.6,22.1-32.8,39.2-60.2,2.6-4.1,5.5-8.5,8.8-13v.3Z"></path><path class="st6" d="M180.7,56.4h-.7c-13.6,6.8-23.7,12.4-30,16.7-.2,0-.5.2-.9-.2-.5-.6-1.2-1.4-1.9-2.4v-.2c-.4-.4-.8-1-1.4-2-.5-.9-.9-2.1-1.1-3.3-.2-1.2.2-2.5.9-3.8.8-1.1,2.2-2.2,4.3-3.2s4.7-2.1,7.8-3.2c.7-.3,1.3-1,1.5-1.8.3-.8.3-1.6.2-2.2,0-.7-.5-1.3-1.1-1.6s-1.2-.3-2,0c-5.8,2.1-10,4.6-12.6,7.5-1.1.7-2.6,1.5-4.6,2.5-2.1,1-4.7,2-7.5,2.8s-5.9,1.2-9,1.2-.5,0-.7,0c1.8-2.9,3-5.3,3.5-7.1.6-1.9.7-3.3.4-4.4-.4-1.1-1-1.8-1.8-2.2-1.7-.7-3.7-.5-6,.6-2.2,1.1-4.1,2.6-5.6,4.5-2.1,2.8-2.4,5.3-1,7.3-.4.2-.7.4-1,.8-1.2,1.3-2.2,2.6-3,3.7-2.3,3.2-3,5.6-2.1,7.3.6,1,1.5,1.6,2.8,1.6s.4,0,.7,0c3.5-.7,7.4-3.8,11.4-9.3h.2v-.4s0-.2.2-.2c0,0,.2,0,.6,0h1.3c3.5,0,7.3-.7,11.4-2.2,2.8-1,5.4-2.1,7.7-3.4h0c-1.7,3.4-1.3,7,1.1,10.6.5.7.9,1.4,1.3,2,.6.9,1.2,1.7,1.7,2.4.2.2.3.4.5.6h0v.3s-.2.2-.6.5c-.3.2-.6.5-1,.7h-.1c-.5.5-1.1,1-1.8,1.7h-.3v.3l-1.2,1.2c-.6.6-1.1,1.2-1.6,2-.2.3-.4.7-.6,1-.4.8-.6,1.7-.5,2.6v.2h0c0,.2.1.4.2.6.1.3.4.7.7,1s.8.6,1.5.7h1.1c.8,0,1.7-.2,2.7-.5,1.3-.5,2.7-1.4,4.1-2.8l.4-.4s.1-.2.2-.3c1.4-1.8,2.3-3.5,2.4-5.1.2-1.5-.2-2.8-1-3.8v-.2c-.1,0,0,0,.3-.3,2.9-2.1,6.8-4.5,11.6-7.3,4.7-2.8,10.5-5.9,17.2-9.2l.3-.2h0c.3,0,.4-.3.5-.4.3-.4.2-.7,0-.9-.1-.2-.3-.4-.5-.5l.5.2ZM144.4,80.5h.3v-.3h.2v-.3q.1,0,.2,0h.1c.6-.7,1.4-1.4,2.5-2.2h.1c.2.4.3.9.3,1.5s-.3,1.4-.9,2.4c-.6,1-1.3,1.8-2.2,2.6-.8.7-1.6,1-2.3.9-.5,0-.5-.3-.5-.4,0-.4.2-.9.5-1.5.6-1.1,1.2-1.9,1.8-2.5h-.1ZM115.2,64.6c.8.2,1.7.4,2.8.5-1.5,2.2-3.2,4.1-5,5.8-1.7,1.5-3.2,2.2-4.6,1.9h0c-.2-.4,0-.8.2-1.4.4-.7.9-1.4,1.5-2s1.3-1.2,1.8-1.7l.6-.5h0c.2-.2.4-.4.6-.5h.2c.6-.5,1.1-.9,1.5-1.3s.4-.5.4-.7h0ZM118.6,62.8h-.3c-1.1-.3-2-.7-2.4-1.1-.5-.4-.7-.8-.8-1.2v-1.1h0v-.3c.2-.8.6-1.5,1-2.1.8-1,1.7-1.9,2.7-2.6.9-.7,1.8-1,2.4-.9.3,0,.5.3.8.8.3.6.2,1.6,0,2.9-.3,1.4-1.1,3.2-2.4,5.4,0,0-.2.2-.3.3h-.7,0ZM143.2,79h0Z"></path><path class="st5" d="M500.8,74.8c2.9-2.1,6.8-4.5,11.6-7.3,4.7-2.8,10.5-5.9,17.2-9.2l.3-.2h0c.3,0,.4-.3.5-.4.3-.4.2-.7,0-.9,0-.2-.3-.4-.5-.4h-.7c-13.6,6.8-23.7,12.4-30,16.7-.2,0-.5.2-.9-.2-.5-.6-1.2-1.4-1.9-2.4v-.2c-.4-.4-.8-1-1.4-2-.5-.9-.9-2.1-1.1-3.3-.2-1.2.2-2.5.9-3.8.8-1.1,2.2-2.2,4.3-3.2,2.1-1,4.7-2.1,7.8-3.2.7-.3,1.3-1,1.5-1.8s.3-1.6.2-2.2c0-.7-.5-1.3-1.1-1.6s-1.3-.3-2,0c-5.8,2.1-10,4.6-12.6,7.5-1.1.7-2.6,1.5-4.6,2.5-2.1,1-4.7,2-7.5,2.8s-5.9,1.2-9,1.2-.5,0-.7,0c1.8-2.9,3-5.3,3.5-7.1.6-1.9.7-3.3.4-4.4-.3-1.1-1-1.8-1.8-2.2-1.7-.7-3.7-.5-6,.6-2.2,1.1-4.1,2.6-5.6,4.5-.5.7-.9,1.4-1.2,2-6,4.2-11,7.3-14.8,9.3-3.8,2-6.8,3.3-8.7,3.8-2.6.7-3.1.4-3.2.4-.3-.2-.4-.7-.3-1.4,0-.9.3-2,.6-3.2.3-1.2.7-2.3,1-3.3.1-.4.2-.8.3-1.1.1-.4.3-.8.4-1.2.4-1,.6-2,.6-2.7s-.1-1.6-1.7-2c-.6,0-1.3.4-2.5,1.6-1,1-2.1,2.3-3.4,3.8-1.7,2-3.3,3.8-4.9,5.4-1.8,1.8-2.6,1.9-3,1.7-.1,0-.2-.2-.2-.3v-1.2c.4-2,1.2-4.1,2.2-6.5,1.1-2.4,2.2-4.6,3.5-6.8,1.2-2.1,2.8-4.7,4.6-7.5h0c.3-1.3-.2-1.9-.6-2.2-.6-.4-1.2-.5-2-.4-.8,0-1.5.4-2,.9-5.5,5.9-10.6,11-15.2,15.2-3.8,3.5-6.6,6-8.5,7.4.8-1,1.7-2.1,2.9-3.4,1.7-1.9,3.1-3.4,4.3-4.6.9-.9.5-1.6.3-2-.4-.5-.8-.9-1.4-1.2s-1.3-.3-2,0-1.3.6-1.8,1.3h0c-6.2,4.4-11.3,7.8-15.2,10-3.9,2.2-6.9,3.6-8.9,4.1-1.8.4-3,.2-3.5-.5h0c-.1-.2-.5-.8.1-3.6.5-2.1,1.8-5.3,4-9.7h0c.3-.6.5-1.1.6-1.5.2-.6,0-1.1-.6-1.5h0c.2-1.1.3-1.9.1-2.7-.1-.9-.6-1.6-1.4-2.1-1.5-.7-3.3-.3-5.4,1.1-1.9,1.4-4,3.2-6.1,5.5-.3.3-.6.6-.8.9-13.5,6.8-23.5,12.4-29.8,16.6-.2,0-.5.2-.9-.2-.5-.6-1.2-1.4-1.9-2.4v-.2c-.4-.4-.8-1-1.4-2-.5-.9-.9-2.1-1.1-3.3-.2-1.2.2-2.5.9-3.8.8-1.1,2.2-2.2,4.3-3.2,2.1-1,4.7-2.1,7.8-3.2.7-.3,1.3-1,1.5-1.8s.3-1.6.2-2.2c0-.7-.5-1.3-1.1-1.6s-1.3-.3-2,0c-5.8,2.1-10.1,4.7-12.7,7.6-6.1,4.3-11.2,7.6-15,9.9-3.9,2.2-6.9,3.6-8.9,4.1-1.8.4-3,.2-3.5-.5h0c-.1-.2-.5-.8.1-3.6.5-2.1,1.8-5.3,4-9.7h0c.3-.6.5-1.1.6-1.5.2-.6,0-1.1-.6-1.5v-.2c.2-1,.3-1.8.1-2.6-.1-.9-.6-1.6-1.4-2.1-1.5-.7-3.3-.3-5.4,1.1-1.9,1.4-4,3.2-6.1,5.5-.4.4-.7.8-1.1,1.1-12.4,9.1-23.9,17-34.2,23.5-10.4,6.5-19.3,11.5-26.4,14.9-5.7,2.6-10.7,4.1-14.8,4.7-4,.5-6.7,0-7.9-1.5-1.3-2.1-1.1-6.1.8-11.8,1.9-5.8,5.2-12,9.6-18.6,5.2-7.4,11.5-15.1,18.6-22.7,7.1-7.6,14.6-14.8,22.3-21.3,6.8-5.7,12.4-10.1,16.9-13.1s8-4.9,10.4-5.7c2.8-.9,3.9-.6,4.2-.2.5.6.8,2.1-.2,5.7-.9,3-2.5,6.6-4.8,10.7s-5.2,8.3-8.7,12.6v.2c-.6.6-1.1,1.1-1.6,1.7-.1.2-.2.3-.4.5-.6.7-1.2,1.5-1.8,2.2-.6.7-1,1.4-1.2,1.9-.1.3-.1.5-.1.8s.3.7.9.7h.3c.2,0,.4,0,.6-.3.2,0,.5-.3.8-.5,4-3.2,8-6,11.7-8.3,3.6-2.2,6.1-3.5,7.5-4,1.2,0,2.1-.6,2.7-1.7.4-.7.4-1.4.2-2-.3-.6-.8-1-1.6-1.2-.5,0-1.5.2-4.6,2.3-2.2,1.5-4.7,3.4-7.4,5.5-1.6,1.3-3.2,2.5-4.7,3.8,3.3-4.1,6.3-8.2,9-12.3,3.4-5,5.9-9.5,7.5-13.3,1.7-4,2-6.7.7-8.2-1.1-1.4-3.1-2-6-1.8-2.8.3-6.8,1.9-12.2,5-5.2,3.1-12.2,8.3-20.8,15.5-16.2,13.9-30,29.1-40.9,45.1-1.7,2.4-3.4,5.2-5.2,8.3-1.8,3.1-3.4,6.3-4.7,9.5-1.4,3.2-2.2,6.3-2.5,9.2-.3,2.9.2,5.4,1.6,7.4,1.6,2.2,4.3,3.3,7.9,3.3s11.1-1.9,19.2-5.6c7.3-3.4,16.1-8.5,26.2-15.1,8.2-5.4,17.3-11.7,27.1-18.9-.4.5-.8,1.1-1.2,1.8-.5.9-.9,1.7-1.1,2.5-.2,1,.1,1.8,1,2.2,1,.4,2.2.4,3.7,0,1.4-.5,2.9-1.2,4.5-2.3,1-.6,1.9-1.3,2.8-2.1.9-.7,1.9-1.6,3-2.6-1.5,4.6-1.1,7.8,1.2,9.5.9.6,2,.9,3.3.9h0c2.5,0,6-1.6,10.7-4.5,3.8-2.3,8.1-5.2,12.8-8.6-1.3,3.2-.8,6.5,1.4,9.8.5.7.9,1.4,1.3,2,.6.9,1.2,1.7,1.7,2.4.2.2.3.4.5.6h0v.3s-.2.2-.6.5c-.3.2-.6.5-1,.7h-.1c-.5.5-1.1,1-1.8,1.7h-.3v.3c-.3.3-.7.7-1.2,1.2-.6.6-1.1,1.2-1.6,2-.2.3-.4.7-.6,1-.4.8-.5,1.7-.5,2.6v.2h0c0,.2.1.4.2.6.1.3.4.7.7,1,.3.3.8.6,1.5.7h1.1c.8,0,1.7-.2,2.7-.5,1.3-.5,2.7-1.4,4.1-2.8l.4-.4s.1-.2.2-.3c1.4-1.8,2.3-3.5,2.4-5.1.2-1.5-.2-2.8-1-3.8v-.2c-.1,0,0,0,.3-.3,2.9-2.1,6.8-4.5,11.6-7.3,3.8-2.2,8.3-4.6,13.3-7.2-1,1.1-1.8,2.1-2.5,3.1h-.2c-.4.7-.8,1.3-1.4,2.2-.5.9-.9,1.7-1.1,2.5-.2,1,.1,1.8,1,2.2,1,.4,2.2.4,3.7,0,1.4-.5,2.9-1.2,4.5-2.3,1-.6,1.9-1.3,2.8-2.1.9-.7,1.9-1.6,3-2.6h0c-1.5,4.6-1.1,7.8,1.2,9.5.9.6,2,.9,3.3.9h0c2.5,0,6-1.6,10.7-4.5,3.7-2.3,8-5.1,12.6-8.4-1.3,1.9-2.3,3.5-3,4.8-.6.9-1.1,1.9-1.7,2.8-.7,1.2-.9,2.1-.7,2.6.1.2.4.5,1,.6,1,0,2.4-.4,4.2-1.7,2.8-2.1,6.5-5.2,10.9-9.4,3.8-3.5,7.3-6.9,10.5-10.2-1.1,2.3-2.1,4.6-3,6.9-1.2,3-2,5.6-2.4,7.7-.4,2.4-.1,3.8,1,4.4,1.5.5,3.2,0,5.1-1.6,1.8-1.5,3.8-3.5,6-5.8l.2-.2c-.2.9-.4,1.9-.6,2.9-.2,1.5-.3,3-.1,4.4.2,1.5.7,2.6,1.8,3.3.6.3,1.2.5,2.1.5s2.6-.3,4.3-1c2.8-1.1,6.2-2.8,10.2-5.2,3.5-2.1,7.3-4.6,11.4-7.3,0,1,.2,1.9.8,2.8-.4.2-.7.4-1,.8-1.1,1.3-2.2,2.5-3,3.7-2.3,3.2-3,5.6-2.1,7.3.5,1,1.5,1.6,2.8,1.6s.4,0,.7,0c3.5-.7,7.4-3.8,11.4-9.3h.2v-.4s.1-.2.2-.2c0,0,.2,0,.6,0h1.3c3.5,0,7.3-.7,11.5-2.2,2.8-1,5.4-2.1,7.7-3.4h0c-1.7,3.4-1.3,7,1.1,10.6.5.7.9,1.4,1.3,2,.6.9,1.2,1.7,1.7,2.4.2.2.3.4.5.6h0v.3s-.2.2-.6.5c-.3.2-.6.5-1,.7h-.1c-.5.5-1.1,1-1.8,1.7h-.3v.3c-.3.3-.7.7-1.2,1.2-.6.6-1.1,1.2-1.6,2-.2.3-.4.7-.6,1-.4.8-.5,1.7-.5,2.6v.2h0c0,.2.1.4.2.6.1.3.4.7.7,1,.3.3.8.6,1.5.7h1.1c.8,0,1.7-.2,2.7-.5,1.3-.5,2.7-1.4,4.1-2.8l.4-.4s.1-.2.2-.3c1.4-1.8,2.3-3.5,2.4-5.1.2-1.5-.2-2.8-1-3.8v-.2c-.1,0,0,0,.3-.3l1.6.4ZM494.4,79.8c.6-.6,1.5-1.3,2.5-2.1h.1c.2.4.3.9.3,1.5s-.3,1.4-.9,2.4-1.3,1.8-2.2,2.6c-.8.7-1.6,1-2.3.9-.5,0-.5-.3-.5-.4,0-.4.2-.9.5-1.5.6-1.1,1.2-1.9,1.8-2.5h.3v-.3h.2v-.3q.1,0,.2,0l-.3-.4.4.3h-.1ZM461.7,67.1h.1c.2-.2.4-.4.6-.5h.2c.6-.5,1.1-.9,1.5-1.3.2-.2.4-.5.4-.7.8.2,1.7.4,2.8.5-1.5,2.2-3.2,4.1-5,5.8-1.7,1.5-3.2,2.2-4.6,1.9h0c-.2-.4-.1-.8.2-1.4.4-.7.9-1.4,1.5-2,.7-.7,1.3-1.2,1.8-1.7l.6-.5h-.1ZM467.9,62.8h-.3c-1.1-.3-2-.7-2.4-1.1-.5-.4-.7-.8-.8-1.2v-1.1h0v-.3c.2-.8.6-1.5,1-2.1.8-1,1.7-1.9,2.7-2.6.9-.7,1.8-1,2.4-.9.3,0,.5.3.8.8.3.6.2,1.6,0,2.9-.3,1.4-1.1,3.2-2.4,5.4,0,0-.2.2-.3.3h-.7ZM376.5,55.2c0,0,0,.4-.2.7-.3.7-.6,1.3-1,1.9h0c-.3.5-.4,1.1-.6,1.7h-.1v.5s0,.2-.6.9c-1.8,1.8-3.8,3.4-5.8,4.7s-3.7,2-5,2.3h-.3c0,0,0-.3.3-.6.2-.4.5-.7.6-.9h0c1.1-1.5,2.5-3.1,4.4-4.9,1.8-1.8,3.6-3.3,5.3-4.6,1.6-1.2,2.5-1.6,2.9-1.7h.1ZM303.5,55.2c0,0,0,.4-.2.7-.3.6-.6,1.3-1,1.9h0c-.3.5-.4,1.1-.6,1.7h-.1v.5s0,.2-.6.9c-1.8,1.8-3.8,3.4-5.8,4.7s-3.7,2-5,2.3h-.3c0,0,0-.3.3-.6.2-.4.5-.7.6-.9h0c1.1-1.5,2.5-3.1,4.4-4.9,1.8-1.8,3.6-3.3,5.3-4.6,1.6-1.2,2.5-1.6,2.9-1.7h.1ZM333.4,79.8c.6-.6,1.5-1.3,2.5-2.1h.1c.2.4.3.9.3,1.5s-.3,1.4-.9,2.4-1.3,1.8-2.2,2.6c-.8.7-1.6,1-2.3.9-.5,0-.5-.3-.5-.4,0-.4.2-.9.5-1.5.6-1.1,1.2-1.9,1.8-2.5h.3v-.3h.2v-.3q.1,0,.2,0l-.3-.4.4.3h-.1ZM331.5,79h0ZM492.5,79h0Z"></path><path class="st4" d="M533.6,76.6c-.8,0-1.7.3-2.5.9s-1.3,1.2-1.7,2c-.3.7-.2,1.4,0,2.3.2.3.5.6,1.2.7h1.5c.8,0,1.5-.2,2-.7.5-.4.8-1.1,1.2-1.9.3-.9.4-1.7,0-2.3-.2-.4-.7-1-1.9-1h.1Z"></path><path class="st3" d="M579,13.7c-.9-.7-1.6-1-2.3-.9-.7,0-1.3.4-1.7.9-.4.4-.8.9-1.1,1.3,0,.1,0,.2-.2.3-6.8,9-13.2,18.1-18.9,26.9-5.7,8.9-11.8,18.6-18.1,28.9-.2.3-.5.7-.7,1.1-.5.9-.6,1.5-.3,2,0,.2.4.5,1,.5s.4,0,.6,0c.6-.2,1.1-.7,1.7-1.6,13.3-20.7,26.4-39.3,39.1-55.3.5-.6.9-1,1.2-1.3.5-.4.8-.8.8-1.2s-.2-.9-1-1.6h0Z"></path><path class="st2" d="M46.3,38.1c.8,0,1.7-.3,2.5-.9s1.3-1.2,1.7-2c.3-.7.2-1.4,0-2.3-.2-.3-.5-.6-1.2-.7h-1.6c-.8,0-1.5.2-2,.7-.4.4-.8,1.1-1.2,1.9-.3.9-.4,1.7,0,2.3.2.4.7,1,1.9,1Z"></path><path class="st1" d="M.8,98.3c-.5.4-.8.8-.8,1.2s.2.9,1,1.6c.9.7,1.6,1,2.3.9.7,0,1.3-.4,1.7-.9.4-.4.8-.9,1.1-1.3,0,0,0-.2.2-.3,6.8-9,13.2-18.1,18.9-26.9,5.7-8.8,11.8-18.6,18.1-28.9.2-.3.5-.7.7-1.1.5-.9.6-1.5.3-2,0-.2-.4-.5-1-.5s-.4,0-.6,0c-.6.2-1.1.7-1.7,1.6C27.7,62.5,14.6,81.1,1.9,97.1c-.5.6-.9,1-1.2,1.3h0Z"></path></svg>