<svg xmlns="http://www.w3.org/2000/svg" xmlns:xlink="http://www.w3.org/1999/xlink" id="vestimenta" viewBox="0 0 580 188"><defs><style> .st0 { fill: url(#Degradado_sin_nombre_6); } .st1 { fill: url(#Degradado_sin_nombre_61); } .st2 { fill: url(#Degradado_sin_nombre_62); } .st3 { fill: url(#Degradado_sin_nombre_64); } .st4 { fill: url(#Degradado_sin_nombre_63); } </style><linearGradient id="Degradado_sin_nombre_6" data-name="Degradado sin nombre 6" x1="0" y1="99.6" x2="129.9" y2="99.6" gradientUnits="userSpaceOnUse"><stop offset="0" stop-color="#ab8d60"></stop><stop offset=".5" stop-color="#dcc188"></stop><stop offset="1" stop-color="#ab8d60"></stop></linearGradient><linearGradient id="Degradado_sin_nombre_61" data-name="Degradado sin nombre 6" x1="62.8" y1="93.9" x2="344.3" y2="93.9" xlink:href="#Degradado_sin_nombre_6"></linearGradient><linearGradient id="Degradado_sin_nombre_62" data-name="Degradado sin nombre 6" x1="191.9" y1="104.8" x2="199.6" y2="104.8" xlink:href="#Degradado_sin_nombre_6"></linearGradient><linearGradient id="Degradado_sin_nombre_63" data-name="Degradado sin nombre 6" x1="172" y1="94.1" x2="580" y2="94.1" xlink:href="#Degradado_sin_nombre_6"></linearGradient><linearGradient id="Degradado_sin_nombre_64" data-name="Degradado sin nombre 6" x1="409.1" y1="121.1" x2="471.7" y2="121.1" xlink:href="#Degradado_sin_nombre_6"></linearGradient></defs><path class="st0" d="M109.4,49.2c8-7.1,14.4-11.1,19-11.9.9-.2,1.2-.8,1.4-1.3.2-.5.2-1.2,0-1.8-.1-.7-.4-1.2-.7-1.6h0c-.5-.7-1.3-1-2.2-1s-1.7.3-2.5,1c-11.7,9.4-23.2,20-33.9,31.4-10.8,11.5-20.9,23.1-30,34.6-9.1,11.5-17.2,22.2-24.1,31.8-6.8,9.6-12.2,17.3-16,23-2,2.9-3.6,5.1-4.5,6.5-.2.4-.4.5-.5.6,0,0,0,0,0,0,.3-2.8,1.3-7.4,2.9-13.7,1.6-6.4,3.1-12.2,4.5-17.3.8-3.1,1.4-5.1,1.6-6.2,3.2-13.6,5.7-24.9,7.3-33.8,1.6-8.9,2.5-15.9,2.8-21,.2-5.2,0-8.9-.9-11.3-.9-2.5-2.2-4-3.9-4.5-1.9-.7-3.8-.4-5.7,1-1.8,1.3-3.6,3-5.6,5.2-1.6,1.7-3.3,3.4-5.2,5.1-1.4,1.2-2.9,2-4.5,2.4-1.6.4-3.5.8-5.5,1-.3,0-.6,0-1,.1-.7.1-1.2.6-1.6,1.3-.3.6-.5,1.3-.6,2,0,.7,0,1.4.3,1.9.4.8,1.1,1.2,2,1.2s1.6-.2,2.5-.5c2.1-.8,3.9-1.7,5.4-2.7,1.5-1,3.1-2.5,4.8-4.4,1.9-2.2,4-4.1,6.1-5.9,2.6-2.1,3.9-2.5,4.6-2.5,1,0,1.4,1.5,1.7,2.7.4,2,.4,6,0,11.7-.9,10.4-4,27.5-9.2,50.7-.4,1.8-1.1,5.2-2.2,10.2-1.1,5-2.1,10.1-3.2,15.2-1.1,5.1-1.8,8.6-2.1,10.5-.1.5-.2,1-.3,1.4-.5,2-.7,3.7-.7,4.9,0,1.5.8,2.4,2.4,2.7,0,0,0,0,.1,0,.9,0,1.9-.4,2.8-1.2.9-.8,1.7-1.7,2.5-2.7.5-.6.9-1.2,1.3-1.7.7-.9,1.4-1.9,2.2-3,.8-1.1,1.8-2.6,3-4.5,8.6-13.4,18-27,28.1-40.4,10.1-13.4,20.2-26,30.1-37.3,9.9-11.3,19-20.7,27.1-27.8Z"></path><path class="st1" d="M204.2,62.2c3.1-3.8,5.9-7.3,8.6-10.6v-.2c.5-.4.8-.7,1-.9.3-.2.5-.3.6-.4,34.7-3.8,61.9-6,80.8-6.6,11.6-.4,20.7-.2,27.2.5,6.4.7,11,1.6,13.5,2.8,3,1.4,3.4,2.4,3.3,2.8,0,.3-.1.6-.3.8-.2.2-.5.5-.8.7-.5.4-1.1,1-1.8,1.8-.6.9-.9,1.6-.7,2.3.1.6.6,1.1,1.3,1.5.7.4,1.6.5,2.5.2.9-.3,1.6-.8,2.3-1.6,1.6-2.1,2.5-3.9,2.7-5.4.2-1.5,0-2.8-.4-3.7-.5-1.6-2.1-3-4.9-4.2-2.7-1.2-7.3-2-14.2-2.6-6.7-.5-16.6-.6-29.2-.1-18.6.7-44.9,3.1-78.3,7.1h-.1c0,0,0,0-.1,0v-.2c4.9-6,9-11.5,12.4-16.2,4.8-6.8,8.9-12.8,12.1-17.9,1.9-3,3.2-5.2,3.9-6.6.4-.5.6-1,.6-1.4.5-1.6.4-2.8-.4-3.5-.5-.5-1.3-.7-2.2-.7-.9,0-1.8.4-2.9,1.2-2.3,2.1-6.7,7.6-13.1,16.3-6.4,8.7-13.1,18-19.9,27.6-.9,1.2-1.7,2.1-2.3,2.4-.6.3-1.3.5-2.1.6-2.4.3-5,.6-7.5.9-23.9,2.8-41.9,4.1-53.4,3.8-2.6,0-4.7-.4-6.1-.8-1.4-.4-2.3-.9-2.8-1.4-.7-.8-.9-1.5-.7-2.2.3-.8.8-1.5,1.5-2,.7-.6,1.3-1,1.6-1.2l.5-.3c.9-.5,1.5-1.2,1.9-2,.4-.9.4-1.7,0-2.5-.4-.8-1-1.3-1.9-1.4-.8-.1-1.7,0-2.6.5-1,.6-2.3,1.5-3.9,2.6-1.6,1.1-3,2.4-4.3,3.9-1.3,1.6-1.9,3.3-1.8,5,0,1.7,1.4,3,4,3.9,2.5.8,6.8,1.4,13.3,1.7,9.9.4,28.2-1,54.5-4.2,2.2-.2,4.4-.5,6.6-.8.4,0,.6,0,.7,0,0,.2-.3.7-1.2,1.8-6.5,9.2-12.5,17.9-17.9,25.7-.2.3-.5.7-1,1.3-.5.6-.9,1.1-1.4,1.7-.5.6-.9,1-1.2,1.3-12.3,11.7-24.5,23-36.3,33.6-11.8,10.6-19.6,17.3-23.3,19.9-.4.2-.8.3-1.4-.3-.7-.9-1.5-1.9-2.5-3.2,0,0,0-.1-.2-.2-.4-.5-1-1.4-1.7-2.6-.7-1.3-1.2-2.7-1.4-4.4-.2-1.6.2-3.4,1.2-5.1,1-1.5,3-2.9,5.7-4.3,2.8-1.4,6.3-2.8,10.4-4.2.9-.4,1.6-1.2,2-2.3.3-1,.4-2,.3-2.8-.1-.9-.6-1.6-1.4-1.9-.7-.3-1.6-.4-2.6,0-7.6,2.7-13.1,6-16.6,9.7-8.6,5-16.4,8.9-23.2,11.7-6.7,2.8-12,4.2-15.8,4.2s-3.4-.4-4.7-1.3c-1.2-.8-1.8-2-1.9-3.6.6-2.5,1.9-4.9,3.8-7,.1-.1.2-.3.3-.4.9-.9,1.7-1.5,2.5-2,1-.5,1.5-.7,1.8-.7,3.7-.8,7.7-2,11.8-3.5,2-.8,3.8-1.6,5.2-2.6,1.5-1,2.5-2.2,3-3.5.4-1.1.3-2-.2-2.9-.5-.8-1.1-1.4-2-1.8-3.5-1.3-8.7.6-15.9,5.8-1,.7-2,1.5-3,2.3l-.5.5c-1.5,1.2-3.5,3.2-5.9,5.9-.5.7-1,1.4-1.5,2.1-.7.9-1.3,1.9-1.8,3-1.9,3.9-2.2,7.2-.9,9.8,1.2,1.8,3.3,2.8,6.2,3,.4,0,.8,0,1.3,0,4.2,0,9.9-1.5,17-4.4,6.8-2.8,14-6.5,21.5-11,0,.1-.1.2-.2.3-2.2,4.5-1.7,9.1,1.5,13.8.6.9,1.2,1.8,1.8,2.6.9,1.2,1.6,2.3,2.3,3.1.2.3.5.6.7.9,0,0,0,.2.1.2,0,0,0,0-.1.3,0,.1-.3.4-.8.8-.4.3-.8.6-1.1.9,0,0-.2,0-.3.2-.6.5-1.4,1.2-2.4,2.2l-.2.2c-.5.4-1.1.9-1.8,1.7-.7.7-1.4,1.6-2,2.5-.3.4-.5.9-.8,1.3h0c-.5,1.2-.7,2.2-.6,3.2v.5h.1c0,.2.1.4.2.7.2.4.5.8.9,1.2.4.4,1.1.7,1.8.9.2,0,.3,0,.4,0,1.3.2,2.8,0,4.5-.6,1.7-.6,3.5-1.8,5.4-3.7l.5-.5c.1-.1.2-.3.3-.4,1.9-2.3,3-4.5,3.2-6.6.2-2-.2-3.6-1.3-4.9v-.3h-.1s0,0,0,0c0,0,.2-.3.6-.6,3.7-3.2,11.3-9.9,22.3-19.9,10.3-9.4,21-19.2,31.9-29.3-11,16.1-20.1,29.9-27,40.9-7.3,11.6-12.9,21.1-16.6,28.3-3.8,7.2-6.2,12.8-7.3,16.6-1.1,4-1.4,6.8-.8,8.6.4,1.4.9,2.3,1.6,2.9.7.6,1.7.9,3,.9s1.7-.3,2.5-.9c.7-.6,1.3-1.3,1.6-2.2.2-.4.6-1.6,0-2.2-.6-.7-1.9-.4-2.7,0-.7.2-1,.1-1.1,0-.2-.1-.4-.3-.5-.6-.1-.3-.2-.6-.2-.8h0c-.1-.6-.1-1.8.5-4.5.5-2.2,1.9-5.8,4.2-10.6,2.3-4.8,6.1-11.6,11.3-20.2,5-8.2,11.6-18.2,19.6-29.6,8-11.4,17.4-24.8,28.1-39.7,4.1-5.1,8-9.9,11.6-14.2ZM213.7,46.7c4.5-6.3,8.4-11.8,11.9-16.4-3.4,4.9-7.2,10.2-11.5,16h0c-.1.2-.2.4-.4.5ZM112.8,146.3h.3v-.3s0,0,.1-.1c0,0,0,0,.1-.1l.5-.5c.8-.8,2-1.7,3.3-2.8.1,0,.2-.1.3-.2,0,0,0,0,0,.1.2.6.4,1.3.4,2s-.4,1.9-1.2,3.2c-.8,1.3-1.8,2.5-3,3.4-1.1.9-2.2,1.4-3.2,1.3-.8-.1-.8-.5-.8-.7,0-.6.2-1.3.7-2.1.8-1.4,1.6-2.6,2.4-3.3ZM84.5,109.3h.2s.1-.1.1-.1h.5v-.2c.6-.2,1.1-.3,1.5-.3.4,0,.8,0,.9.2h0c0,.3-.3.8-1.3,1.4-1.2.7-2.7,1.3-4.5,1.9-1.9.7-3.7,1.2-5.3,1.6,1.6-1.2,3.2-2.2,4.7-3,1.1-.7,2.1-1.2,3-1.4Z"></path><path class="st2" d="M198.2,101.4c-.5-.1-1-.2-1.6-.2-.9,0-1.7.3-2.4.9-.6.6-1.1,1.3-1.3,2.3,0,.3-.2.7-.5,1.1-.3.5-.4,1-.5,1.4,0,.4,0,.6.2.8.2.3.5.4,1,.5.2,0,.5,0,.8,0,.8,0,1.6-.2,2.6-.5,1.3-.5,2.3-1.4,2.9-2.9.3-1,.4-1.8.2-2.3-.2-.6-.6-1-1.3-1.1Z"></path><path class="st4" d="M579.5,46.4c-.5-1.6-2.1-3-4.8-4.2-2.7-1.2-7.4-2-14.2-2.6-6.7-.5-16.6-.6-29.3-.2-18.4.8-44.5,3.1-77.4,7h0s0,0,0,0h0c0,0-.2,0-.3,0h-.1c-.1,0-.2,0-.4,0h-.1c0,0-.2,0-.2,0h.1c4.9-6.2,9.1-11.7,12.4-16.4,4.8-6.8,8.9-12.8,12.1-17.9,1.9-3,3.2-5.2,3.9-6.6.3-.5.6-1,.6-1.5.5-1.5.4-2.7-.5-3.3-.5-.5-1.2-.8-2.2-.8-.9,0-1.8.4-2.9,1.2-2.3,2.1-6.6,7.4-13.2,16.3-6.5,8.7-13.2,18-19.9,27.6-.9,1.2-1.7,2.1-2.3,2.4-.6.4-1.3.6-2,.6h-.1c-2.4.3-4.9.6-7.4.9-23.9,2.8-41.9,4.1-53.4,3.8-2.6,0-4.7-.4-6.1-.8-1.4-.4-2.3-.9-2.8-1.4-.7-.8-.9-1.5-.7-2.2.3-.8.8-1.5,1.5-2,.7-.6,1.3-1,1.7-1.2.1,0,.3-.2.5-.3.9-.5,1.5-1.2,1.9-2,.4-.9.4-1.7,0-2.5-.4-.8-1-1.3-1.9-1.4-.8-.1-1.7,0-2.6.6-1,.6-2.3,1.4-3.9,2.5-1.6,1.1-3,2.4-4.3,4-1.3,1.6-1.8,3.3-1.7,5,0,1.7,1.4,3,4,3.9,2.4.8,6.8,1.4,13.3,1.7,9.9.4,28.2-1,54.5-4.2,2.2-.2,4.4-.5,6.6-.7.3,0,.6,0,.7,0,0,.2-.3.7-1.1,1.8-17,24.1-30.9,44.5-41.4,60.4-.3.5-.6.9-.9,1.4l-2,1.5c-4.1,3.2-8.3,6.3-12.7,9.4-4.3,3.1-8.6,5.6-12.8,7.4-4.1,1.8-7.7,2.6-10.9,2.1-1.2-.3-2-1.1-2.2-2.7-.3-1.7-.2-3.7.3-6,.5-2.4,1.3-4.7,2.4-7,2.1-4.2,3.3-7.1,3.6-8.8.3-1.9-.5-3.2-2.5-3.8-1.2-.3-3.1.6-5.9,2.7-2.6,2-5.6,4.5-9,7.6-3.3,3-6.6,6.1-9.8,9.1-3.1,3-5.6,5.3-7.7,7.2-.1.1-.2.2-.3.3.1-.2.3-.4.4-.6,2.7-3.5,5.5-6.9,8.2-10.1,2.3-2.6,3.7-4.4,4.4-5.4.7-1.1.9-2,.7-2.6-.2-.7-.7-1.2-1.5-1.5-.8-.3-1.6-.4-2.4-.3-.8.2-1.4.6-2,1.3-8.6,5-16.4,8.9-23.1,11.6-6.7,2.8-12,4.2-15.7,4.2s-3.4-.4-4.7-1.3c-1.2-.8-1.8-2-1.9-3.6.6-2.5,1.9-4.9,3.8-7,.1-.1.2-.3.3-.4.9-.9,1.7-1.5,2.5-2,1-.5,1.5-.7,1.8-.7,3.7-.8,7.7-2,11.8-3.5,2-.8,3.8-1.6,5.2-2.6,1.5-1,2.5-2.2,3-3.5.3-1.1.3-2-.2-2.9-.5-.8-1.1-1.4-2-1.8-3.5-1.3-8.7.6-15.9,5.8-1,.7-2,1.5-3,2.3l-.5.4c-1.4,1.1-3.1,2.8-5.1,5-7.9,5.5-14.5,9.6-19.5,12.2-5.1,2.6-9,4.3-11.6,5-3.5.9-4.2.5-4.3.4-.5-.3-.5-1.3-.5-2,.1-1.2.4-2.7.8-4.2.4-1.5.9-3,1.3-4.3.2-.6.3-1.1.5-1.5.2-.5.3-1,.6-1.5.5-1.4.8-2.5.8-3.5,0-.8-.2-1.9-2.1-2.5-.7,0-1.7.5-3.2,2-1.3,1.3-2.8,2.9-4.5,4.9-2.2,2.6-4.4,5-6.5,7.1-2.3,2.3-3.5,2.5-4.2,2.3-.2-.2-.3-.3-.3-.5,0-.3,0-.6,0-.8,0-.1,0-.3.1-.5v-.2c.6-2.6,1.6-5.5,3-8.5,1.4-3.1,3-6.1,4.6-8.9,1.6-2.8,3.7-6.1,6.1-9.8h0c.4-1.6-.2-2.3-.8-2.6-.7-.4-1.6-.6-2.6-.5-1,0-1.9.5-2.5,1.1-7.3,7.7-14.1,14.4-20.2,20-5.7,5.2-9.8,8.7-12.2,10.4,1.1-1.4,2.6-3.2,4.6-5.4,2.2-2.4,4.1-4.5,5.7-6,1.1-1.1.7-2,.3-2.4-.5-.6-1.1-1.1-1.8-1.5-.8-.3-1.6-.4-2.6-.2-.9.2-1.7.8-2.3,1.6,0,0,0,.1-.1.2-13.7,9.1-23.8,15.4-29.9,18.6-8,4.2-9.5,3.6-9.8,3.4-.3-1.3.3-3.1,1.8-5.4,1.6-2.5,3.6-5,5.7-7.4,2.2-2.4,3.9-4.3,5.1-5.5l.9-.9c.3-.3.6-.6.8-.9.5-.4.8-.8,1.1-1.2.2-.4.4-.9,0-1.7-.4-.6-1.1-.8-2.2-.9-1,0-2,.1-2.9.4-1.1.3-1.8.7-2.3,1.3-.3.5-.6.9-.9,1.2-.3.4-.6.8-.9,1.2l-.9,1.3c-2.2,3-4.2,5.9-6,8.7-1.8,2.8-3.1,5.3-3.7,7.4-.7,2.3-.4,4.1.8,5.5.5.4,1.1.6,1.9.6,1.2,0,2.8-.4,4.9-1.3,3.2-1.3,7.1-3.4,11.5-6,4.4-2.6,8.9-5.4,13.5-8.4,3-2,5.8-3.8,8.4-5.6-1.9,2.8-3.4,5.2-4.5,7-.7,1.2-1.5,2.4-2.3,3.7-.9,1.6-1.2,2.6-.9,3.3.1.3.5.6,1.2.7,1.3.2,3.1-.5,5.5-2.2,3.7-2.7,8.6-6.8,14.5-12.3,5.3-4.9,10.2-9.6,14.6-14.1-1.6,3.3-3.1,6.6-4.4,9.9-1.6,3.9-2.6,7.3-3.1,10.1-.6,3.1-.2,4.9,1.2,5.7,1.9.7,4.2,0,6.7-2.1,2.4-2,5-4.5,7.9-7.7l.7-.7c-.3,1.3-.6,2.8-.9,4.3-.3,2-.4,3.9-.2,5.7.2,1.9,1,3.3,2.3,4.3.7.4,1.6.6,2.7.6,1.5,0,3.4-.4,5.7-1.3,3.7-1.4,8.3-3.7,13.5-6.9,3.9-2.4,8.2-5,12.7-8-.3.5-.6.9-.8,1.4-1.9,3.9-2.2,7.2-.9,9.8,1.2,1.8,3.3,2.8,6.2,3,.4,0,.8,0,1.3,0,4.2,0,9.9-1.5,17-4.4,6.9-2.8,14.2-6.6,21.8-11.1-1.3,2-2.7,4.1-4,6.1-2,3.2-3.7,6.1-5.1,8.4-.9,1.6-2,3.5-2.1,3.7-.5,1-1,2.4-.3,3.1.3.2.6.3,1,.3s.9-.1,1.4-.3c1-.4,1.9-1,2.8-1.7,1.1-.8,3.3-2.9,6.8-6.2,3.5-3.3,7.2-6.8,11.1-10.3,3.9-3.6,7.2-6.3,9.7-8,.3-.2.6-.3.9-.5.2,0,.3-.1.4-.1,0,0,0,0,0,0-.3,1.1-.7,2.3-1.3,3.5-.4.8-.7,1.6-1,2.4-1.7,4.5-2.3,8.3-1.9,11.5.4,3.3,1.9,5.6,4.4,6.9,3.7,1.8,9.3.8,16.5-3,6.2-3.3,13.6-8.4,22.1-15.2-8.7,13.4-15.5,24.4-20.1,32.7-5.3,9.5-8.8,16.8-10.5,21.6-1.7,5-2.1,8.4-1.4,10.4.3,1.3.9,2.3,1.6,2.9.7.6,1.7.9,3,.9s1.7-.3,2.5-.9c.7-.6,1.3-1.3,1.6-2.2.2-.4.6-1.6,0-2.2-.6-.7-1.9-.3-2.7,0-.5.2-.9.2-1.1,0-.2-.2-.4-.4-.5-.6-.1-.3-.2-.6-.2-.9-.1-.5-.1-1.7.5-4.4.5-2.2,1.9-5.8,4.2-10.6,2.3-4.9,6.1-11.6,11.3-20.2,5.1-8.2,11.7-18.1,19.6-29.6,8-11.5,17.5-24.9,28.1-39.8,4.1-5.1,8-9.9,11.6-14.3,3.1-3.7,5.9-7.2,8.6-10.5v-.2c.4-.4.7-.7,1-.9.3-.2.5-.3.6-.3,34.7-3.8,61.9-6,80.8-6.7,11.6-.4,20.8-.2,27.2.5,6.4.7,11,1.7,13.5,2.8,3,1.4,3.4,2.3,3.3,2.8,0,.3-.1.6-.3.8-.2.2-.5.5-.8.8-.5.4-1.1,1-1.8,1.8-.6.9-.9,1.7-.7,2.4.1.6.5,1.1,1.3,1.6.8.4,1.6.5,2.5.2.9-.3,1.6-.8,2.3-1.6,1.6-2.1,2.5-3.9,2.7-5.5.2-1.5,0-2.8-.4-3.7ZM461.9,29.6c-3.5,5.1-7.5,10.8-12.1,16.8h0c0,.2-.2.3-.3.4,4.7-6.7,8.9-12.4,12.4-17.2ZM305.5,109.3h.2s.1-.1.1-.1h.5v-.2c.6-.2,1.1-.3,1.5-.3.4,0,.8,0,.9.2h0c0,.4-.4.9-1.3,1.4-1.2.7-2.7,1.3-4.5,1.9-1.9.7-3.7,1.2-5.3,1.6,1.6-1.2,3.2-2.2,4.7-3,1.1-.7,2.1-1.2,3-1.4Z"></path><path class="st3" d="M471.4,115.1c-.3-.3-1-.3-1.4,0-8.3,5.8-15.1,10.2-20.3,13.2-5.2,3-9.2,4.8-11.9,5.3-2.5.6-4.1.3-4.8-.7h0c-.2-.3-.6-1.2.2-4.8.6-2.8,2.4-7.1,5.3-12.8h0c.4-.7.6-1.4.8-1.9.2-.7,0-1.4-.7-1.8,0,0,0,0,0,0,0,0,0-.2,0-.2.3-1.2.3-2.4.2-3.4-.2-1.1-.8-2-1.8-2.6-1.9-.9-4.3-.4-7,1.5-2.6,1.8-5.3,4.2-8.1,7.2-3.9,4-7,7.4-9,10.2h-.1c0,0,0,.1,0,.1-.5.7-1.1,1.6-1.8,2.6-.7,1.1-1.2,2.2-1.4,3.2-.3,1.2.2,2.2,1.3,2.8,1.2.6,2.9.5,4.8-.2,1.9-.6,3.9-1.6,5.9-3,1.3-.8,2.5-1.7,3.7-2.7,1.2-1,2.6-2.2,4.2-3.7,0,0,0,0,.1-.1,0,.1,0,.3-.2.5-2,6-1.5,10.1,1.6,12.3,1.1.8,2.6,1.1,4.3,1.1h0c3.2-.1,7.9-2.1,14.1-5.9,6.1-3.7,13.3-8.5,21.3-14.2.5-.4.8-.7,1-1,.4-.6,0-.9,0-1ZM429.2,119.5s0,.4-.8,1.3c-2.4,2.4-5,4.5-7.7,6.2-2.6,1.7-4.9,2.7-6.7,3-.2,0-.4,0-.5,0-.1,0-.2,0-.2,0,0-.2,0-.5.4-1,.3-.5.6-.9.8-1.2v-.2c1.5-1.8,3.5-3.9,5.9-6.3,2.5-2.3,4.8-4.4,7.1-6,2.1-1.6,3.3-2.1,3.9-2.3h.3c0,.2,0,.5-.3,1.1-.4.9-.8,1.7-1.4,2.5h0c-.3.7-.6,1.4-.7,2.2h-.2v.5Z"></path></svg>