<svg xmlns="http://www.w3.org/2000/svg" xmlns:xlink="http://www.w3.org/1999/xlink" id="recuerdos" viewBox="0 0 580 116"><defs><style> .st0 { fill: url(#Degradado_sin_nombre_6); } .st1 { fill: url(#Degradado_sin_nombre_61); } .st2 { fill: url(#Degradado_sin_nombre_62); } .st3 { fill: url(#Degradado_sin_nombre_63); } </style><linearGradient id="Degradado_sin_nombre_6" data-name="Degradado sin nombre 6" x1="0" y1="69.1" x2="84.6" y2="69.1" gradientUnits="userSpaceOnUse"><stop offset="0" stop-color="#ab8d60"></stop><stop offset=".5" stop-color="#dcc188"></stop><stop offset="1" stop-color="#ab8d60"></stop></linearGradient><linearGradient id="Degradado_sin_nombre_61" data-name="Degradado sin nombre 6" x1="55.5" y1="58" x2="280.5" y2="58" xlink:href="#Degradado_sin_nombre_6"></linearGradient><linearGradient id="Degradado_sin_nombre_62" data-name="Degradado sin nombre 6" x1="181.3" y1="80.1" x2="269.2" y2="80.1" xlink:href="#Degradado_sin_nombre_6"></linearGradient><linearGradient id="Degradado_sin_nombre_63" data-name="Degradado sin nombre 6" x1="288.7" y1="54.9" x2="580" y2="54.9" xlink:href="#Degradado_sin_nombre_6"></linearGradient></defs><path class="st0" d="M73.8,39c2.4-3.3,4.6-5.9,6.5-7.7,0,0,0,0,0,.1.2.3.6.4,1.1.4s1.1-.1,1.6-.4c.5-.3.9-.7,1.1-1.3v-.2c.2-.5.3-1,.4-1.5,0-.6,0-1.2-.2-1.7-.3-.6-.8-1-1.6-1.1-.7-.2-1.5,0-2.3.5-.7.5-1.7,1.4-2.9,2.8-1.2,1.4-2.8,3.4-4.8,6.1-1.7,2.3-3.4,4.8-5,7.3-1.6,2.5-2.9,4.5-3.8,6-1.8,2.9-3.5,5.7-5.2,8.3-5.1,8.3-9.7,15.7-13.8,22.1-4,6.3-7.6,11.8-10.7,16.1-2.4,3.4-4.5,6.4-6.4,8.9-1.9,2.5-3.4,4.3-4.6,5.4-.9.8-1.3.8-1.4.8,0,0-.1,0-.2-.2-.2-1.4,0-3.2.7-5.3.6-2.2,1.9-6,3.8-11,.2-.5.4-1.1.6-1.7,2.3-6.2,5-13,8.1-20.2,1.7-4,3.4-8,4.9-11.9.6-1.6,1.3-3.1,1.8-4.5,3.3-8.2,5.7-14.3,7.2-18.1,1.9-5.2,1.9-6.6,1.8-7.1-.1-.4-.4-.8-.8-1.1-.4-.3-1.1-.4-1.9-.1-.8.2-1.7.9-3,1.9-1.2,1-2.7,2.7-4.5,4.9-3.7,4.7-8.6,11.6-14.7,20.4.1-.2.2-.4.3-.6,1.5-2.9,2.6-5.1,3.3-6.6.7-1.6,1.2-2.7,1.3-3.4.1-.8,0-1.5-.6-1.9-.6-.5-1.4-.7-2.3-.7-.8,0-1.5.3-2,.5,0,0-.2.1-.7.6-.4.3-.7.7-1.1,1.1-.4.4-.7.8-.8,1.2-.2.6,0,1.2.2,1.6.2.2.5.5,1,.6-1.4,4.6-4,10.6-8,17.9-4.1,7.6-9,16.1-14.5,25.3-.2.3-.3.5-.3.5,0,0-.2.2-.2.2-.1,0-.3.2-.4.3-.1.1-.2.3-.4.6-.3.6-.4,1.2,0,1.7.2.3.7.7,1.6.4h.5v-.2c.2-.1.4-.3.6-.5.2-.3.5-.5.7-.8,1.6-2.8,3.2-5.4,4.7-7.8,6.6-10.9,13.8-21.8,21.4-32.2,5-6.9,8.8-12.1,11.4-15.4,2.6-3.2,3.8-4.2,4.3-4.5,0,.6-.5,2.1-1.9,5.7-1.5,3.8-3.2,8.2-5.3,13.2l-2.4,6c-4.9,11.9-9.3,23.3-13.1,33.9-1.8,5.1-3,9-3.6,11.8-.7,2.8-.9,4.8-.6,6,.4,1.6,1.3,2.1,1.9,2.2.3,0,.5.1.7.1,0,0,.2,0,.2,0,1.2,0,2.6-1,4.5-3,1.8-2,4.8-5.9,8.8-11.4,7.3-10.2,18.1-26.5,32-48.7,2.1-3.3,4.5-6.8,7.2-10.5Z"></path><path class="st1" d="M277.1,26h0c-1.7-.7-4.5-1.3-8.8-1.6-4.1-.3-10.2-.3-18,0-11.4.5-27.5,1.9-47.9,4.3,2.9-3.7,5.4-6.9,7.5-9.8,3-4.2,5.5-7.9,7.5-11.1,1.2-1.8,2-3.2,2.4-4.1.2-.3.4-.7.4-.9.4-1,.2-1.8-.3-2.3-.4-.3-.9-.5-1.5-.5-.6,0-1.2.3-1.9.8-1.4,1.3-4.1,4.6-8.1,10.1-4,5.4-8.1,11.1-12.2,17-.7.9-1.1,1.3-1.4,1.4-.4.2-.8.3-1.2.3-1.5.2-3,.4-4.6.5-14.7,1.7-25.7,2.5-32.8,2.4-1.6,0-2.8-.2-3.7-.5-1-.3-1.5-.6-1.7-.8-.5-.6-.5-.9-.4-1.2.2-.5.4-.9.8-1.2.5-.5.8-.6,1-.7l.3-.2c.6-.3,1-.8,1.2-1.3.2-.6.3-1.1,0-1.7-.3-.5-.7-.9-1.3-1-.5,0-1.1,0-1.7.4-.6.4-1.4.9-2.4,1.6-1,.7-1.9,1.5-2.7,2.4-.8,1-1.2,2.1-1.1,3.2,0,1.1.9,2,2.6,2.5,1.5.5,4.2.9,8.2,1,6.1.2,17.4-.6,33.5-2.6,1.4-.1,2.7-.3,4-.5,0,0,.1,0,.2,0,0,.2-.3.4-.6.9-4,5.6-7.7,11-11,15.8-.1.2-.3.4-.6.8s-.6.7-.9,1c-.3.3-.5.6-.7.8-7.5,7.2-15,14.2-22.3,20.7-7.2,6.5-12.1,10.7-14.3,12.2-.2,0-.4.2-.6-.1-.4-.5-.9-1.2-1.5-2,0,0,0,0-.1-.1-.3-.3-.6-.8-1-1.6-.4-.8-.7-1.7-.9-2.7-.1-1,.1-2,.7-3,.6-.9,1.8-1.8,3.5-2.6,1.7-.8,3.9-1.7,6.4-2.6.6-.3,1.1-.8,1.3-1.5.2-.7.3-1.3.2-1.8,0-.6-.4-1.1-.9-1.3-.5-.2-1.1-.2-1.7,0-4.7,1.7-8.1,3.7-10.2,6-5.3,3-10,5.4-14.2,7.1-4.1,1.7-7.3,2.5-9.6,2.5s-2-.3-2.8-.7c-.7-.5-1.1-1.1-1.1-2.1.4-1.5,1.1-2.9,2.3-4.2,0,0,.2-.2.2-.2.5-.5,1-.9,1.5-1.2.6-.3.9-.4,1-.4,2.3-.5,4.7-1.2,7.3-2.2,1.2-.5,2.3-1,3.2-1.6,1-.7,1.6-1.4,1.9-2.2.2-.7.2-1.3-.1-1.9-.3-.5-.7-.9-1.3-1.1-2.2-.8-5.4.4-9.9,3.6-.6.4-1.2.9-1.8,1.4l-.3.3c-.8.6-1.8,1.6-3,3-7.3,4.2-13.2,7.4-17.6,9.6-4.4,2.2-7.8,3.6-9.9,4.2-2.9.8-3.4.5-3.5.4-.5-.5-.5-1.4-.2-2.7.4-1.5,1-3.3,1.9-5.3.7-1.7,1.3-3.4,1.9-5.2.1-.4.4-1.4-.3-1.8s-.9-.2-1.4,0c-.4.2-.8.4-1.1.7-4.5,4.4-8.3,7.9-11.1,10.2-2.9,2.3-5.1,3.9-6.7,4.7-1.9,1-2.7,1-3,.9-.6-.2-.7-.5-.7-.8,0-.5.2-1.7,1.5-4.2,1.1-2.1,2.4-4.3,3.8-6.5,1.4-2.2,2.6-4,3.5-5.3,1.4-2,2.4-3.4,2.8-4.3.5-1,.6-1.9.2-2.7-.4-.6-1-.8-1.8-.8s-1.4.2-2,.6c-.3.3-.5.6-.6,1,0,.3-.1.6-.1.9-.3.6-1,1.8-2.1,3.4l-.4.6c-1.2,1.9-2.6,4-4,6.4-1.4,2.4-2.7,5.1-3.9,8.1-.6,1.6-.8,2.8-.6,3.7.2.9.6,1.6,1.3,1.9.6.3,1.2.5,1.8.6,2.3.3,4.9-.7,7.9-2.8,2.9-2.1,6.8-5.5,11.4-10.1h0c-.3.7-.6,1.4-.8,2.1-.8,1.8-1.4,3.4-1.7,4.8-.3,1.5,0,2.7.9,3.8,1.4,1.3,3.8,1.2,7.5-.1,3.5-1.3,7.7-3.3,12.6-5.9,3.9-2.1,8-4.5,12.3-7.1-.1.2-.3.5-.4.7-1.2,2.4-1.4,4.5-.5,6.2.8,1.2,2.1,1.8,3.9,1.9,2.6.2,6.5-.7,11.3-2.7,4-1.7,8.3-3.8,12.8-6.5-1.2,2.7-.9,5.5,1,8.4.4.6.8,1.1,1.1,1.6.5.7,1,1.4,1.4,1.9.1.2.3.4.4.5,0,0,0,0,0,0,0,0,0,0,0,.1,0,0-.1.2-.4.4l-.7.6s-.1,0-.2.1c-.4.3-.8.7-1.5,1.3h-.2c-.3.4-.6.7-1.1,1.2-.5.5-.9,1-1.3,1.6-.2.3-.3.6-.5.8h0c-.3.8-.4,1.4-.3,2.1,0,0,0,.1,0,.2,0,.2,0,.4.2.6.1.3.3.5.6.8.3.3.7.5,1.2.6.1,0,.2,0,.3,0,.8.1,1.8,0,2.9-.4,1.1-.4,2.2-1.1,3.4-2.3l.3-.3c0,0,.2-.2.2-.3,1.2-1.5,1.9-2.8,2-4.2.1-1.2-.1-2.3-.8-3.1v-.2c0,0,.1-.1.2-.2,2.3-2,6.9-6.1,13.7-12.3,6-5.4,12.2-11.2,18.5-17.1-6.4,9.4-11.7,17.5-15.8,24-4.5,7.2-7.9,13-10.2,17.4-2.3,4.4-3.8,7.9-4.5,10.3-.7,2.5-.9,4.3-.5,5.4.2.9.6,1.5,1,1.9.5.4,1.1.6,1.9.6s1.1-.2,1.6-.6c.5-.4.8-.9,1-1.4.1-.3.4-1.1,0-1.5-.5-.5-1.3-.3-1.9,0-.3.1-.5,0-.5,0-.1,0-.2-.2-.2-.3,0-.2,0-.4,0-.4h0c0-.4,0-1.1.3-2.7.3-1.4,1.2-3.5,2.6-6.5,1.4-3,3.7-7.2,6.9-12.4,3.1-5.1,7.1-11.2,12-18.2,4.9-7,10.7-15.3,17.2-24.4,2.5-3.1,4.9-6,7.1-8.7,1.9-2.3,3.6-4.5,5.3-6.5h0c.2-.4.4-.5.5-.6.2-.1.3-.2.3-.2h0c21.3-2.3,38-3.7,49.6-4.1,7.1-.2,12.7-.1,16.7.3,3.9.4,6.7,1,8.2,1.7,1.9.9,2,1.4,1.9,1.6,0,.2,0,.3-.1.4-.1.1-.3.3-.5.4-.3.3-.7.6-1.2,1.2-.4.6-.6,1.1-.5,1.6,0,.4.4.8.9,1,.5.3,1,.3,1.6.1.6-.2,1.1-.5,1.5-1,1-1.3,1.5-2.4,1.7-3.4.1-1,0-1.8-.2-2.3-.3-1-1.3-1.9-3.1-2.7ZM119,68.5c.6-.4,1.2-.7,1.7-.9h0s.1,0,.1,0h.5c.3-.2.6-.3.8-.3.2,0,.3,0,.4,0h0c0,0-.2.3-.7.6-.7.4-1.6.8-2.7,1.2-.8.3-1.6.5-2.3.7.7-.5,1.4-.9,2.1-1.3ZM140.4,91c-.5.8-1.1,1.5-1.8,2.1-.6.5-1.3.8-1.8.8-.4,0-.4-.2-.4-.3,0-.3.1-.7.4-1.2.4-.8.9-1.5,1.4-2h.3v-.3l.4-.4c.5-.5,1.2-1,2-1.7h0c.1.3.2.7.2,1.1s-.2,1.1-.7,1.9ZM198.5,31s0,0,0,0l.3.2-.3-.2Z"></path><path class="st2" d="M268.7,70.8h0c-.2,0-.4,0-.6,0-11.1,5.5-19.3,10.1-24.4,13.5-.2,0-.3.2-.6-.2-.4-.5-.9-1.1-1.5-1.9,0,0,0,0-.1-.1-.3-.3-.6-.8-1-1.6-.4-.8-.7-1.7-.9-2.7-.1-1,.1-2,.7-3,.6-.9,1.8-1.8,3.5-2.6,1.7-.8,3.9-1.7,6.4-2.6.6-.3,1.1-.8,1.3-1.5.2-.7.3-1.3.2-1.8,0-.6-.4-1.1-.9-1.3-.5-.2-1.1-.2-1.7,0-4.7,1.7-8.2,3.8-10.3,6.1-.9.6-2.1,1.2-3.7,2-1.7.8-3.8,1.6-6.1,2.3-2.5.7-5.1,1.1-7.8,1,1.4-2.3,2.4-4.2,2.8-5.7.5-1.6.6-2.7.3-3.6-.3-.9-.8-1.5-1.5-1.8-1.4-.6-3.1-.4-5,.5-1.8.9-3.4,2.1-4.6,3.7-.4.5-.7,1.1-1,1.6-8.4,5.6-15,9.7-19.7,12.3-5.7,3.2-7.3,2.8-7.8,2.4,0-.2.1-.5.6-1,.5-.6,1.2-1.3,2-2.1,1-.9,2-1.9,2.8-2.9.9-1.1,1.5-2.1,1.6-3.2,0-1.8-1.1-3.3-3.6-4.5-1.5-.7-1.8-1-1.9-1.2,0-.3.3-.5.5-.7.4-.3.8-.5,1.5-.8.4-.2.9-.4,1.3-.7h.1c.7-.5,1.1-1.1,1.4-2,.2-.8.2-1.5,0-2.1-.2-.5-.6-.9-1.2-1-.5-.1-1.1,0-1.8.3-3.7,2.1-5.7,4.4-5.9,7,0,1.1.3,1.9,1.2,2.5.8.5,1.6.9,2.6,1.2.7.2,1.3.5,1.9.8.5.3.5.6.5.8,0,.1-.1.4-.5.9-.3.4-.7.9-1.1,1.4l-.2.2c-.3.4-.6.7-1,1-.6.7-1.3,1.4-2,2.3-.7.9-1.2,1.8-1.6,2.6h0c-.4,1.4-.3,2.3.3,3.1,1.3,1.5,4,1.1,9.2-1.5,3.8-2,9-5.3,15.5-9.8,1.5-1,3-2,4.6-3.1,0,.8.2,1.5.7,2.1-.3.1-.5.3-.8.6-.9,1.1-1.8,2.1-2.4,3-1.9,2.6-2.4,4.6-1.8,6,.5.9,1.3,1.3,2.4,1.3s.4,0,.6,0c2.9-.6,6-3.1,9.3-7.5h.2s0-.4,0-.4c0,0,.1-.1.2-.1,0,0,.2,0,.5,0h1.1c2.9,0,6-.6,9.4-1.8,2.2-.8,4.2-1.7,6.1-2.7-1.3,2.8-1,5.6,1,8.5.4.6.8,1.1,1.1,1.6.5.7,1,1.4,1.4,1.9.1.2.3.4.4.5,0,0,0,0,0,0,0,0,0,0,0,.1,0,0-.1.2-.4.4-.2.2-.5.4-.8.6h0c-.4.4-.9.8-1.5,1.4h-.3v.3c-.3.2-.6.5-1,.9-.5.5-.9,1-1.3,1.6-.2.3-.3.6-.5.8-.3.7-.5,1.4-.4,2.1v.2s0,0,0,0c0,.1,0,.3.2.5.1.3.3.5.6.8.3.3.7.5,1.2.6h.1s0,0,.1,0c.2,0,.4,0,.7,0,.7,0,1.4-.1,2.2-.4,1.1-.4,2.2-1.1,3.4-2.3l.4-.4c0,0,0-.1.2-.2,1.2-1.5,1.9-2.8,2-4.2.1-1.3-.1-2.3-.8-3.1h0c0-.1.1-.2.3-.3,2.4-1.7,5.6-3.7,9.4-5.9,3.9-2.2,8.6-4.7,14-7.4l.3-.2h0c.2-.1.3-.2.4-.4.2-.2.2-.5,0-.8,0-.2-.2-.3-.4-.4ZM213.3,82.5c-1.4,1.2-2.6,1.7-3.7,1.5,0,0,0,0,0,0,0,0-.2-.4.2-1.1.3-.5.7-1.1,1.2-1.6.5-.5,1-1,1.5-1.4l.5-.4h0c.2-.2.3-.3.5-.4h.1c.5-.4.9-.8,1.2-1.1.2-.2.3-.4.3-.5.6.2,1.3.3,2.1.4-1.2,1.7-2.5,3.3-4,4.6ZM220.6,71.4c-.2,1.1-.9,2.6-1.9,4.3h0c0,.1-.1.2-.2.2,0,0,0,0-.2,0,0,0,0,0,0,0h-.2s-.3-.1-.3-.1h0c-.9-.2-1.6-.5-2-.9-.4-.3-.6-.6-.6-.9,0-.3,0-.6,0-.9v-.2c.2-.6.5-1.2.9-1.6.6-.8,1.4-1.5,2.2-2.1.8-.5,1.4-.8,1.9-.7.2,0,.4.2.6.6.1.3.2,1,0,2.3ZM241.2,91c-.5.8-1.1,1.5-1.8,2.1-.6.5-1.3.8-1.8.8-.4,0-.4-.2-.4-.3,0-.3.1-.7.4-1.2.4-.8.9-1.5,1.4-2h.3v-.2h.1c0,0,0-.2,0-.2,0,0,0,0,.1,0l-.3-.3.4.2c.5-.5,1.2-1,2-1.7,0,0,0,0,0,0,.1.3.2.7.2,1.1s-.2,1.1-.7,1.9Z"></path><path class="st3" d="M579.9,71.2h0c0-.2-.2-.3-.4-.4-.2,0-.4,0-.6,0-11.1,5.5-19.3,10.1-24.4,13.5-.2,0-.3.2-.6-.2-.4-.5-.9-1.1-1.5-1.9,0,0,0,0-.1-.1-.3-.3-.6-.8-1-1.6-.4-.8-.7-1.7-.8-2.7-.1-1,.1-2,.7-3,.6-.9,1.8-1.8,3.5-2.6,1.7-.8,3.9-1.7,6.4-2.6.6-.3,1.1-.8,1.3-1.5.2-.7.3-1.3.2-1.8,0-.6-.4-1.1-.9-1.3-.5-.2-1.1-.2-1.7,0-4.7,1.7-8.2,3.8-10.3,6.1-.9.6-2.1,1.2-3.7,2-1.7.8-3.8,1.6-6.1,2.3-2.5.7-5.1,1.1-7.8,1,1.4-2.3,2.4-4.2,2.8-5.7.5-1.6.6-2.7.3-3.6-.3-.9-.8-1.5-1.5-1.8-1.4-.6-3.1-.4-5,.5-1.8.9-3.4,2.1-4.6,3.7-.4.5-.7,1.1-1,1.6-1.6,1.1-3.5,2.4-5.6,3.7-2.2,1.4-4.5,2.7-6.9,3.8-2.4,1.1-4.5,1.9-6.5,2.4-1.9.4-3.4.3-4.4-.4-1-.7-1.4-2.1-1.2-4.3.2-1.4.6-2.5,1.2-3.4.6-.9,1.2-1.6,1.8-2.1.2-.2.4-.3.6-.5h.3v-.3h0c1.5-1.3,3-2.6,4.5-4,7.3-6.5,13.2-12.5,17.7-17.6,4.4-5.2,7.8-9.5,10-12.9,5.7-8.7,8.2-14.9,7.6-19.1-.5-2.1-1.9-3.2-4-3.2s-5.1,1.4-8.7,4.3c-3.5,2.8-7.4,6.8-11.4,11.8-4,5.1-8,11.2-11.7,18.1-3.8,7-7,14.8-9.7,23.2v.2c0,0-.1.1-.1.2,0,0,0,.2,0,.3,0,.3-.3.7-.7,1.2-.4.5-.9,1.1-1.7,1.8-2.3,1.9-4.7,3.7-7.1,5.4-2.3,1.6-4.5,2.9-6.3,3.7-1.7.8-2.9,1-3.7.6-.2-.3,0-.9.4-1.7.6-1.1,1.5-2.2,2.6-3.5,1.1-1.3,2.3-2.5,3.4-3.6.7-.7,1.4-1.3,2.1-1.8-.4.5-.6,1-.6,1.5s.3,1.1.7,1.4c.5.3,1,.4,1.7.3.6-.1,1.1-.5,1.5-.9,1.3-1.6,2.2-3,2.5-4.3.4-1.4.1-2.5-.7-3.2-.3-.3-.9-.5-1.7-.6-.8,0-1.8.2-3.1.8-.9.5-2,1.3-3.4,2.4h0c-8.4,5.6-15,9.8-19.8,12.4-5.7,3.2-7.3,2.8-7.8,2.4,0-.2.1-.5.6-1,.5-.6,1.2-1.3,2-2.1,1-.9,2-1.9,2.8-2.9.9-1.1,1.5-2.1,1.6-3.2,0-1.8-1.1-3.3-3.6-4.5-1.5-.7-1.8-1-1.9-1.2,0-.3.3-.5.5-.7.4-.3.8-.5,1.5-.8.4-.2.9-.4,1.3-.7h.1c.7-.5,1.1-1.1,1.4-2,.2-.8.2-1.5,0-2.1-.2-.5-.6-.9-1.2-1-.5-.1-1.1,0-1.8.3-3.7,2.1-5.7,4.4-5.9,7,0,.1,0,.2,0,.3-5.1,2.9-9.7,5.3-13.8,6.9-4.1,1.7-7.3,2.5-9.6,2.5s-2-.3-2.8-.7c-.7-.5-1.1-1.1-1.1-2.1.4-1.5,1.1-2.9,2.3-4.2,0,0,.2-.2.2-.2.5-.5,1-.9,1.5-1.2.6-.3.9-.4,1-.4,2.3-.5,4.7-1.2,7.3-2.2,1.2-.5,2.3-1,3.2-1.6,1-.7,1.6-1.4,1.9-2.2.2-.7.2-1.3-.1-1.9-.3-.5-.7-.9-1.3-1.1-2.2-.8-5.4.4-9.9,3.6-.6.4-1.2.9-1.8,1.4l-.3.3c-.8.6-1.8,1.6-3,3-7.3,4.2-13.2,7.5-17.6,9.6-4.4,2.2-7.8,3.6-9.9,4.2-2.9.8-3.4.5-3.5.4-.5-.5-.5-1.4-.2-2.7.4-1.5,1-3.3,1.9-5.3.7-1.7,1.3-3.4,1.9-5.2.1-.4.4-1.4-.3-1.8s-.9-.2-1.4,0c-.4.2-.8.4-1.1.7-4.5,4.4-8.3,7.9-11.1,10.2-2.9,2.3-5.1,3.9-6.7,4.7-1.9,1-2.7,1-3,.9-.6-.2-.7-.5-.7-.8,0-.5.2-1.7,1.5-4.2,1.1-2.1,2.4-4.3,3.8-6.5,1.4-2.2,2.6-4,3.5-5.3,1.4-2,2.4-3.4,2.8-4.3.5-1,.6-1.9.2-2.7-.2-.4-.8-.8-1.8-.8s-1.4.2-2,.6c-.3.3-.5.6-.6,1,0,.3-.1.6-.1.9-.3.6-1,1.8-2.1,3.4l-.4.6c-.4.7-.9,1.4-1.4,2.1-4.9,2.8-9.5,5.2-13.8,7.3-4.3,2.1-7.9,3.5-10.7,4.2-4,.9-6.5.7-7.4-.5-.6-1-.5-2.4.2-4.3.7-1.9,2.1-4.1,4.2-6.4,2.1-2.3,4.9-4.7,8.4-6.9,3.4-2.1,6.2-3.6,8.5-4.5,2.8-1.1,3.6-1.1,3.8-1,.3.3.3.5.2.7,0,.3-.2.6-.5.9h-.3v.2l-.3.2c-.5.3-.7.4-.9.4-.2,0-.4,0-.6-.2-.3-.1-.6,0-1,0-.3.1-.6.3-.9.5-.3.2-.6.4-.8.7-.8,1.1-.6,1.8-.3,2.2.1.2.3.3.4.5h.2c.7.4,1.5.3,2.4-.2,1-.5,2.1-1.3,3.4-2.4,1.3-1.1,2.3-2.3,3.1-3.5.9-1.4,1-2.7.4-3.9-.9-1.6-3-1.7-6.5-.3-2.8,1.1-6.6,3.1-11.2,6-3.4,2.2-6.4,4.7-8.9,7.3-.9.9-1.7,1.8-2.4,2.8-5.3,3.1-10.1,5.5-14.2,7.2-4.1,1.7-7.3,2.5-9.6,2.5s-2-.3-2.8-.7c-.7-.5-1.1-1.1-1.1-2.1.4-1.5,1.1-2.9,2.3-4.2,0,0,.2-.2.2-.2.5-.5,1-.9,1.5-1.2.6-.3.9-.4,1-.4,2.3-.5,4.7-1.2,7.3-2.2,1.2-.5,2.3-1,3.2-1.6,1-.7,1.6-1.4,1.9-2.2.2-.7.2-1.3-.1-1.9-.3-.5-.7-.9-1.3-1.1-2.2-.8-5.4.4-9.9,3.6-.6.4-1.2.9-1.8,1.4l-.3.3c-.8.6-1.8,1.6-3,3-8.4,5.6-15,9.7-19.7,12.3-5.7,3.2-7.3,2.8-7.8,2.4,0-.2.1-.5.6-1,.5-.6,1.2-1.3,2-2.1,1-.9,2-1.9,2.8-2.9.9-1.1,1.5-2.1,1.6-3.2,0-1.8-1.1-3.3-3.6-4.5-1.5-.7-1.8-1-1.9-1.2,0-.3.3-.5.5-.7.4-.3.8-.5,1.5-.8.4-.2.9-.4,1.3-.7h.1c.7-.5,1.1-1.1,1.4-2,.2-.8.2-1.5,0-2.1-.2-.5-.6-.9-1.2-1-.5-.1-1.1,0-1.8.3-3.7,2.1-5.7,4.4-5.9,7,0,1.1.3,1.9,1.2,2.5.7.5,1.6.9,2.6,1.2.7.2,1.3.5,1.9.8.5.3.5.6.5.8,0,.1-.1.4-.5.9-.3.4-.7.9-1.1,1.4l-.2.2c-.3.4-.6.7-1,1-.6.7-1.3,1.4-2,2.3-.7.9-1.2,1.8-1.6,2.6h0c-.4,1.4-.3,2.3.3,3.1,1.3,1.5,4,1.1,9.2-1.5,3.7-2,9-5.3,15.5-9.8.9-.6,1.8-1.2,2.7-1.8,0,.1-.1.2-.2.3-1.2,2.4-1.4,4.5-.5,6.2.8,1.2,2.1,1.8,3.9,1.9,2.6.2,6.5-.7,11.3-2.7,4-1.7,8.3-3.9,12.8-6.5-.4.7-.8,1.4-1.1,2-1.1,2.5-1.3,4.7-.6,6.5.3.8,1,1.5,1.9,2.1.9.6,2.3.9,4.2.9s6.1-1,10.8-3.2c4.1-1.9,9.6-4.7,16.3-8.5-.3.5-.6,1.1-1,1.6-1.4,2.4-2.7,5.1-3.9,8.1-.6,1.6-.8,2.8-.6,3.7.2.9.6,1.6,1.3,1.9.6.3,1.2.5,1.8.6,2.3.3,4.9-.6,7.9-2.8,2.9-2.1,6.8-5.5,11.4-10.1h0c-.3.7-.6,1.4-.8,2.1-.8,1.8-1.4,3.4-1.7,4.8-.3,1.5,0,2.7.9,3.8,1.4,1.3,3.8,1.2,7.5-.1,3.5-1.3,7.7-3.3,12.6-5.9,3.9-2.1,8-4.5,12.3-7-.1.2-.3.5-.4.7-1.2,2.4-1.4,4.5-.5,6.2.8,1.2,2.1,1.8,3.9,1.9,2.6.2,6.5-.7,11.3-2.7,4.6-1.9,9.6-4.5,14.8-7.7.2.3.4.5.8.8.7.5,1.6.9,2.6,1.2.7.2,1.3.5,1.9.8.5.3.5.6.5.8,0,.1,0,.4-.5.9-.3.4-.7.9-1.1,1.4l-.2.2c-.3.4-.6.7-1,1-.6.7-1.3,1.4-2,2.3-.7.9-1.2,1.8-1.6,2.6h0c-.4,1.4-.3,2.3.3,3.1,1.3,1.5,4,1.1,9.2-1.5,3.7-2,9-5.3,15.5-9.8.2-.1.4-.3.7-.4-.1.2-.3.4-.4.6-1.3,1.7-2.3,3.4-2.9,5.1-.7,1.8-.6,3.2.3,4.2.4.6,1.2.9,2.2.9,1.3,0,3.3-.6,6.2-2.3,2.8-1.5,6.8-4.4,12-8.5h0c-.4,3,0,5.1,1.3,6.3,1.3,1.2,3.2,1.7,5.6,1.3,2.3-.3,4.8-1.1,7.5-2.4,2.7-1.2,5.3-2.6,7.9-4.2,1.9-1.2,3.6-2.4,5.2-3.5,0,.7.3,1.3.7,1.9-.3.1-.5.3-.8.6-.9,1.1-1.8,2.1-2.4,3-1.9,2.6-2.4,4.6-1.8,6,.5.9,1.3,1.3,2.4,1.3s.4,0,.6,0c2.9-.6,6-3.1,9.3-7.5h.2s0-.4,0-.4c0,0,.1-.1.2-.1,0,0,.2,0,.5,0h1.1c2.9,0,6-.6,9.4-1.8,2.2-.8,4.2-1.7,6.1-2.7-1.3,2.8-1,5.6,1,8.5.4.6.8,1.1,1.1,1.6.5.7,1,1.4,1.4,1.9.1.2.3.4.4.5,0,0,0,0,0,0,0,0,0,0,0,.1,0,0-.1.2-.4.4-.2.2-.5.4-.8.6h0c-.4.4-.9.8-1.5,1.4h-.3v.3c-.3.2-.6.5-1,.9-.5.5-.9,1-1.3,1.6-.2.3-.3.6-.5.8-.3.7-.5,1.4-.4,2.1v.2s0,0,0,0c0,.1,0,.3.2.5.1.3.3.5.6.8.3.3.7.5,1.2.6h.1s0,0,.1,0c.2,0,.4,0,.7,0,.7,0,1.4-.1,2.2-.4,1.1-.4,2.2-1.1,3.4-2.3l.4-.4c0,0,0-.1.2-.2,1.2-1.5,1.9-2.8,2-4.2.1-1.3-.1-2.3-.8-3.1h0c0-.1.1-.2.3-.3,2.4-1.7,5.6-3.7,9.4-5.9,3.9-2.2,8.6-4.7,14-7.4l.3-.2h0c.2-.1.3-.2.4-.4.2-.2.2-.5,0-.8ZM504.9,56.8c2.3-5,5.2-10.4,8.6-15.8,3.4-5.4,7.2-10.4,11.3-14.8,4.1-4.3,8.5-7.4,13-9.2,0,0,0,0,0,0s0,0,0,0c0,0,0,0,0,0,0,0,.1.2.2.5.2,1-.1,3.1-1.1,6.1-.9,3-2.8,6.6-5.5,10.7-2.1,3.2-5.3,7.5-9.6,12.6-4.3,5.1-10,10.9-17,17.3-.1.1-.3.3-.5.5-.9.8-2.4,2.1-4.4,4,1-3.1,2.7-7.1,4.9-11.9ZM433.5,68.5c.6-.4,1.2-.7,1.7-.9h0s.1,0,.1,0h.5c.3-.2.6-.3.8-.3.2,0,.3,0,.4,0h0c0,0-.2.3-.7.6-.7.4-1.6.8-2.7,1.2-.8.3-1.6.5-2.3.7.7-.5,1.4-.9,2.1-1.3ZM327.2,68.5c.6-.4,1.2-.7,1.7-.9h0s.1,0,.1,0h.5c.3-.2.6-.3.8-.3.2,0,.3,0,.4,0h0c0,0-.2.3-.7.6-.7.4-1.6.8-2.7,1.2-.8.3-1.6.5-2.3.7.7-.5,1.4-.9,2.1-1.3ZM495,75.5l-.2-.3.4.3s0,0-.2,0ZM524.1,82.5c-1.4,1.2-2.6,1.7-3.7,1.5,0,0,0,0,0,0h0c0,0-.2-.4.2-1.1.3-.5.7-1.1,1.2-1.6.5-.5,1-1,1.5-1.4l.6-.5c.2-.1.3-.2.5-.4h.1c.5-.4.9-.8,1.2-1.1.2-.2.3-.4.3-.5.6.2,1.3.3,2.1.4-1.2,1.7-2.5,3.3-4,4.6ZM531.4,71.4c-.2,1.1-.9,2.6-1.9,4.3h0c0,.1-.1.2-.2.2,0,0,0,0-.2,0,0,0,0,0,0,0h-.2s-.3-.1-.3-.1h0c-.9-.2-1.6-.5-2-.9-.4-.3-.6-.6-.6-.9,0-.3,0-.6,0-.9v-.2c.2-.6.5-1.2.9-1.6.6-.8,1.4-1.5,2.2-2.1.8-.5,1.4-.8,1.9-.7.2,0,.4.2.6.6.1.3.2,1,0,2.3ZM552,91c-.5.8-1.1,1.5-1.8,2.1-.6.5-1.3.8-1.8.8-.4,0-.4-.2-.4-.3,0-.3.1-.7.4-1.2.4-.8.9-1.5,1.4-2h.3v-.2h.1c0,0,0-.2,0-.2,0,0,0,0,.1,0l-.3-.3.4.3c.5-.5,1.2-1,2-1.7,0,0,0,0,0,0,.1.3.2.7.2,1.1s-.2,1.1-.7,1.9Z"></path></svg>