<svg xmlns="http://www.w3.org/2000/svg" xmlns:xlink="http://www.w3.org/1999/xlink" id="Asistencia" viewBox="0 0 580 204"><defs><style> .st0 { fill: url(#Degradado_sin_nombre_6); } .st1 { fill: url(#Degradado_sin_nombre_61); } .st2 { fill: url(#Degradado_sin_nombre_62); } .st3 { fill: url(#Degradado_sin_nombre_64); } .st4 { fill: url(#Degradado_sin_nombre_63); } </style><linearGradient id="Degradado_sin_nombre_6" data-name="Degradado sin nombre 6" x1="0" y1="112.3" x2="181.7" y2="112.3" gradientUnits="userSpaceOnUse"><stop offset="0" stop-color="#ab8d60"></stop><stop offset=".5" stop-color="#dcc188"></stop><stop offset="1" stop-color="#ab8d60"></stop></linearGradient><linearGradient id="Degradado_sin_nombre_61" data-name="Degradado sin nombre 6" x1="219.9" y1="113.7" x2="228.6" y2="113.7" xlink:href="#Degradado_sin_nombre_6"></linearGradient><linearGradient id="Degradado_sin_nombre_62" data-name="Degradado sin nombre 6" x1="154.1" y1="102" x2="494.9" y2="102" xlink:href="#Degradado_sin_nombre_6"></linearGradient><linearGradient id="Degradado_sin_nombre_63" data-name="Degradado sin nombre 6" x1="498.3" y1="113.7" x2="506.9" y2="113.7" xlink:href="#Degradado_sin_nombre_6"></linearGradient><linearGradient id="Degradado_sin_nombre_64" data-name="Degradado sin nombre 6" x1="317.2" y1="124" x2="580" y2="124" xlink:href="#Degradado_sin_nombre_6"></linearGradient></defs><path class="st0" d="M156.4,125.6c-.1-.5-.5-.9-1-1h0c-.6-.2-1.1,0-1.3.2-8.3,6.7-16.1,12.8-23.3,18.1-.5.3-.9.6-1.4.8,0,0,0,0,0,0,0-.2.1-.4.3-.8,9.8-21.1,18.4-39.7,25.8-55.5,7.6-16.3,11.6-24.8,12.5-26.6,1.3-2.7,2.6-5.3,3.7-7.6,4.6-9.3,7.7-16,9.1-19.9,1-2.8,1.2-4.9.6-6.2-.4-.8-1-1.3-1.7-1.6-1.7-.7-3.5-.2-5.6,1.4-1.8,1.5-3.9,3.5-6.1,6-2.1,2.4-4.6,5.4-7.5,8.9-3.4,4.3-7.8,9.4-13,15.4-15.7,17.9-30.3,34.5-43.5,49.2-.2.2-.4.4-.6.6,0,0,0,0-.2-.3-.5-1.6-1.1-3.1-1.6-4.5,0-.2-.2-.4-.3-.7l-.2-.5c-2.7-6.1-5.8-10-9.2-11.6-3.4-1.6-6.7-1.9-10-1-5.9,1.6-12,5.5-17.9,11.4-5.9,5.9-11.4,12.9-16.3,20.9-4.9,8-8.8,16.1-11.8,24.2-4.8,13.7-5.8,24.6-2.8,32.3v.3c.2.1.2.3.2.5,0,.1,0,.4-.4,1-.3.5-.8,1.1-1.7,1.8-5.5,4.9-10,8.6-13.3,11-3.2,2.3-5.8,3.7-7.5,4-1.7.3-3,0-4.1-.7-.2-.2-.3-.7-.2-1.3.1-.9.4-1.9.9-2.9.2-.5.9-2.1,0-3.1-.5-.6-1.4-.8-2.4-.6-1,0-2,.5-2.8,1.2-.8.7-1.4,1.6-1.6,2.7-.5,3.3,0,5.6,1.4,6.9,1.2,1.1,2.7,1.7,4.2,1.7s.4,0,.6,0c2.8,0,6.2-1.1,10.2-3.4,3.9-2.2,9.7-6.7,17.2-13.2l.3-.2c.4-.4.7-.6,1.1-.8,0,0,.3-.1.7.3,1.3,1.5,2.8,2.7,4.6,3.7,8.3,4.2,21.5,2,39.3-6.5,6.9-3.4,14.8-7.9,23.6-13.6.5-.3.9-.5,1.2-.6,0,0,0,.2,0,.3-.5,9.1-1.4,17.6-2.6,25.3,0,.6-.1,1.1-.1,1.5,0,.8.3,1.2.6,1.5.2.2.5.4,1,.4h.2c.2,0,.5,0,.6,0,.1,0,.3,0,.4,0,.2,0,.4-.1.6-.2.8-.5,1.5-1.3,2-2.6,5-11.2,10.5-23.2,16.3-35.7.6-1.3,1.8-3,3.6-5.1,1.8-2.1,4.1-4.3,6.8-6.3,6.9-5.2,14.1-10.8,21.4-16.7.2-.2.9-.8.7-1.6ZM99.8,110.5c-.2.5-.7,1.4-2.3,3.2-20.7,22.8-38.4,41.2-52.7,54.7-2.1,2-4.1,3.8-5.9,5.5-.6.6-.9.7-.9.7,0,0,0,0,0-.1-1.3-4.5-1.5-9.4-.7-14.3.8-5,1.9-9.1,3-12.3,2.9-8,7.1-16,12.3-23.8,5.2-7.8,10.7-14.5,16.3-20,5.6-5.5,10.5-8.8,14.7-10,2.5-.6,4.9-.3,7.3.8,2.3,1.2,4.4,3.3,6,6.1.5.8.9,1.6,1.2,2.5.3.8.6,1.5.9,2.2.4,1.1.7,2.1,1.1,3.3,0,.1,0,.5-.2,1.4ZM40,177.7c.1-.2.4-.6,1.1-1.3,1.8-1.6,3.7-3.3,5.6-5.2,14.7-13.8,33.1-32.7,54.5-56,.1-.1.2-.2.3-.3,1.5,6.4,2.5,13.4,3,20.8.5,7.5.7,15.1.5,22.8,0,.3,0,.8-.5,1.8-.4.8-1.3,1.6-2.7,2.6-11.6,7.2-21.5,12.4-29.3,15.6-7.8,3.2-14.1,5-18.6,5.4-4.5.4-7.6,0-9.4-1-2-1.1-3.5-2.5-4.6-4.2,0,0,0,0,0-.3,0,0,0-.2.2-.6ZM108.4,164.8c0-.2,0-.7.6-1.7.4-.8,1.4-1.7,2.8-2.7,1.9-1.3,3.8-2.6,5.7-4h.3c.3-.4.6-.6.9-.7,0,.2-.1.5-.3.9-4.2,9.7-8.2,19.3-11.9,28.7.8-6.3,1.4-13.1,1.9-20.3ZM110,157.7c-.5.3-.9.4-1.2.4,0,0,0,0,0-.4h-.7.7c.3-7.6.2-15.3-.4-22.9-.6-7.6-1.7-15-3.4-21.8h0c0-.1,0-.2,0-.2,0,0,0-.3.3-1.1.3-.7.9-1.7,2-2.9,13.1-14.3,27.5-30.5,42.9-48.2,4.8-5.5,9-10.5,12.4-14.6,3.3-4,6-7.1,7.9-9.3,1.4-1.5,2.1-2.2,2.6-2.5,0,.5-.4,1.6-1.2,3.6-1.2,2.9-2.7,6.4-4.6,10.3-1.9,3.9-3.7,7.7-5.4,11.1-.9,1.9-5.2,11.2-12.7,27.6-7.5,16.4-16.2,36.1-25.9,58.5-.2.7-.8,1.8-1.8,3.2-.9,1.4-2.5,2.9-4.7,4.5-2.3,1.6-4.6,3.2-6.8,4.6Z"></path><path class="st1" d="M221.3,117.6c.3,0,.5,0,.8,0,.9,0,1.8-.2,2.8-.5,1.5-.5,2.6-1.6,3.2-3.3.4-1.2.5-2,.2-2.7-.2-.7-.8-1.2-1.5-1.3-.5-.1-1.1-.2-1.8-.2-1.1,0-2,.4-2.7,1-.7.7-1.2,1.5-1.5,2.6,0,.3-.2.7-.5,1.1-.3.6-.5,1.1-.5,1.6,0,.5,0,.8.2,1,.2.3.6.5,1.2.6Z"></path><path class="st2" d="M344.9,67.8c3.3-4.1,6.3-7.9,9.2-11.5v-.2c.5-.4.8-.7,1.1-.9.3-.2.5-.3.5-.3,37.1-4.1,66.2-6.5,86.5-7.2,12.4-.4,22.1-.2,29.1.5,6.9.8,11.7,1.8,14.4,3,3.4,1.6,3.5,2.6,3.4,2.9,0,.3-.1.6-.3.7-.2.2-.5.5-.9.8-.6.4-1.2,1.1-2,2-.7,1-1,1.9-.8,2.7.2.7.7,1.3,1.5,1.8.8.5,1.8.5,2.8.2,1-.3,1.8-.9,2.6-1.8,1.7-2.3,2.7-4.3,2.9-6,.2-1.7,0-3.1-.4-4.1-.6-1.8-2.3-3.3-5.3-4.6-2.9-1.3-7.9-2.2-15.3-2.8-7.2-.6-17.7-.6-31.3-.1-19.9.8-48.1,3.4-83.7,7.7h0c5.2-6.5,9.6-12.3,13.2-17.4,5.2-7.3,9.6-13.9,13-19.5,2-3.2,3.5-5.7,4.2-7.2.4-.5.6-1.1.7-1.6.6-1.8.4-3.1-.5-3.9-.6-.6-1.5-.8-2.5-.8-1,0-2.1.5-3.2,1.4-2.5,2.3-7.1,8.1-14.1,17.7-6.9,9.5-14.1,19.6-21.3,29.9-.9,1.3-1.8,2.2-2.4,2.5-.7.4-1.4.6-2.1.6-2.6.3-5.3.6-8,.9-25.6,3-44.8,4.4-57.1,4.2-2.8-.1-5-.4-6.5-.8-1.4-.4-2.4-.9-2.9-1.5-1-1-.9-1.7-.7-2.2.3-.8.8-1.5,1.5-2.1.9-.8,1.4-1.1,1.7-1.3l.5-.3c1-.6,1.7-1.4,2.1-2.3.4-1,.5-1.9,0-2.9-.4-.9-1.2-1.5-2.2-1.6-.9-.2-1.9,0-2.9.6-1.1.7-2.5,1.6-4.2,2.8-1.7,1.2-3.3,2.7-4.6,4.3-1.4,1.7-2.1,3.6-1.9,5.6,0,1.9,1.5,3.4,4.4,4.4,2.7.9,7.3,1.5,14.3,1.8,10.6.4,30.2-1.1,58.4-4.5,2.4-.3,4.8-.5,7-.8.2,0,.4,0,.5,0-.1.3-.5.8-1.1,1.7-6.9,9.9-13.3,19.3-19.2,27.9-.2.3-.6.7-1,1.4-.5.6-1,1.2-1.5,1.8-.5.6-.9,1.1-1.3,1.4-13.2,12.7-26.2,24.9-38.8,36.5-12.6,11.5-21,18.8-24.9,21.5-.4.2-.7.3-1.2-.3-.8-.9-1.6-2.1-2.7-3.5,0,0,0-.1-.2-.2-.4-.5-1.1-1.5-1.8-2.8-.8-1.3-1.3-2.9-1.5-4.7-.2-1.7.2-3.6,1.3-5.4,1.1-1.6,3.1-3.1,6.1-4.6,3-1.5,6.7-3,11.1-4.5,1.1-.5,1.8-1.4,2.2-2.6.4-1.2.5-2.2.4-3.2-.1-1-.7-1.8-1.6-2.2-.8-.4-1.8-.4-2.9,0-8.3,3-14.3,6.7-18.1,10.8-14.5,9.8-25.3,16.6-31.8,20-8.3,4.4-10,3.9-10.2,3.7-.3-1.3.3-3.2,1.9-5.6,1.8-2.7,3.8-5.4,6.1-8,2.3-2.6,4.1-4.6,5.4-6l1-1c.3-.4.6-.7.9-.9.5-.5.9-.9,1.2-1.4.2-.4.4-1.1,0-2.1-.4-.7-1.3-1-2.5-1-1.1,0-2.1.1-3.2.4-1.1.3-1.9.8-2.4,1.4-19.2,9.7-33.5,17.6-42.4,23.7-.3.2-.7.3-1.2-.3-.8-.9-1.6-2-2.6-3.4,0,0,0-.1-.2-.2-.4-.5-1.1-1.5-1.8-2.8-.8-1.3-1.3-2.9-1.5-4.7-.2-1.7.2-3.6,1.3-5.4,1.1-1.6,3.1-3.1,6.1-4.6,3-1.5,6.7-3,11.1-4.5,1.1-.5,1.8-1.4,2.2-2.6.4-1.2.5-2.2.4-3.2-.1-1-.7-1.8-1.6-2.2-.8-.4-1.8-.4-2.9,0-11,4.1-18.1,9.1-21,15-2.4,4.9-1.9,10,1.6,15.1.7,1,1.3,2,1.9,2.9.9,1.3,1.7,2.4,2.5,3.4.3.3.5.6.7.9,0,0,0,.1,0,.1,0,0,0,0,0,.2,0,.1-.3.4-.8.8-.4.3-.8.7-1.4,1l-.2.2c-.7.5-1.5,1.2-2.6,2.3h-.5v.4c-.5.4-1,1-1.7,1.7-.8.8-1.5,1.7-2.2,2.8-.3.5-.6,1-.8,1.5-.6,1.2-.8,2.4-.7,3.6v.4c0,0,.1,0,.1,0,0,.2.2.5.3.9.2.5.5.9,1,1.4.5.5,1.2.8,2.1,1h.2s0,0,.3,0c.4,0,.8,0,1.2,0,1.1,0,2.4-.2,3.8-.7,1.9-.7,3.8-2,5.8-4l.6-.6c0-.1.2-.2.3-.4,2-2.5,3.2-5,3.5-7.3.2-2.2-.2-4-1.4-5.4h0c0-.1,0-.1,0-.1h0c0-.1.2-.3.6-.6,4.2-3,9.7-6.5,16.5-10.4,5.8-3.4,12.8-7.1,20.6-11.1-2.2,3.1-4.3,6.2-6.1,9-1.9,3-3.3,5.7-4,8.1-.8,2.6-.5,4.6,1,6.1.5.4,1.2.7,2.1.7,1.3,0,3.1-.5,5.3-1.4,3.4-1.5,7.6-3.6,12.3-6.5,4.7-2.8,9.6-5.9,14.4-9.1,3-2,5.8-3.9,8.5-5.7-1.8,4.5-1.1,9.2,2.1,14,.7,1,1.3,1.9,1.9,2.8.9,1.3,1.8,2.5,2.5,3.4.3.3.5.6.7.9,0,0,0,.1,0,.1,0,0,0,0,0,.2,0,.1-.3.4-.8.8-.4.3-.8.7-1.2,1,0,0-.2.1-.3.2-.6.5-1.5,1.3-2.6,2.3l-.3.2c-.5.4-1.1,1-1.9,1.8-.8.8-1.5,1.7-2.2,2.8-.3.5-.6,1-.8,1.5v.2c-.6,1.1-.8,2.3-.7,3.4,0,.1,0,.2,0,.3,0,.3.2.7.3,1.1.2.5.5.9,1,1.4.5.4,1.2.8,2,1,.2,0,.4,0,.5,0,1.4.2,3.1,0,4.9-.6,1.9-.7,3.8-2,5.8-4l.5-.5c.1-.1.3-.3.4-.4,2-2.5,3.2-5,3.5-7.3.2-2.2-.2-4-1.4-5.4v-.4c0,0,.2-.2.4-.4,4-3.5,12.1-10.7,23.9-21.6,10.6-9.8,21.7-20,32.9-30.6-11.4,16.9-20.8,31.3-28,42.9-7.8,12.6-13.8,22.9-17.8,30.7-4,7.8-6.7,13.8-7.8,18-1.2,4.3-1.5,7.5-.8,9.5.4,1.5,1,2.6,1.8,3.2.8.7,1.9,1,3.3,1s1.9-.4,2.8-1c.8-.7,1.4-1.5,1.8-2.5.2-.4.7-1.8,0-2.6-.8-.8-2.2-.5-3.1-.1-.7.2-1,.1-1,0-.2-.1-.3-.3-.4-.5-.1-.3-.2-.6-.2-.8v-.2c-.2-.5-.2-1.8.5-4.7.5-2.4,2-6.3,4.5-11.5,2.5-5.2,6.5-12.6,12.1-21.9,5.4-8.9,12.4-19.7,20.9-32.1,8.5-12.4,18.6-26.9,30-43,4.4-5.5,8.5-10.6,12.4-15.4ZM352.2,54.5s0,0,0,0l.5.4-.6-.4ZM252.3,156.9c0,.9-.4,2-1.2,3.3-.8,1.4-1.9,2.6-3.1,3.7-1.1,1-2.2,1.4-3.3,1.3-.7-.1-.7-.4-.7-.6,0-.6.2-1.3.7-2.2.8-1.5,1.6-2.7,2.5-3.5h.4v-.4s0,0,0,0l.7-.7c.9-.8,2.1-1.8,3.6-3,0,0,0,0,.1,0,.2.6.4,1.3.4,2.1ZM163.1,157.8c.9-.8,2.1-1.8,3.5-3,0,0,.1,0,.2-.1.3.6.4,1.3.4,2.1s-.4,2-1.2,3.3c-.8,1.4-1.9,2.6-3.1,3.7-1.1,1-2.2,1.4-3.3,1.3-.7-.1-.7-.4-.7-.6,0-.6.2-1.3.7-2.2.8-1.5,1.6-2.7,2.5-3.5h.4v-.4h.2c0-.1.1-.4.1-.4,0,0,.1,0,.2-.1l-.5-.6.6.4Z"></path><path class="st4" d="M499.7,117.6c.3,0,.5,0,.8,0,.9,0,1.8-.2,2.8-.5,1.5-.5,2.6-1.6,3.2-3.3.4-1.2.5-2,.2-2.7-.2-.7-.8-1.2-1.5-1.3-.5-.1-1.1-.2-1.8-.2-1.1,0-2,.4-2.7,1-.7.7-1.2,1.5-1.5,2.6,0,.3-.3.7-.5,1.1-.3.6-.5,1.1-.5,1.6,0,.5,0,.8.2,1,.2.3.6.5,1.2.6Z"></path><path class="st3" d="M579.7,124.8c-.4-.3-1.3-.4-1.8,0-8.8,6.3-16.2,11.1-21.7,14.3-5.5,3.2-9.8,5.1-12.7,5.8-2.6.6-4.3.3-4.9-.7h0c-.2-.3-.6-1.2.2-5.1.7-3,2.5-7.6,5.6-13.8h0c.4-.8.7-1.5.8-2.2.2-.9,0-1.6-.9-2.1,0,0,0-.1,0-.2.3-1.4.4-2.6.2-3.8-.2-1.3-.9-2.3-2-3-2.1-1-4.7-.5-7.7,1.6-2.8,2-5.7,4.6-8.7,7.8-.5.5-.9,1-1.4,1.5-14.6,9.9-25.3,16.6-31.9,20.1-8.3,4.4-10,3.9-10.2,3.7-.3-1.3.3-3.2,1.9-5.6,1.8-2.7,3.8-5.4,6.1-8,2.3-2.6,4.2-4.6,5.4-6l1-1c.3-.4.6-.7.9-.9.5-.5.9-.9,1.2-1.4.2-.4.4-1.1,0-2.1-.4-.7-1.3-1-2.5-1-1,0-2.1.1-3.2.4-1.1.3-1.9.8-2.5,1.4-8.5,4.9-16.6,9.2-24.1,12.9-7.5,3.7-13.8,6.2-18.6,7.4-7.1,1.6-11.5,1.3-12.9-.9-1-1.8-.9-4.3.3-7.6,1.3-3.4,3.7-7.2,7.4-11.3,3.6-4.1,8.6-8.2,14.7-12.2,5.9-3.7,10.9-6.4,14.9-8,4.9-2,6.4-1.9,6.7-1.8.5.5.5,1,.4,1.3-.1.6-.4,1.1-.8,1.5h-.4c0,.1-.1.1-.1.1v.4l-.6.4c-.8.6-1.3.7-1.5.7-.4,0-.7,0-1.1-.3-.4-.2-1-.1-1.7.1-.5.2-1.1.5-1.6.9-.5.4-1,.8-1.4,1.2-1.4,1.8-1.1,3.1-.6,3.8.2.3.5.6.7.8l.4.2c1.2.5,2.6.4,4.1-.5,1.7-.9,3.6-2.4,5.8-4.2,2.2-1.9,4.1-4,5.4-6.2,1.5-2.4,1.7-4.6.7-6.8-1.5-2.7-5.2-2.9-11.2-.5-4.9,1.9-11.5,5.5-19.5,10.6-6,3.9-11.2,8.2-15.5,12.8-1.6,1.7-3,3.4-4.3,5.1l-2,1.5c-4.4,3.4-8.9,6.9-13.6,10.2-4.6,3.3-9.2,6-13.6,8-4.3,2-8.2,2.7-11.6,2.3-1.2-.3-2-1.1-2.2-2.7-.3-1.8-.2-3.9.3-6.4.5-2.5,1.4-5.1,2.6-7.5,2.3-4.6,3.6-7.7,3.9-9.6.3-2.2-.6-3.7-2.8-4.3-1.4-.3-3.4.6-6.5,2.9-2.8,2.1-6,4.9-9.6,8.2-3.6,3.3-7.1,6.6-10.5,9.9-2.8,2.7-5.3,5.1-7.3,7,2.7-3.6,5.5-7,8.2-10.2,2.4-2.9,4-4.8,4.7-5.9.7-1.2,1-2.2.8-3-.2-.8-.8-1.4-1.7-1.7-.9-.4-1.8-.5-2.7-.3-.8.2-1.6.7-2.2,1.5-9.2,5.4-17.5,9.6-24.7,12.6-7.2,3-12.8,4.5-16.8,4.5s-3.6-.4-4.9-1.3c-1.3-.8-1.9-2-1.9-3.8.6-2.7,2-5.2,4-7.4.1-.1.3-.3.3-.4.9-.9,1.8-1.6,2.6-2.1,1-.6,1.5-.7,1.8-.8,3.9-.8,8.2-2.1,12.7-3.8,2.2-.8,4-1.8,5.6-2.9,1.7-1.1,2.8-2.4,3.3-3.9.4-1.2.3-2.3-.2-3.2-.5-.9-1.3-1.5-2.3-2-3.8-1.4-9.4.7-17.2,6.3-1,.8-2.1,1.6-3.2,2.5l-.6.5c-1.7,1.3-3.8,3.5-6.3,6.4-.5.7-1.1,1.5-1.6,2.3-.7,1-1.4,2.1-2,3.3-2.1,4.2-2.4,7.9-.9,10.9,1.3,2,3.6,3.1,6.8,3.3.4,0,.9,0,1.4,0,4.5,0,10.7-1.6,18.3-4.8,7.2-3,14.8-6.9,22.6-11.6-1.3,2-2.5,3.9-3.8,5.9-2.1,3.5-4,6.6-5.4,9.1-.6,1.1-2.2,3.7-2.3,4-.6,1.1-1.2,2.7-.2,3.5.3.3.7.4,1.2.4.5,0,1-.1,1.6-.4,1.1-.4,2.1-1.1,3.1-1.9,1.1-.9,3.5-3.1,7.2-6.7,3.7-3.6,7.7-7.3,11.9-11.2,4.2-3.9,7.7-6.8,10.3-8.6.3-.2.6-.3,1-.5,0,0,0,0,0,0-.3,1.1-.7,2.3-1.4,3.6-.4.9-.8,1.7-1.1,2.6-1.8,4.9-2.5,9.1-2.1,12.5.4,3.6,2,6.1,4.8,7.6,4.1,2,9.9.9,17.8-3.3,6.3-3.4,13.9-8.6,22.5-15.5-.5.9-.9,1.8-1.3,2.7-2,4.4-2.3,8.3-1,11.4.6,1.4,1.7,2.6,3.3,3.7,1.6,1.1,4,1.6,7.2,1.6s10.7-1.9,18.8-5.6c7.1-3.3,16.5-8.2,28-14.8-2.2,3-4.2,6-5.9,8.7-1.9,3-3.3,5.7-4,8.1-.8,2.6-.5,4.6,1,6.1.5.4,1.2.7,2.1.7,1.3,0,3.1-.5,5.3-1.4,3.4-1.5,7.6-3.6,12.3-6.5,4.7-2.8,9.6-5.9,14.4-9.1,1.8-1.2,3.6-2.4,5.3-3.5-.5.7-1,1.3-1.5,1.9l-.2.2c-.6.7-1.2,1.7-1.9,2.9-.8,1.2-1.3,2.4-1.5,3.6-.3,1.4.2,2.5,1.5,3.2,1.4.6,3.2.6,5.3-.2,2-.7,4.2-1.8,6.4-3.2,1.4-.9,2.7-1.9,4-2.9,1.2-1,2.6-2.2,4.2-3.7-2.1,6.5-1.5,11,1.8,13.5,1.2.8,2.8,1.3,4.7,1.3h0c3.5-.2,8.5-2.3,15.2-6.4,6.6-4.1,14.2-9.2,22.8-15.4.6-.4.9-.8,1.1-1.1.5-.8,0-1.3-.1-1.4ZM534.2,129.7s0,.4-.8,1.3c-2.6,2.6-5.4,4.8-8.2,6.7-2.8,1.8-5.2,2.9-7.1,3.2-.2,0-.3,0-.4,0,0-.2.1-.4.4-.8.4-.5.7-1,.9-1.3v-.2c1.6-2,3.7-4.2,6.3-6.8,2.6-2.5,5.2-4.7,7.6-6.5,2.3-1.7,3.5-2.3,4.1-2.5h0c0,.2-.1.5-.3,1-.4.9-.9,1.8-1.4,2.7h0c-.3.7-.6,1.5-.8,2.3h-.2s0,.8,0,.8ZM340.6,118.8h.1s.2-.1.2-.1h.7v-.2c.6-.2,1.1-.3,1.4-.3.4,0,.6,0,.8,0h0c0,.2-.3.6-1.3,1.2-1.2.7-2.8,1.4-4.7,2-1.6.6-3.2,1-4.6,1.4,1.4-1,2.8-1.8,4.2-2.6,1.1-.7,2.2-1.2,3.1-1.5Z"></path></svg>