<svg xmlns="http://www.w3.org/2000/svg" xmlns:xlink="http://www.w3.org/1999/xlink" id="BrindisMr" viewBox="0 0 240 274"><defs><style> .st0 { fill: #a89180; } </style></defs><path class="st0" d="M132.1.6c-.5,2.8-.9,5.5-1.4,8.4-.5,2.8-1.2,5.5-2,8.3-.5.4-.7,1.3.2,1.5s1.2-.8.9-1.3c.4-2.8.9-5.5,1.6-8.3.7-2.8,1.5-5.6,2.2-8.4.2-.9-1.3-1.2-1.5-.2Z"></path><path class="st0" d="M88.5,30c3.2.7,6.3,1.7,9.2,2.9,3,1.1,5.9,2.4,8.6,4.2.8.6,1.5-1,.7-1.3-3.1-1.2-5.9-2.9-9-4.1-3-1.2-6-2.2-9.2-3.1-.8-.3-1.2,1.2-.2,1.4Z"></path><path class="st0" d="M103.5,23c1.1.9,2,2,3,3,.5.6,1,1,1.4,1.5.5.6,1.1,1.1,1.5,1.8.8,1.4,2.5-.3,1.1-1.1-.7-.3-1.1-.9-1.6-1.3-.5-.6-1.1-1-1.6-1.5-1.1-1-2.2-1.9-3.2-2.9-1.9-1.8-3.6-3.7-5.6-5.4-.1-.2-.2-.4-.4-.6l-.3-.3c-.9-.4-1.8.9-1,1.5,2.2,1.8,4.7,3.3,6.8,5.3Z"></path><path class="st0" d="M120.7,15.1c.1.6.2,1.1.3,1.7.1.7.5,1.5.3,2.2-.2.6.2,1.2.8,1.1.7-.1.8-.9.3-1.3-.4-.4-.4-1.5-.5-2.1s-.2-1.1-.3-1.5c-.2-1.2-.3-2.4-.5-3.6-.3-2.3-.5-4.7-.5-7-.1-1-1.8-.9-1.6.1.3,2.4.7,4.8,1.1,7.2.4,1.1.5,2.2.8,3.4Z"></path><path class="st0" d="M137.2,19.2c.1-.3.2-.6.2-.9,1.8-3.3,3.7-6.5,5.8-9.6.5-.8-.7-1.7-1.1-.8-1.8,3.4-3.6,6.7-5.6,9.9-.2.1-.4.2-.7.6-.7.9.8,1.8,1.3.8Z"></path><path class="st0" d="M107.6,12.7c1.2,1.9,2.4,3.7,3.5,5.6.5.9,1.1,1.9,1.6,2.9.3.6.5,1,.9,1.5.2.3.8,1.1.8,1.5,0,.7.7,1.2,1.2.9.5-.2.8-1.2.1-1.5-.4-.2-.8-.9-1-1.3-.3-.6-.7-1.1-1.1-1.7l-1.6-2.6c-1.1-1.9-2.2-3.9-3.2-5.7-2.1-3.9-4.2-7.7-6.4-11.4-.7-1.1-2.4-.2-1.8.8,2.2,3.9,4.6,7.4,6.9,11.1Z"></path><path class="st0" d="M157.4,82.5c.2.9.3,1.8.3,2.6s-.1.7-.2.9c0,0,0,.2-.2.3,0,0,0-.1-.1-.2-.4-.3-1.2.2-.9.8.4.7,1.1,1.2,1.9.9.7-.2,1.2-1.1,1.3-1.8.3-1.1.1-2.3,0-3.4-.1-.6-.2-1.1-.3-1.7v-.2c-.4-2.5-.8-5.1-1-7.7-.2-2.6-.3-5.3-.1-7.9.1-1.3.3-2.6.7-4.1.2-.9.3-1.9.8-2.8.1-.3.3-.7.7-.7h.1c0,.2.1.2.1.3.2.2.1.1.2.3.5,1,.7,1.8.9,2.9.3,1.4.5,2.8.8,4.2.4,2.6.8,5.2,1,7.8.1,1.1.3,2.1.5,3.1.3,1,.9,2.1,2,2.1s1.4-.9,1.6-1.8c.3-.7.4-1.4.5-2.1.1-.8.1-1.7.1-2.4,0-1.2.1-2.3.2-3.5.1-2.1.5-4.3,1.3-6.3.1-.3.3-.8.5-1,.1-.1.2-.1.2-.2,0,.1,0,0,.1,0,.1.2.2.4.2.7.7,2.8.5,5.7.5,8.5s0,4.7.8,6.9c.2.7.7,1.5,1.4,1.7h.4c.1,0,.2,0,.3-.1,0,0,.1-.1.2-.1.3-.2.5-.4.8-.7.3-.4.5-1.1.8-1.7.3-.8.7-1.4.9-2.2.3-1.1.7-2.3.8-3.4.1-.3.2-.8.3-1.2,0-.1,0-.3.1-.4.1,0,.3-.1.4-.1.3-.1.8-.4,1.2-.6-.2,1.3-.7,2.6-.8,4.1-.2,1.5-.1,3.5,1.4,4.3,2.5,1.3,4.4-2.6,5.2-4.4h0c.1-.3.3-.7.4-.9.4-.9.9-1.8,1.3-2.6.2-.6.5-1.2.8-1.8l.7.7c-.5.9-.9,1.9-1.2,2.8-.3,1.2-.5,2.8,0,4,.7,1.3,2.5,1.2,3.6.6,1.1-.6,2-1.5,2.2-2.8.1-1.2-.2-2.2-.9-3.1-.5-.9-1.3-1.7-2.1-2.4.3-.6.8-1.1,1.1-1.5.5-.7,1.3-1.7,2.2-1.7s.5-.8,0-.8c-1.4.2-2.6,1.4-3.4,2.5-.2.2-.3.6-.5.8-.4-.3-.8-.8-1.1-1.2.1-.6,0-1-.1-1.5-.1-.6-.4-1.1-1-1-.5.1-.9.7-1,1.1-.2.8.1,1.5.5,2.2-.2.6-.5,1.1-.8,1.7-.4,1.1-1,2.1-1.4,3.2-.2.3-.3.8-.4,1.1-.5.9-1,1.7-1.6,2.4-.3.3-.7.7-1,.9,0,0-.1.1-.2.1h-.3c-.1-.3-.2-.6-.3-.8-.1-.7-.1-1.3.1-2,.2-1.5.9-3.4.2-4.8-.1-.3-.4-.4-.8-.4-.5,0-1.1.2-1.5.3-.2.1-.4.2-.8.3v-.3c0-1.1-.3-2.8-1.5-3.2s-2,1.1-2,2.1c-.1,1.2.8,2.4,2,2.8.1,0,.2.1.4.1h0c-.2,1.5-.4,3-1,4.3-.4,1.2-.9,2.4-1.9,3.2h-.1s-.1-.1-.1-.2c-.1-.3-.1-.4-.2-.8-.2-1.3-.3-2.6-.4-3.9v-2.2c0-1.5,0-3.1-.1-4.7-.1-1.3-.2-3-1-4.2-.7-1-1.8-1.3-2.6-.4-1.2,1.1-1.6,3.1-2,4.5-.3,1.5-.5,3.1-.8,4.5-.2,1-.3,2-.3,3.1s.1,1.9,0,2.9c0,.2-.1.4-.1.7q-.1.1-.2.2s0-.1-.1-.1c-.2-.7-.3-1.3-.5-2-.1-.8-.2-1.5-.3-2.3-.3-2.8-.7-5.6-1.2-8.4-.2-1.3-.5-2.8-1.1-4.1-.3-.9-.8-2-1.5-2.5-.8-.6-1.6-.4-2.3.3-.5.7-.7,1.5-.9,2.3-.3,1.2-.5,2.4-.8,3.6-.4,2.6-.4,5.3-.3,8-.2-1.2-.5-2.3-.9-3.4s-.7-2.5-1.6-3.2c-.8-.6-1.6-.2-2.2.3-.8.9-1.1,2.1-1.5,3.2-.3.9-.7,1.9-.7,2.9s0,2.4.4,3.5c.2.6.8,1.1,1.4,1,.8-.1.9-.8,1.1-1.3.1.1-.3-.4-.7,0q-.1.1-.2.1c-.1-.2-.1-.3-.2-.6-.2-.7-.3-1.4-.4-2.1-.1-1.4.2-3.5,1-5,.2-.4.9-1.5,1.4-.9.5.8.7,1.9.7,2.8.3,2.9,1,5.6,1.5,8.4.4,2,.8,4,1.2,5.9ZM189.5,68.9c.8.9,1.6,1.8,2.2,2.9s.1,1.7-.4,2.5c-.4.7-1.4,1.1-2.2,1-.8-.1-1.2-.9-1.2-1.7-.1-1.7.8-3.3,1.6-4.7ZM175.7,66.1c.1-.2.3-.8.7-.7.3.1.5.6.7.9.2.6.2,1.2.2,1.9v.6c-1.2-.2-2-1.5-1.5-2.6Z"></path><path class="st0" d="M178,62.4c.4.2.9.4,1.2.7h.1c.1.1.3.2.4.2.2,0,.4-.2.5-.4h0c0-.2.1-.3.1-.3l.3-.7c.2-.4.4-.9.7-1.3.4-.9.8-2,.7-3-.1-.9-.9-2-1.9-1.4-.3.2-.7.6-.9.9-.2.3-.4.7-.5,1.1-.1.3-.1.6-.2.9-.2-.6-.7-1.1-1.1-1.4-.9-.6-2,.1-2.3.9-.2,1.1.5,2.1,1.3,2.9.4.4,1,.8,1.5,1.1Z"></path><path class="st0" d="M238.1,220.1c-.1-.2-.2-.4-.4-.7-1.4-1.7-4.1-1.8-6.1-1.9-3.4-.2-6.7-.4-10-1.1-5.3-.9-13.6-3.1-16-7.8-.4-1.7-.8-3.3-1.2-5-1.6-7.5-3.2-15.1-4.4-22.7-1.2-7.6-2-15.3-2.7-22.9-.8-6.8-1.6-13.4-2-20.3-.1-3.9,0-7.6.3-11.3.2-1.9.5-3.9.9-5.8,1.4-4.5,3.2-8.9,4.8-13.3,3.3-9,5.7-18.2,6.5-27.6.2-2.8.3-5.5.2-8.3-.1-1.3-.1-2.6-.3-4v-.2c-.2-4.7-1-9.5-2-14.1-1.9-8.7-4.6-17.2-7.8-25.4-.9-2.4-1.9-4.7-2.9-7-1-2.2-1.9-4.8-3.3-6.8-.1-.2-.3-.2-.5-.2-1.1-.8-3.1-1.1-4-1.2-5.8-.9-11.9-.1-17.6.8-5.9,1-11.7,2.4-17.3,4.4-2.9,1-5.6,2.1-8.3,3.2-2.3,1-5.3,2.1-6.7,4.4-.3.6-.4,1-.4,1.3-.5,4-.4,8.1-.4,12.2s.2,8.1.5,12.1c.7,8,1.9,16.1,4,23.9,1.9,7.2,4.4,14.2,7.6,20.9,3.3,6.7,7.6,13.1,12.4,18.7,2.7,3.2,5.7,6.3,8.8,9.2,2.9,2.8,5.9,5.3,9,7.8.2.2.4.6.7.9,1,1.2,2,2.5,2.6,4,1.4,2.9,2.3,5.8,3.1,8.9,1.6,6.7,3,13.4,4.2,20.3,2.4,13.4,4.3,27,6.4,40.5.3,2.5.9,5.2,1.1,7.8-.5,1.4-1.6,3.2-2.2,3.9-.8,1.1-1.6,2.1-2.6,3.1-1.8,1.9-3.8,3.6-6,5.2-3.8,2.6-8.3,4.4-11.6,7.6-1.2,1.2-3.1,3.2-2.9,5,0,.3.1.7.3.9-.4,2.1.9,4.1,2.6,5.3,2.3,1.5,5.2,2.3,7.9,2.8,5.8,1,12.1.8,18,0,6-.8,12-2.4,17.6-4.7,5.5-2.3,10.8-5.1,15.5-8.8,2.4-1.9,4.7-4.2,6.1-6.9.9-2.4,1.2-5.6-1.2-6.8ZM197.4,31.2c-1.5-.2-3.1-.4-4.6-.6,1.5,0,3,.1,4.5.2,0,.1.1.2.1.3ZM197,30.3c-.9-.2-1.9-.4-2.7-.7.9,0,1.8.1,2.6.2,0,.1.1.2.1.4ZM137.8,28.1c.9.6,2,.8,2.9.9,3.3.2,6.4-.3,9.4-1.2.1,0,.1-.2-.1-.2-2.4.6-4.9.6-7.5.3-1.1-.1-2.3-.2-3.3-.6-.4-.1-1.1-.4-1-1,.3-.8,1.2-1.4,1.5-1.8,1.8-1.5,4-2.6,5.9-3.7,2.1-1.1,4.5-2,6.8-2.9,4.7-1.7,9.6-2.6,14.4-3.4,4.9-.8,10-1.4,14.9-1.3,2.5.1,5.3.2,7.6,1.1.7.2,1.3.3.9,1.2-.3.4-.9,1-1.3,1.4-4.2,2.6-9.3,3.6-14.2,4.8-4.9,1-9.8,2.4-14.6,3.9,7.5-1.4,18-2,25.5-6.1,0,.1.1.1.1.1,1.2-.6,2.3-1.2,3.4-2,.7-.4,1.4-.9,2-1.4.4,1.3,1.1,2.5,1.6,3.9l2.6,6.3c.2.6.4,1.1.7,1.5-16.3-2.8-33.3-.7-48.4,5.9-3.4,1.4-7.5,3-10.1,5.8,0-3.9.3-7.7.2-11.7ZM152.9,34c1.5-.8,3.1-1.4,4.6-2.1-2.7.7-5.5,1.3-8.1,2.2,3.1-1.3,6.3-2.4,9.4-3.3,5.9-1.7,12.1-2.8,18.2-3-2.9.3-5.7.8-8.6,1.3,2.1,0,4.2-.1,6.3-.1-2.6.4-5.4,1.1-7.9,1.9,4.4-.6,8.8-.7,13.3-.8-2.5.1-4.9.2-7.4.6-4.3.6-8.6,1.3-12.7,2.5-1.8.4-3.5,1-5.3,1.5,2.6-1.2,5.3-2.3,8-3.2-3.5.7-6.7,1.4-9.9,2.4ZM137.9,43.9c-.1.1-.2.2-.2.1.1,0,.2-.1.2-.1ZM153,100.8c-.8-1.3-1.5-2.5-2.2-3.9-3.2-6.4-6.1-13.1-8.2-20.1-2.2-7.6-3.6-15.4-4.5-23.2-.2-2.8-.4-5.4-.5-8.1,2.9-2.6,6.3-4.7,9.8-6.5,3.7-1.8,7.5-3.3,11.4-4.4,8.1-2.4,16.7-3.5,25.1-3.4,4.6.1,9.2.6,13.7,1.4.8,2,1.4,4.1,2.2,6.2,2.9,8.3,4.7,17,5.5,25.6.4,5,.4,9.9.4,15-.3,4.6-1.1,9.2-2.1,13.8-.2,1.2-.5,2.4-.9,3.5-3.3-.2-6.7-.4-10-.7-3.4-.2-6.9-.3-10.4-.3-7,.1-14.3.9-21.2,2.5-1.8.4-3.6.9-5.4,1.4-.7.2-2.3.4-2.7,1.2ZM154,101.4c-.1-.7,5.6-2.1,6.4-2.3,2-.6,4.1-1.1,6.1-1.5,4-.9,8-1.2,12.1-1.4,4.2-.2,8.3-.2,12.6,0,2.1.1,4.2.3,6.3.6,1.2.1,2.3.3,3.5.6-5.5,1.4-10.5,2-16.4,2.9-4.6.7-9.2,1.3-13.8,1.8-2.5.1-5.2.2-7.7.2s-3.4,0-5.1-.1c-1.3-.1-2.9,0-4.1-.4h0ZM167.9,118.9c1,.1,2,.2,2.9.1-1.2-.2-2.3-.6-3.5-.8-.2-.2-.4-.4-.5-.7,1.3.1,2.7.2,4.1.2-1.6-.3-3.3-.7-4.9-1.1-.1-.1-.2-.2-.3-.3,1.9.1,3.7.1,5.5-.1-2.2-.1-4.3-.4-6.5-.9-.1-.1-.2-.2-.3-.3,2.1.1,4.3.2,6.4,0-2.5-.2-4.9-.7-7.5-1.2-.1-.2-.3-.3-.4-.6,2.4.1,4.9.1,7.4-.3-2.9.1-5.6-.3-8.3-.9,2.1,0,4.3-.2,6.4-.4-2.5,0-4.9-.2-7.4-.8,3,.1,5.9-.2,8.8-.7-3.6,0-6.7-.1-10-.9-.3-.3-.5-.8-.9-1.1,3.4.4,6.9.3,10.3-.4-4.2.4-7.9-.2-11.4-1.2-.1-.1-.1-.2-.2-.3,3.6.4,7.4.4,11,.1-4-.1-7.1-.3-11-1.3-.4-.1-.8-.2-1.2-.3-.1-.1-.1-.2-.2-.2.7.1,1.2.1,1.9.2,3.6.3,7.2.4,10.8-.1-4.6,0-9.2-.7-13.7-1.9,1,.1,2.1,0,3,0h2.5c9,.6,18.1-.1,27-1.7,2-.3,4-.7,5.9-.9-7.6,1.9-15.3,3.4-22.9,4.3,10.1-.1,20.1-.8,29.1-2.9.4-.1.9-.2,1.3-.3-8.3,2.3-16.9,3.9-25.5,4.6,5.8.1,11.9,0,17.8-.7-6.5,1.3-12.4,2.4-19.5,2.2,5.2.7,10.4.8,15.7.3-5.6,1.2-11.2,1.9-17.2,1.5,5.6.9,11.2,1,16.8.4-5.2,1.1-10.1,1.7-15.6,2.3,5.1,0,10.2.1,15.4-.3-4.6,1.1-9.2,1.9-13.9,2.2,5.5.2,11,0,16.5-.8-5.1,1.3-10.1,2.3-15.4,2.1,5.3.9,10.7.6,16-.2-5.4,1.4-10.4,2.4-16.1,2.1,5.2,1,10.7,1,15.9.1-4.9,1.2-10.1,1.9-14.9,1.3,5.4,1.5,11.2,1.3,16.7.3.2,0,.5-.1.8-.2h-.1c-.5.3-1.1.4-1.8.7-5.1,1.2-11.3,1.5-16.9.6,4.4,1.2,8.7,2.1,13.2,2-1.5.3-3,.6-4.5.6-3.3.1-6.3.1-9.3-1.3,4.3,2.4,9,2.9,13.7,2.8-.9.4-1.8.7-2.7.9-3.1.4-6-.2-8.9-1.3-2.3-.9-4.6-2.1-6.7-3.3.8,0,1.4.1,1.5.1-1-.2-1.9-.4-2.9-.7l-.7-.7ZM169,120c0,0,.1,0,.2,0,0,0-.1,0-.2,0ZM172.9,240.7h0c0-.1.1,0,.1,0h-.1ZM179.8,241.6c-2.3-.4-4.7-1.2-6.5-2.6-.1-.1-.2-.2-.3-.3,0-.2,0-.4-.2-.6-.2-1.8,2.5-4.1,3.7-4.8,2-1.3,4.2-2.3,6.4-3.5,2.4-1.3,4.6-2.8,6.6-4.4,2.1-1.8,4-3.7,5.6-5.9.3-.6,1-1.4,1.5-2.4v.4c-.2,3.6-1.3,7.2-2.3,10.7-.2.7.8,1.1,1.1.4,1.1-3.1,2-6.3,2.4-9.6.4-3.3.2-6.7-.3-10-1-7.2-2.1-14.2-3.2-21.4-2.1-14.1-4.3-28.1-7.4-41.9-.8-3.4-1.2-7.3-3-10.3-.8-1.4-1.8-2.8-3-3.9q-.1-.1-.2-.2c0-.1-.1-.2-.2-.3-2.6-2.5-5.4-5-8-7.5,1.2.7,2.4,1.3,3.7,1.9,2.9,1.1,6.1,1.7,9.2,1,3.2-.6,5.6-2.4,7.8-4.7,1-1.1,2.1-2.3,3.1-3.5-.1.3-.2.7-.2.9-1.3,4.6-2.2,9.5-2.3,14.3-.4,6.9.4,15.2,1.2,22.1.2,1.9.4,3.7.7,5.6-1.6-6.8-3.4-13.5-5.5-20.3,1.1,6.6,2.1,13.3,3.1,20-2.1-9.5-4.6-18.8-7.2-28.1,3.1,23,7.4,44.7,13,68.6-.3-3.9-.8-7.7-1.2-11.6,1.9,9.4,5.5,23.6,7.4,28.1-.8-4-1.3-7.9-2-12,1.3,6.2,3.1,12.5,7.7,17.2s.7,0,.4-.2c-2-3.3-3.4-6.7-4.5-10.2,2.4,1.9,5.7,3.1,8.2,3.9,5.1,1.4,10.5,2.4,15.9,3,1.5.1,4.8-.1,5.9,1.1-.1.2,0,.6.3.8h.1c.3,1.9-3.2,4.2-4.5,5.3-3.4,3-7.1,5.7-11.2,8-4.1,2.3-8.5,4.5-13,5.9-4.6,1.4-9.8,2.2-14.6,2.2s-9.7,0-14.3-1ZM236.6,227.9c-1.5,2.1-3.5,3.6-5.5,5.2-4.2,3.1-8.7,5.7-13.4,7.7-6.3,2.8-13.1,4.4-19.9,5.2,4.6-.8,9.2-2,13.6-3.4-4.1,1.1-8,1.8-12.2,2.3,6.4-1,12.5-3,18.2-5.9-8.3,3.3-20.1,5.7-30.3,5.2,1.2,0,2.4,0,3.5-.1,4.9-.3,9.9-1.3,14.6-2.5,4.8-1.3,9.7-2.6,14.2-4.6,4.4-2,8.8-4.6,12.3-7.7s3.3-3.2,4.8-5c.5-.7,1.2-1.4,1.5-2.2,1.2,1.5-.4,4.5-1.5,5.9Z"></path><path class="st0" d="M232.2,225.3c.4-.4.9-1,1.2-1.3-1,.7-2,1.4-3,2.1-1.9,1.3-3.8,2.4-5.8,3.5,2.1-1.5,4.1-3.4,6.1-5.5.2-.2.4-.3.5-.6-.9.6-1.8,1.1-2.6,1.7-4.1,2.6-8.3,5-12.8,6.9-4.2,2-8.1,3.9-13.2,5.5,3-.4,5.6-.9,8.1-1.7-3.7,1.8-7.4,3.2-11.6,4.3,12.2-.9,24.7-5.7,33.1-15Z"></path><path class="st0" d="M216.7,229.8c-3.4,1.7-6.7,3.7-10.1,5,7.8-1.1,14.5-5.3,20-10.1-3.4,2-6.5,3.3-9.9,5.2Z"></path><path class="st0" d="M209,232.5c5.1-1.2,9.8-4,13.5-7.4-4.6,2.5-9.1,4.8-13.5,7.4Z"></path><path class="st0" d="M211.3,230c2-.7,3.7-1.8,5.3-3.2-1.9,1-3.6,2-5.3,3.2Z"></path><path class="st0" d="M212.3,227.8c.3-.2.7-.4,1-.8-.3.2-.7.6-1,.8Z"></path><path class="st0" d="M195.4,221.4c-5.5,5.4-12.8,9-19.5,13.3,3.5-1.2,7.2-2.2,10.4-4.2,3.4-2,8.1-6.5,9.1-9.1Z"></path><path class="st0" d="M192,227.4c-3.8,2.4-7.5,5-11.4,7.3,4.5-1,8.5-3.9,11.4-7.3Z"></path><path class="st0" d="M191,230.2c-2.3,1.4-4.4,3.1-6.7,4.5,2.6-.7,4.9-2.5,6.7-4.5Z"></path><path class="st0" d="M190.8,232.5c-1.4.8-2.5,1.8-4,2.5,1.5-.3,3-1.5,4-2.5Z"></path><path class="st0" d="M160,100.7c2.2-.3,4.6-.7,7-1.1-1,.2-2,.4-3,.8,4.4-.2,8.9-.6,13-2.2-1.8.2-3.5.3-5.2.6,1.5-.3,3.1-.7,4.5-1.1-2,.1-4.1.2-6,.6,1.3-.2,2.5-.6,3.8-.8-5.8-.1-11.6.8-16.9,3.2,2.5-.6,5.1-1,7.5-1.4-1.5.4-3.2,1-4.7,1.5Z"></path><path class="st0" d="M173.4,100.2l-2.6.7c3.5-.1,6.9-.6,10.3-1.1-.2.1-.4.1-.7.2,4.3-.2,8.7-.8,12.6-2-2.5.1-4.8.3-7.2.8,1-.2,2.1-.6,3.1-.8-3.7.2-7.4.7-11.1,1.3,1.1-.3,2.2-.7,3.3-1-4.3.3-8.5,1.2-12.5,2.4,1.5-.2,3.2-.3,4.8-.6Z"></path><path class="st0" d="M204.1,84.3c2.4-12.4.3-25.1-3.3-37-.2-.6-.3-1.3-.5-1.8.2,1.1.4,2.1.5,3.2,1.9,11.4,4,23.7,3.3,35.6Z"></path><path class="st0" d="M199.8,52.3c.9,6.8,1.9,13,2.7,19.3.3-6.5-1-13.4-2.7-19.3Z"></path><path class="st0" d="M198.6,53.2c.3,3.5,1,7,1.8,10.6-.1-3.6-.9-7.2-1.8-10.6Z"></path><path class="st0" d="M141.5,52.5c-.1-.9-.2-1.7-.2-2.5v.6c-.4,11.4,1.8,23,5.6,33.8-1.3-6.1-2-11.7-2.7-15.7-.9-5-1.9-10-2.6-16.1Z"></path><path class="st0" d="M143.6,54c.3,6.3,1.1,12.5,3.1,18.5-.8-6.4-1.6-12.5-3.1-18.5Z"></path><path class="st0" d="M147.3,64.2c-.2-2.8-.8-5.8-1.4-8.3.2,2.8.5,5.5,1.4,8.3Z"></path><path class="st0" d="M102.1,106.5c-.8.6-1.6.9-2.4,1.2-1.3.6-2.4,1.2-3.8,1.5-.4.1-1,.2-1.5.2h-.3c-.1,0-.2-.1-.1,0h-.1v-.3c0-.2,0-.6.1-.8.3-.7.8-1.2,1.3-1.8,1.2-1.2,3-2.6,3.2-4.5.1-.3-.1-.7-.4-.9-.5-.3-1.1-.6-1.6-.7-.3-.1-.7-.1-.9-.1.1-.1.2-.2.2-.3.7-1.1,1.4-2.9.5-4.1-.9-1.2-2.5-.2-3.2.7-.9,1.1-.8,2.8.1,3.9.1.1.2.2.3.3,0,0-.1,0-.1.1-1.1,1.2-2.3,2.4-3.6,3.4-1.1.9-2.4,1.7-3.8,1.9h-.1c0-.1,0-.2.1-.3q.1-.4.3-.9c.5-1.3,1.3-2.6,2.1-4,.1-.2.2-.3.3-.6v-.2c.4-.4.8-.9,1.1-1.4,1-1.4,2-3,2.9-4.5.8-1.3,1.6-3,1.6-4.6s-.8-2.4-2.2-2.2c-1.9.3-3.4,1.9-4.8,3.1-1.3,1.2-2.5,2.5-3.7,3.9-.8.9-1.6,1.7-2.3,2.6-.7.9-1.1,1.9-1.9,2.6-.1.1-.3.3-.4.6-.1,0-.3.1-.4.1h0c.1-.9.4-1.7.8-2.3.3-.8.8-1.7,1.2-2.4,1.5-2.9,3-5.7,4.3-8.7.7-1.5,1.2-3,1.5-4.5.2-1,.5-2.3.1-3.4-.3-1.1-1.3-1.5-2.4-1.2-.9.3-1.6,1-2.3,1.7-1.1,1-2.1,2-3.1,3-2.1,2.2-3.8,4.7-5.4,7.4.4-1.3,1-2.5,1.4-3.9.3-1.2,1-2.9.5-4.2-.3-1.1-1.3-1.3-2.3-1.1-1.3.3-2.4,1.2-3.5,2.1-.9.7-1.8,1.3-2.5,2.2-.8,1-1.6,2.3-1.8,3.5-.1.8,0,1.5.8,1.9.8.4,1.3-.1,2-.6.3-.3.2-1.1-.3-1h-.3c.1-.2.1-.4.2-.7.2-.8.5-1.7,1-2.3.8-1.4,2.4-3.1,4.1-4.1.4-.2,1.9-.9,1.9.1s-.7,2.2-1.1,3.1c-1.5,2.9-2.6,5.9-4,8.9-.9,2.2-1.8,4.3-2.7,6.5-.4,1-.8,2-1.4,2.8-.2.2-.4.6-.8.8-.1,0-.2.2-.3.2.1,0,.1-.1,0-.2-.2-.7-1.3-.7-1.3.1-.1.9.2,1.9,1.2,2.1.9.2,1.8-.2,2.4-.8,1.1-.8,1.6-2,2.2-3.2.2-.6.5-1.2.8-1.8.1,0,.1-.1.2-.2,1.2-2.8,2.5-5.4,4.1-7.9,1.5-2.6,3.1-5.3,4.9-7.6,1-1.2,2.1-2.3,3.2-3.4.8-.8,1.5-1.5,2.4-2.1.3-.2.7-.3,1.1-.2h0v.8c-.2,1.3-.5,2.1-1,3.3-.7,1.5-1.2,3.1-2,4.5-1.2,2.8-2.6,5.4-4.1,8-.5,1.1-1.1,2.2-1.4,3.3s-.5,2.5.5,3.3c1,.8,2,.1,2.7-.7.7-.4,1.3-1.1,1.9-1.5.7-.7,1.1-1.4,1.6-2.2.8-1.1,1.6-2.2,2.4-3.2,1.5-1.9,3.3-3.7,5.3-5.1s.8-.4,1.2-.6h.3c0,.4-.1.7-.2.8-1.1,3.1-3.2,5.8-4.9,8.4-1.5,2.2-3.1,4.5-3.7,7-.2.8-.3,1.9.3,2.5.1.1.2.2.4.3.1.1.2.1.3.1h.2c.4,0,.8,0,1.2-.1.7-.2,1.2-.7,1.8-1,.8-.4,1.5-1,2.2-1.5.8-.7,1.5-1.3,2.2-2h.1c.5-.6,1.2-1,1.8-1.5.1-.1.2-.2.3-.3.2.1.3.1.5.1.4.1,1.1.1,1.5.3-1.1,1.2-2.3,2.1-3.3,3.3-1.2,1.3-2.3,3.2-1.4,5.1,1.5,2.9,5.8.3,7.7-.9.7-.4,1.2-1,1.9-1.4.3-.3.8-.7,1.1-1,.1-.4-.2-.9-.5-.7ZM94.6,99.5c-.1.1-.2.3-.3.4-1.1-.9-1-2.5.1-3.4.2-.2.8-.6,1.1-.2.3.3.2.9.1,1.2-.1.8-.5,1.4-1,2Z"></path><path class="st0" d="M85.1,79c-.1,0,0,.1,0,0h0Z"></path><path class="st0" d="M107.8,97.6c-.4-.2-1-.2-1.4-.2s-.9.1-1.3.2c-.3.1-.7.2-1,.4.3-.7.5-1.3.5-2-.1-1.1-1.3-1.8-2.4-1.5-1.3.3-1.8,1.7-1.9,2.9-.1.8-.1,1.5,0,2.2.1.6.2,1.1.2,1.7h0c-.1.3,0,.6.1.8.2.2.4.2.8.2h.1c.1,0,.2-.1.3-.1.2-.1.5-.1.8-.1.5-.1,1.1-.2,1.8-.3,1.1-.2,2.3-.6,3.2-1.3.9-.8,1.3-2.1.2-2.8Z"></path><path class="st0" d="M128.8,60.3c-1.1-2.4-3.8-4-6-5.3-2.6-1.5-5.2-3-7.9-4.3-5.4-2.6-10.9-5-16.6-6.7-5.5-1.8-11.4-3.3-17.2-3.2-.9,0-3,0-4.2.7-.2,0-.3,0-.5.1-1.6,1.8-3,4.2-4.2,6.3-1.3,2.2-2.6,4.4-3.8,6.6-4.4,7.7-8.2,15.7-11.3,24.1-1.6,4.5-3,9.2-4,14-.3,1.2-.5,2.5-.9,3.7-.5,2.8-.8,5.5-1,8.3-.5,9.6.5,18.9,2.6,28.3,1,4.6,2.2,9.1,2.9,13.9.1,2,.2,4.1.1,5.9-.1,3.9-.5,7.6-1.2,11.3-1.2,6.7-3.1,13.1-4.7,19.7-1.9,7.5-3.6,15-5.9,22.3-2.3,7.4-4.8,14.6-7.5,21.9-.8,2-1.5,4-2.3,5.9,0,.1-.1.1-.1.2-2.4,4.8-10.9,6.7-16.3,7.6-3.3.6-6.7.7-10.1.8-2.2.1-4.7.2-6.3,1.8-.2.2-.3.4-.4.7-2.4,1.2-2.3,4.4-1.2,6.6,1.3,2.9,3.6,5.2,5.9,7.2,4.6,3.7,9.9,6.7,15.3,9.1,5.6,2.5,11.4,4.3,17.5,5.3,5.8,1,12.1,1.3,18,.4,2.7-.4,5.6-1.1,7.9-2.5,1.8-1.2,3.1-3.2,2.7-5.3.2-.3.3-.6.3-.9.2-1.7-1.5-3.7-2.7-5-3.2-3.3-7.7-5.2-11.4-7.9-2.2-1.5-4.1-3.4-5.9-5.3-.9-1-1.8-2.1-2.5-3.2-.4-.7-1.5-2.4-2.1-3.9.5-2.8,1.5-5.3,2.3-7.9,3.8-13.1,7.6-26.2,11.9-39.2,2.1-6.5,4.4-13.1,6.9-19.5,1.1-3,2.4-5.7,4.3-8.4.9-1.3,2.1-2.4,3.2-3.5.3-.2.5-.6.9-.8,3.4-2.1,6.7-4.1,9.9-6.4,3.4-2.5,6.8-5.1,10-7.9,5.6-5,10.7-10.7,14.8-16.8,4.1-6.2,7.6-12.8,10.4-19.6,3.1-7.5,5.5-15.3,7.1-23.1.4-2.3,1-4.5,1.3-6.8.1-.1.1-.3.1-.4.2-1.5.5-3.1.8-4.6.7-4,1.3-8,1.2-12.1.2-1.2.2-1.7,0-2.2ZM68.8,57.3s0,0,0,0h-.1s0,0,.1,0ZM71,159.3c-.1.1-.2.2-.3.3-.1,0-.1.1-.2.1-1.1.6-2.2,1.7-3.2,3-2.1,2.9-3.1,6.5-4.3,9.8-5.1,13.3-9.1,26.9-13.2,40.6-2,6.9-4.1,13.9-6,20.8-.9,3.2-1.6,6.5-1.6,9.9s.3,6.6,1.1,9.8c.1.8,1.2.4,1.1-.2-.5-3.6-1.1-7.3-.9-10.9v-.4c.5,1.1,1.3,2.3,1.8,3,1.5,2.2,3.3,4.3,5.4,6.2,2,1.8,4.2,3.2,6.5,4.6,2.1,1.2,4.3,2.2,6.3,3.6,1.2.9,4,3.2,3.6,4.8-.1.1-.2.2-.2.4-.1.1-.2.3-.3.4-1.8,1.4-4.3,2.1-6.6,2.5-4.6.8-9.6.8-14.3.7-3.5-.2-7.1-.6-10.5-1.4,4.6,1.4,9.4,2.4,14,2.8,4.8.4,10.3.3,14.8-1.3,1-.3,2.2-.9,3.2-1.7-.7,2-3.5,3.2-5.4,3.9-2.9.9-5.9,1.2-9,1.3-10.5.3-21.1-2-30.5-6.3-4.7-2.2-9.1-5-13.2-8-2-1.5-4-3.2-5.4-5.3-.1-.2-.3-.4-.4-.7,4.7,5.9,12.5,10.6,19.7,13.3-3.6-1.7-6.9-4-10.2-6.4-.9-.7-1.9-1.4-2.7-2.1,3.1,2.1,6.5,4,9,5.1-5.1-3.2-10.5-7-13.8-11.6,1.1,1.2,2.2,2.4,3.4,3.6,3.5,3.2,7.8,5.9,12.1,8,3,1.4,6,2.6,9.1,3.6-4-1.5-7.8-3.6-11.5-5.8-4-2.4-7.6-5.3-11-8.3-1.3-1.1-4.6-3.4-4.4-5.4h.1c.3-.1.4-.6.3-.8,1.2-1.2,4.5-.8,5.9-.9,1.6,0,3.1-.3,4.7-.5-2.6.5-5.3,1-8,1.1,7.6,1.1,17.7-.1,23.3-4-2.9.8-5.8,1.3-8.8,1.8,1.6-.3,3.2-.7,4.8-1,2.4-.6,5.3-1.7,7.6-3.1-1.3,2.6-3,5.2-4.8,7.5-.2.2.2.6.4.3,6.3-4.7,8.8-12.7,11.3-19.7,5.3-14.8,9.8-29.9,13.7-45.1,1.8-6.7,3.7-14.9,4.3-21.8.5-4.7.3-9.7-.3-14.4,0-.3-.1-.7-.1-1,.8,1.4,1.8,2.8,2.5,4,1.8,2.5,4,4.7,7,5.7,3,1,6.3,1,9.2.2,1.3-.3,2.6-.8,3.8-1.3-3,2.1-5.9,4.2-8.9,6.3ZM90.6,138c-6.6-.2-13.2-1.4-19.7-2.6,5.7,1.7,11.3,3.7,17.2,4.7.4.1.9.1,1.2.2-3.2,0-6.4-.2-9.9-.6-3.8-.4-7.8-.8-11.4-2,3.4,1.5,7.1,2.3,10.8,3.2,2.5.7,5.2,1.2,7.8,1.5-6,0-12.1-.6-18.9-2.3,4.8,2,10.3,3.4,15.7,4.2-5.4-.2-11-.4-16-2.1,5.2,2.3,10.9,3.4,16.5,4.1-1.3.1-2.5.2-3.8.3-4.3.1-9.9-.6-14.5-2,4.2,2,8.7,3.2,13.3,3.7-4.4.3-8.8.2-13.4-1.2,3.8,1.8,7.9,2.6,12,3-4.1.3-8,.2-12-1.1,3,1.4,6.1,2.2,9.3,2.5-2.9.3-5.6.3-8.5-.8,2.1,1.3,4.6,1.9,7.1,2-1.9.2-3.8.1-5.7-.6-3.1-.9-5.3-3.1-6.9-5.8-.8-1.3-1.5-2.6-2.1-4-.5-1.1-1-2.3-1.8-3.4-.5-1.8-.9-3.7-1.3-5.8,1,.2,1.8.3,1.9.3l-2-.7c-.1-.4-.2-.9-.2-1.3,1.1.2,2.3.4,3.4.6-1.1-.3-2.3-.8-3.5-1.2-.1-.3-.1-.8-.2-1.1,1.8.6,3.4,1,5.2,1.3-1.9-.8-3.6-1.5-5.4-2.3,0-.2-.1-.3-.1-.6,2.5.7,5.1,1.3,7.7,1.8-2.6-1-5.3-2.1-7.9-3.2,0-.2-.1-.6-.1-.8,3.1,1.2,6.1,2.3,9.4,2.6-3.4-1.1-6.6-2.8-9.8-4.5v-.2c4,2,9.3,3.2,13.8,4.4,6.3,1.9,13,3.1,19.7,4.1.7.1,1.2.3,1.9.4-7.9-1-15.8-2.4-23.6-3.7,7.7,2.3,15.4,4.8,23.3,6.4-5.6-.3-11.9-1.1-16.3-2.5,6,2.3,12.4,4.1,18.9,5h-1.1ZM101.5,133.6c-1.3.3-2.9,0-4.1-.1-1.6-.1-3.3-.3-4.9-.7-3.2-.6-6.4-1-9.4-1.7h-.1c-4.9-1.1-9.8-2.2-14.5-3.4-.5-.2-.9-.3-1.4-.4,2.9.8,5.9,1.4,9,1.8-5.9-2.1-12-3.9-18-5.4,2.3,1.2,4.8,2.2,7.2,3-.3,0-.6-.2-.9-.3-3.2-1-6.4-2.1-9.3-3.7,1.3-.1,2.6-.2,4-.1,2.1.1,4.3.2,6.4.3,4.2.3,8.3,1,12.5,1.8,4,.8,8,1.7,11.7,3.1,2,.8,4,1.5,5.8,2.3.7.3,6.1,2.5,5.9,3.1v.3ZM123.7,88.1c-1.9,7.8-4.3,15.3-7.6,22.5-3.1,6.7-6.8,13-11.2,18.9-.9,1.2-1.8,2.3-2.7,3.5-.3-.9-2-1.3-2.5-1.7-1.6-.8-3.4-1.5-5.1-2.2-6.6-2.5-13.7-4.4-20.6-5.4-3.4-.6-6.9-.9-10.3-1.1-3.3-.2-6.6-.4-9.9-.8-.1-1.2-.3-2.4-.4-3.6-.4-4.7-.5-9.5-.2-14.2.7-4.8,1.3-9.7,2.4-14.4,2-8.5,5.1-16.8,9-24.7,1-1.9,2-3.9,3-5.7,4.6-.2,9.2-.1,13.8.4,8.5,1,16.7,3.3,24.5,6.8,3.7,1.7,7.2,3.7,10.8,5.9,3.3,2.2,6.4,4.7,8.8,7.7-.4,2.6-1,5.3-1.6,7.9ZM79.3,57.1c5.5.2,11.1,1,16.6,2.3-2.7-.9-5.5-1.7-8.2-2.3,6.5,1.1,12.8,3.1,18.9,5.7,3.7,1.7,7.4,3.6,10.8,5.8,2.9,1.8,6,3.9,8.2,6.5-2.1-2.3-4.9-4.1-7.4-5.8-6.1-4.1-13-6.9-20-9,6.5,2.5,12.7,5.6,18.4,9.5-4.3-2.6-9-4.7-13.7-6.4,4.3,2,8.8,4.3,12.8,7-3.3-2-6.9-3.7-10.5-5.3-4-1.8-8.1-3.1-12.3-4.2-5.8-1.5-11.7-2.4-17.8-2.9,6,0,12.2.7,18.2,2.1-4.5-1.5-9.2-2.6-14.1-3.1ZM125.6,79.1c-.8-1-1.6-2-2.5-2.9.9.8,1.8,1.7,2.5,2.5.1,0,0,.1,0,.3ZM126.1,74.8c-2.2-3.1-6-5.2-9.2-7.2-14.1-8.6-30.6-13-47.1-12.5.3-.4.5-1,.9-1.5,1.2-2.2,2.4-4.1,3.5-6.1.7-1.2,1.4-2.3,2.1-3.5.2.3.5.6.8.9,4.5,6.2,19.4,10.1,24.7,11.4-5.8-2.3-11.4-5.1-17-7.8-2.4-1.3-5.5-2.5-7.1-4.6-.1-.1-.2-.3-.2-.4-.3-.8.3-.9,1-1,2.5-.6,5.2-.3,7.7,0,4.9.6,9.9,1.9,14.6,3.4s9.3,3.2,13.7,5.4,4.4,2.3,6.3,3.7c1.9,1.3,3.8,2.8,5.4,4.5.3.4,1.2,1.1,1.2,1.8s-.7.8-1.1.9c-1.1.2-2.3.1-3.4.1-2.5-.1-4.9-.6-7.4-1.3-.1,0-.2.1-.1.2,3,1.3,5.9,2.3,9.2,2.5.9,0,2-.1,3-.4-.5,3.9-.8,7.7-1.3,11.6Z"></path><path class="st0" d="M29.7,265.4c.5.2.9.3,1.4.5,1.3.4,2.6.8,4,1.1-.2,0-.3,0-.5-.1-1.7-.5-3.3-1-4.9-1.5Z"></path><path class="st0" d="M59.3,170c1-6.5,2.1-13.3,1.1-19.9,0,7-2.3,13.9-3.8,20.8-2.1,7.9-4.8,19.2-6.8,28.5-.3,1.3-.7,3-.9,4.2.3-.8.7-1.7.9-2.4.5-1.3,1-2.6,1.5-3.9-4.2,13.9-7.8,27.8-11.5,41.2,2.7-6.9,5.7-13.9,8.2-20.8,2.3-6.3,4.1-12.7,6-18.9,3.4-11.8,7-23.6,9-35.7-1.5,5.6-3.6,11-5.7,16.4.8-3.3,1.5-6.4,2-9.5Z"></path><path class="st0" d="M20.1,258.6c4.1,2.6,8.1,5.3,12.7,6.8,8.3,2.8,17.6,3,26.1,1,.9-.2,1.9-.4,2.7-.8-1.6.1-3.5.2-4.8.2-12.4-.3-25.3-2.3-36.8-7.3Z"></path><path class="st0" d="M30.6,259.1c2.5,1.1,5.2,1.9,8,2.4-4.8-.6-9.5-1.2-13.7-2.7,10.5,5.8,23.3,7.7,35,4.6.3-.1.8-.2,1.1-.2-.9,0-1.6.1-2.4.1-6.3.1-12.6-.7-18.8-1.6,4.2.6,8.5.6,12.5-.2-3.2,0-6.4-.8-9.6-1-4.1-.4-8.1-.6-12.1-1.3Z"></path><path class="st0" d="M46.2,260.1c.8-.1,1.8-.2,2.5-.4h-.4c-2,0-4-.3-5.8-.4-2.6-.2-5.1-.2-7.5-.6,3.5,1.4,7.4,1.8,11.2,1.4Z"></path><path class="st0" d="M42.4,258.4c-1.5-.2-3.1-.3-4.6-.4,1.5.6,3.1.7,4.6.4Z"></path><path class="st0" d="M10.4,246.3c5.6.8,11.4-.2,16.4-2.8-5.4,1-10.9,2.2-16.4,2.8Z"></path><path class="st0" d="M15.1,247.4c3.2.3,6.8-.3,9.6-1.8-3.1.6-6.4,1.1-9.6,1.8Z"></path><path class="st0" d="M16.4,248.3c2.5.4,5.3-.3,7.6-1.1-2.5.2-5.1.8-7.6,1.1Z"></path><path class="st0" d="M74.6,125c2.5.6,4.9,1.5,7.4,2.4.4.1.9.2,1.3.4-2-.7-4-1.2-6-1.5,2,.9,4.1,1.8,6,2.4-1.1-.3-2.3-.7-3.4-1,2.7,1.5,5.9,2.3,9,3-.8-.4-1.6-.7-2.5-1,1.4.4,2.7.7,4.1,1.1-2.3-1.1-4.7-2.1-7.2-2.9,2.9.9,5.4,1.4,8.5,2.1-5.5-2.9-10.9-4.6-17.1-5.1Z"></path><path class="st0" d="M61.5,123.8c4.2,2.3,9,3.3,13.5,4.1-2.5-.8-5.2-1.8-7.8-2.5-2-.6-3.8-.9-5.7-1.5Z"></path><path class="st0" d="M65,124.3c2.7,1.2,5.7,1.9,8.7,2.3-2.9-1-5.7-1.8-8.7-2.3Z"></path><path class="st0" d="M59.6,76.7c-2.3,5.9-3.4,12.3-4.5,18.5-.1.9-.3,1.9-.4,2.6.2-.6.3-1.1.4-1.7,3.5-11.9,7.2-23.8,13.1-34.7-3.5,4.7-6.4,9.8-8.6,15.2Z"></path><path class="st0" d="M56.3,95.7c3.6-9.2,6.4-18.8,10-28.1-5.4,8.4-8,18.4-10,28.1Z"></path><path class="st0" d="M60.5,87.7c1.6-4.3,3.3-8.6,4.5-13-2.1,4.2-3.5,8.6-4.5,13Z"></path><path class="st0" d="M107.7,122.4c4.8-6.2,8.6-13.2,11.2-20.6,2.3-6.7,3.3-13.8,4.5-20.8.1-.7.2-1.4.3-2.2-.3,1.1-.7,2.2-.9,3.3-4.2,13.8-7.9,28-15.2,40.3Z"></path><path class="st0" d="M115.8,97.8c-1.6,5-3,10-4.8,15,4.8-8.4,8.2-18.9,8.9-28.1-1,4.4-2.7,8.7-4.1,13.1Z"></path><path class="st0" d="M113.7,101.9c1.4-3.4,2.4-6.9,3.1-10.6-1.4,3.4-2.4,6.9-3.1,10.6Z"></path><path class="st0" d="M113.8,97.5c.5-1.4,1-3.1,1.2-4.5-.5,1.4-.9,2.9-1.2,4.5Z"></path></svg>