<svg xmlns="http://www.w3.org/2000/svg" xmlns:xlink="http://www.w3.org/1999/xlink" id="anillos" viewBox="0 0 240 162"><defs><style> .st0 { fill: #a89180; } </style></defs><path class="st0" d="M239.3,97.7c0-.4,0-.8-.1-1.2-1.5-11.3-5.5-22.2-11.1-32.1-1.6-2.9-3.4-5.7-5.2-8.4-1.8-3.2-3.7-6.3-5.8-9.2-6.5-9.2-14.2-17.5-22.7-24.9-4.2-3.7-8.8-7.1-13.5-10.2-4.8-3.1-10-5.5-15.3-7.8,0,0-.1,0-.2,0-1.7-.7-3.4-1.2-5.1-1.7C155.7.8,151,0,146.3,0c-1.9,0-3.7.2-5.4.5-7.7.3-15.1,4.9-20.4,10.2-9.1,9.2-12.6,21.9-12.9,34.5-9.6.5-19.1,1.8-28.5,4.2-11.8,2.9-23.1,7.2-33.9,12.8,0,0,0,0,0,0-3.9,1.5-7.6,3.8-11.2,5.9-3.7,2.1-14.3,8.6-17.6,11.3-5.4,4.7-10.1,10.2-12.9,16.8-2.7,6.3-3.9,13.3-3.3,20.2.5,6.6,2.7,12.9,6.1,18.6,0,0,0,0,0,.1,2.6,4.5,5.7,8.6,9.7,12,9.2,7.9,21.2,12.7,33.8,14.3,10.8,1.3,22.1.8,32.8-2.2,7.1-1.7,14.3-3.4,21.2-5.9,6.6-2.3,12.9-5.2,19.1-8.5,6.2-3.3,12.2-6.9,17.8-11,2-1.4,3.9-3,5.8-4.6,3.5,3.3,7.3,6.1,11.2,8.8,4,2.7,8,5.4,12.3,7.7,5,2.8,10.6,5.3,16.4,6.4,5.9,2,12.4,2.1,18.5.8,14-2.9,25.3-13.1,31-26.1,4-9.2,4.9-19.3,3.4-29ZM164.5,63.8c-6-10.9-17.8-19.4-30.5-19.9-.1,0-.3,0-.4,0,0,0,0-.1,0-.2-.5-3.2-1-6.3-1.4-9.5-.1-1.1-.3-2.1-.5-3.2,0-2.6.4-5.1,1.7-7,.3-.4.7-.8,1.2-1.1,3.9-.8,7.9-.5,11.9.7,5.2,1.5,10,4.2,14.6,6.9,16.5,9.8,30.4,23.8,40.3,40.2,5,8.3,9,17.1,11.8,26.4,2.9,9.6,5.9,21.6,0,30.7,0,.2-.2.3-.2.5-.6-.1-1.3-.3-1.9-.4-5.7-1.3-11.3-3.2-16.7-5.6-10.5-4.7-20.3-11.5-28.1-20.1.2-.7.5-1.3.7-2,4-12,3.5-25.3-2.6-36.5ZM150.3,81.8c-2.3-2.4-4.3-4.9-6.1-7.8,0,0,0,0,0,0,.9.6,1.9,1.1,2.8,1.7,1.6,1,3.1,2,4.6,3.2,0,0,0,0,0,0-.4,1-.8,2-1.2,2.9ZM232.6,80.4c-3.2-7.9-7.5-15.3-12.8-21.9,7.1,10.9,11.3,23.2,13.5,36.2-2.3-7.2-5.3-14.1-8.9-20.7,3.1,7.3,4.8,15,5.9,22.8.1,1,.5,3.3.7,6-.1-.6-.2-1.2-.3-1.8-2.3-12.2-8.3-23.3-14.6-33.9,3.3,7.4,6.5,14.8,8.5,22.8,1,4.2,1.7,9,2.1,13.6-2.7-10.5-7.6-20.5-13.5-29.5,5.1,9.7,8.5,20.7,9.8,30.9-4.1-16.3-14.9-33.3-23.2-44.3,4.5,7.2,8.8,16.1,12,25.1-6.6-15.8-16.6-30.2-29.2-41.9-6.6-6.1-13.9-11.7-21.7-16.1,11.6,5.6,24.4,14.4,33.6,24.2-5.7-7.8-12.7-14.5-20.1-20.7-5.5-4.7-11.4-9.1-18.1-12.2,11.7,4.1,25.6,13.8,36.4,24.2-5.5-6.2-11.5-13.1-18.1-18.9,4.3,3.1,7.9,6,12.3,9.5,8.9,7,17.4,14.7,24.6,23.6-8.3-12.8-19.1-23.8-30-34.3,12.2,8.2,23,17.6,33.3,29.5-6.2-9-12.9-18.1-20.6-26,3,2.5,6,5,8.8,7.7,3.3,3.1,6.3,6.4,9.2,9.8,5.7,7.5,10.9,15.4,15.1,23.7,2.1,4,3.9,8.2,5.4,12.4ZM230.7,124.8c-1.3,1.3-2.9,2.3-4.7,3.1-1.3.6-2.7.9-4.1,1.1.9-.3,1.8-.5,2.5-.8,2.3-.9,4.2-2.2,6.3-3.3ZM112.1,29.5c2.1-7,5.8-13.4,11-18.5,2.6-2.5,5.7-4.7,8.9-6.4,2.7-1.3,5.4-2.2,8.3-2.8,2.7-.1,5.5,0,8.2.2,9,.7,17.7,3.5,25.5,8,1.8,1.2,3.6,2.5,5.3,3.7-3.8-2.2-7.7-4.3-11.8-5.9-5.9-2.3-12.4-3.8-18.8-3-5.4.7-10.8,3.1-14.7,7-3.9,3.8-5.6,8.6-5.7,13.8-.4,1.9-.6,3.8-.6,5.7.3,6.9,1.9,13.7,4.6,20-1.2-4.1-1.8-9.5-2.2-12.1-.2-1.2-.4-2.5-.5-3.8.2.9.4,1.9.6,2.8.6,2.8,1.2,5.5,1.8,8.3,0,0,0,.2,0,.2.1.5.2,1.1.4,1.6,2.9,12.7,7.3,25.4,16,35.3.2.2.4.3.6.4-.6,1-1.2,2-1.9,3-1.2,1.6-2.5,3.1-3.9,4.5-1.3-1-2.6-2.1-3.9-3.4.9,1.3,2.1,2.7,3.2,4-.2.2-.5.5-.7.7-3.1-3-6.3-5.9-9-9.2,2.3,3.6,4.8,7.2,7.6,10.5-.1.1-.3.2-.4.3-1.9-2.1-3.7-4.3-5.3-6.2-2.4-3.1-8.8-12.3-11.7-18.1,3.5,8.9,7.4,17.8,13,25.6.3.4.6.8,1,1.2,0,0-.2.1-.2.2-1.6-1.9-2.9-3.7-3.8-5-7-9.8-12.7-20.6-17-31.6,4,13.9,9,27.5,17.3,39.1,0,0,0,0,0,0-3.5-5.1-6.9-10.2-9.8-15.7-6.4-12.1-11.2-25.9-11.8-40.4-1.5,20.6,6.2,42.3,17.9,58.5,0,0,0,0,0,0-.4.2-.7.3-1.1.5-2.9-4.1-5.6-8.2-7.9-12.7-2.2-4.3-4-8.7-5.6-13.3-1-2.9-1.8-5.8-2.5-8.8,0,0,0,0,.1,0-.1-.3-.2-.6-.3-.8-1.1-4.9-1.8-9.9-2.2-14.9-.5-7.5,0-15.2,2.1-22.5ZM110.2,112.2c-5.2,2.4-10.4,4.7-15.8,6.7-9.6,3.5-19.4,6-29.5,7.3-9.9,1.3-20.1,1.8-29.9.2-4.1-.7-8.3-1.8-12-3.6,2.2-4.3,4.5-8.3,7-12.1,1.2-1.5,2.5-3,3.8-4.4,9.6-10.2,22.1-17.9,34.8-23.6,13.6-6.1,28-9.8,42.7-11.4.8,2.8,1.7,5.6,2.7,8.3,3.1,8.4,7.2,16.6,12.2,24-4.1,2.1-8.2,4.5-12.2,6.7-.9.5-1.8,1-2.7,1.4-.4.2-.8.3-1.1.5ZM107.6,47.6c0,.3,0,.6,0,1-2.8.5-5.6,1-8.4,1.5,3.1-.2,5.9-.3,8.5-.3,0,.9,0,1.8.2,2.7-4.3.9-8.4,1.9-12.5,3.2,4.2-.8,8.5-1.2,12.6-1.5.1,1,.2,2,.4,3.1-5.9,1-11.8,2.2-17.5,4,6-1,12-1.6,17.9-1.9,0,.5.1,1,.2,1.4-12,1.4-23.7,4.5-33.3,8.8,11.2-3.8,22.4-5.1,34-5.2,0,0,0,.1,0,.2-9.3,1.2-18.5,3.5-26.4,6.2,8.9-1.9,18.1-2.9,27.1-3,0,.4.2.7.3,1.1-8.2.7-16.3,2.3-24.3,4.5-13,3.7-25.6,9.3-36.9,16.7,8.6-6.5,18.5-12.2,28.9-16.9-15.3,5-30.7,11.5-43.2,21.8-8.5,7.3-13.9,16-17.7,24.5,0,0-.2-.1-.3-.2,1.6-3.4,3.5-7.1,6.6-11.9,8.1-12.1,23.7-24,39.4-31.4-14.8,5.6-28.7,11.9-39.3,22.3,7.3-7.9,18.4-16.5,29.2-21.2-7.3,2.5-14.6,5.6-21.3,9.6,0,0,0,0,0,0,8.8-7,23-15.9,35.7-20.1-12.9,3.1-27.9,9.7-39.7,16.7,9.2-7.1,21.2-14.2,32.7-19.5-8.2,2.7-16.8,5.8-24.9,9.6,1.7-1.1,3.4-2.2,5.2-3.2,4.2-2.5,8.3-5.1,12.9-6.5-5.2.9-10,3.4-14.8,5.6-2.6,1.3-5.3,2.6-7.9,3.9,2-1.3,4-2.6,6.1-3.9,7.2-4.3,14.8-8,22.6-11.1,15.2-6.1,31.5-9.7,47.9-10.7ZM133.4,136.1c-5.7,3.7-11.8,6.5-18.1,9.2-6.1,2.7-12.3,5-18.5,7.3-5.9,2.1-11.9,3.9-18.1,5.2-3.6.6-7.3,1.1-10.9,1.4-12.9,1.3-25.9-.3-37.3-5.5-5.7-2.6-11.1-6-15.8-10.1-3.1-3.5-5.8-7.4-7.8-11.5-5.8-11.8-6.5-26.1-.3-37.8,3.3-6.2,8.4-11.4,13.9-15.7.3-.2.6-.5,1-.7-5.1,4.7-9.4,10.3-12,16.6-4.1,6.7-3.2,15.1,1.3,21.6,2.6,3.6,6,6.4,10,8.5,0,.2.3.4.5.2,4.3,2.2,9.1,3.5,14,4.1,5.1.7,10.2.7,15.4.5,5.4-.2,10.7-.6,16.1-1.4,10.6-1.5,21.1-4.2,31.1-8,2.5-.9,5-2,7.5-3.1,2.3-1.1,4.8-2.1,6.9-3.5.9-.4,1.7-.8,2.6-1.2,4.1-2,8.3-4.1,12.1-6.7,3.8-1.9,7.4-4,10.9-6.4,9.9-7.1,18.1-17.9,17.6-30.6-.2-5.5-2.2-11.1-6-15.2-2.5-2.7-5.6-4.7-8.9-6.1,11.4,2.6,20.5,11.6,24.1,22.9,3.8,12,1.8,24.9-3.4,36-5.9,12.6-16.2,22.4-27.8,29.8ZM220.1,143.5c-10.7,7.7-24.2,9.2-36.6,5.2-.2,0-.3,0-.5,0-4.2-1.5-8.2-3.5-12.1-5.7-4.1-2.3-8.2-4.9-12.2-7.4-3.7-2.4-7.2-5-10.4-8,.2-.2.5-.4.7-.6,13.8,11.8,36.3,24.1,53.9,21.2-17.1,1.4-38.4-13-51.1-23.9.1-.1.3-.3.4-.4,1.5,1.3,3,2.6,4.6,3.8,9.4,7.1,19.7,13.4,31.1,16.5-12.9-5.2-23.5-13.3-33.3-22.9,0,0,.2-.2.3-.3,6.5,6.2,13.9,11.4,22.1,15.1-7.8-4.5-14.1-10.3-20.1-17.1,0,0-.1-.1-.2-.2.3-.3.5-.7.8-1,4.3,4.6,9.2,8.7,14.6,12-5.2-4.1-9.3-9.1-13-14.2.1-.2.2-.3.4-.5,2.9,3.3,6,6.4,9.7,8.8-3.5-3.2-6.1-6.7-8.6-10.3.3-.5.6-.9.9-1.4,1.7,2.2,3.5,4.3,5.7,6.1-1.9-2.2-3.4-4.7-5-7.2,1.1-1.9,2.2-3.8,3.1-5.8,9.4,9.4,20.2,16.9,32.6,21.8,5.4,2.1,11.1,3.9,16.9,4.7,5.4.7,11,.2,15.6-3,2.1-1.5,3.8-3.3,5.1-5.4-3.1,8-8.2,15.1-15.2,20.2Z"></path><path class="st0" d="M144.5,110.5c-.8-1.2-1.8-2.4-3.1-3-1.4-.6-3-.6-4.5-.8-1.3-.1-2.7-.4-4,0-1.3.4-1.9,2.1-2.4,3.2-.3.8-.7,1.5-1,2.3,0,.3-.2.7-.2,1s0,.4-.2.7c-.3,1.3.5,2.9,1,4.1.5,1.2,1.4,2.3,2.3,3.1,1,.8,2.2,1.4,3.4,1.8,1.5.5,5.4,1.7,5.8,1.5,1-.7,4.2-6.3,5-8.1.3-.6.4-1.2,0-1.7-1-1.2-1.4-2.8-2.2-4.1ZM143.1,113c.2.6.6,1.2.9,1.8-.3,0-.6,0-.8-.1-.1,0-.3,0-.4,0-.2,0-.4,0-.6,0-.1,0-.3.1-.4.2-.3-.5-.7-1-1-1.4-.3-.5-.6-.9-1-1.3,0,0,0,0,0,0,.3-.2.5-.4.8-.6.4-.4.8-.7,1.3-1.1.6.7.9,1.8,1.2,2.6ZM138.9,118.4c-.3,0-.6,0-.9-.2-.4-.2-.8-.5-1.2-.7-.8-.8-1.4-1.8-1.5-2.9,0-.6.2-1.1.4-1.7.2-.4.4-.8.5-1.2,0,0,.2,0,.3,0,.2,0,.4.1.6.2.4,0,.7.2,1.1.4.7.4,1.3.9,1.7,1.7.2.4.4.8.7,1.2,0,.1.2.3.2.4s0,.3-.2.4c-.5.8-1,1.6-1.6,2.3ZM137.8,108.9c.8.1,1.7.2,2.6.5-.3.3-.6.5-.9.8-.2.2-.4.4-.6.6,0,0-.2.2-.3.3,0,0,0,.1-.1.2-.4-.2-.8-.3-1.2-.4-.3,0-.5,0-.8,0,0,0-.2,0-.3,0,0-.2-.1-.4-.2-.6,0-.2-.2-.4-.3-.6l-.6-1.1c.2,0,.4,0,.6.1l2.1.4ZM132.4,111.5c.3-.6.5-1.2.8-1.8,0,0,0-.2.1-.4.2.3.3.7.5,1,.1.2.2.4.3.7,0,.2.2.4.3.5l.2.3c0,.1.2.2.3.3,0,0,0,0,0,0-.1.3-.3.6-.5.9,0,.1-.1.2-.1.3,0,0-.1,0-.2,0-.1,0-.2,0-.3-.1-.1,0-.2,0-.3,0-.1,0-.3,0-.4,0-.5,0-.9,0-1.4.2.3-.5.5-1.2.7-1.7ZM131.9,115.1c.2,0,.5,0,.7-.1.2,0,.4,0,.7,0,0,0-.2,0-.2,0,.1,0,.2,0,.3,0,.2,0,.3,0,.5,0t0,0s0,0,0,0c0,.1,0,.2,0,.3.2,1.3.9,2.5,1.8,3.5,0,0,0,0,0,0-.2.2-.5.3-.7.5-.3.3-.6.6-.9.9-.5-.6-.8-1.2-1.1-2-.4-1-.8-2-1.2-3ZM136.1,120.9c.2-.2.3-.4.5-.6.2-.2.3-.5.4-.7.1,0,.3.1.4.2.5.2,1.1.3,1.6.3,0,0,0,0,0,.1v.7c.1.2.2.5.3.7,0,.1,0,.3.1.4-.6-.2-1.2-.5-1.8-.7-.5-.2-1.1-.4-1.6-.6ZM141.1,121.2c0-.3-.2-.6-.3-.8,0-.2-.2-.4-.3-.7,0,0-.1-.2-.2-.2.3-.5.6-1,.9-1.5.3-.5.7-1,.8-1.6,0,0,0-.1,0-.2,0,0,0,0,0,0,.3,0,.7,0,.9.1.2,0,.4,0,.6,0-.5.9-.9,1.9-1.4,2.8-.4.7-.8,1.4-1.2,2Z"></path><path class="st0" d="M107.7,118.3c-11.3,5.2-23.7,7.7-35.9,9.9-12.8,2.2-28,3.2-42.6,1.7-2.6-.2-5.8-.6-8.1-.8,2.4.7,4.9,1.3,7.3,1.9,27.1,7.3,55.7,2,79.4-12.7Z"></path><path class="st0" d="M71.9,134.6c-12.1,1.6-28.2,2.4-42,.5,14.2,3.9,29.3,5.5,43.9,2.8,9.1-1.9,17.2-5.7,25.4-9.1,2.8-1.2,6-2.5,8.6-3.7-2.5.7-4.9,1.5-7.4,2.2-9.5,2.4-18.7,5.7-28.4,7.3Z"></path><path class="st0" d="M66.9,140.1c-8,.8-16,1.7-24,1.7,18.7,3.7,38.3,1.7,55.9-6.6,1-.4,2.2-.9,3.2-1.4-1.1.3-2.2.6-3.2.9-11.9,3-20.6,4.2-31.8,5.4Z"></path><path class="st0" d="M74.8,146.4c6-.8,16-3.6,19.7-4.9-12.9,2.1-26.6,3.5-40.6,4.9,6.9.7,13.9,1,20.9,0Z"></path><path class="st0" d="M62.4,150.4c9.5.7,19.3-1,28.1-4.1-5.1,1.1-9.8,1.5-14.6,2.2-3.7.5-9.4,1.5-13.6,2Z"></path><path class="st0" d="M67.5,152.5c6.8.9,14.1-.6,20.3-2.7-4.3.9-8.4,1.1-12.8,1.8-2.8.4-4.7.8-7.5.9Z"></path><path class="st0" d="M82.8,153.6c-4.1.3-8.2.9-12.3,1.6,4.1.2,8.4-.6,12.3-1.6Z"></path><path class="st0" d="M204,129.9c-5.3-1.7-10.8-3.3-15.8-5.6,10.1,6.7,22.3,11.6,34.6,10,.4,0,.9,0,1.3-.1-1.4,0-2.8-.2-4.1-.3-5-.5-10.8-2.2-16-3.9Z"></path><path class="st0" d="M216.7,137.5c-4.9-1.5-9.9-2.7-14.7-4.5,4.3,3,9.6,4.1,14.7,4.5Z"></path><path class="st0" d="M210.2,138.7c-1-.3-2-.5-3.1-.8.9.5,2.2.8,3.1.8Z"></path><path class="st0" d="M160.4,67.7c0-.6.2-1.4.2-2-.3,1.3-.7,2.5-1.2,3.7-2.2,6.6-4.4,11.9-8.1,18-3.3,5.3-5.7,9.1-10.5,13.2,12-6.5,18.2-19.9,19.5-32.9Z"></path><path class="st0" d="M149.5,96.8c5.3-3.9,8.8-10.4,10.6-16.3-1.8,3.8-4.4,7.1-6.5,10.7-1.3,2.2-2.5,3.9-4.1,5.7Z"></path><path class="st0" d="M158.5,90.1c-1,1.4-1.9,2.8-3,4.1,1.4-1,2.3-2.6,3-4.1Z"></path></svg>