<svg xmlns="http://www.w3.org/2000/svg" xmlns:xlink="http://www.w3.org/1999/xlink" id="Capa_1" x="0px" y="0px" viewBox="0 0 115 115" style="enable-background:new 0 0 115 115;" xml:space="preserve"> <g fill="#ddd1c8"> <path d="M72.6,57.8c-0.3-0.4-0.6-0.8-0.9-1.3c-2.5-3.6-4.3-7.4-5.1-11.8c-0.4-2-0.7-4-1.1-6c-0.4-2-0.7-3.9-1.1-5.9 c-0.4-1.9-1.3-3.7-2.4-5.4c-0.5-0.8-1.2-1.5-2-2c-0.2-0.2-0.4-0.3-0.6-0.5c-0.4-0.4-0.5-0.8-0.2-1.3c0.3-0.5,0.6-0.7,1.3-0.5 c1.3,0.4,2.7,0.8,4,1.2c1.7,0.6,3.4,1.5,5,2.4c2.2,1.2,4.2,2.6,5.9,4.4c2.1,2.2,3.7,4.7,4.7,7.7c0.9,2.6,0.9,5.2,0.1,7.8 c-0.3,0.9-0.6,1.9-1,2.8c-0.6,1.6-1.1,3.2-1.3,4.9c-0.2,1.4-0.1,2.8,0.3,4.1c0.3,1,0.8,2,1.5,2.7c0.7,0.7,1.4,1.4,2.3,1.9 c1.4,0.9,2.7,1.9,4.1,2.9c3,2.3,5.9,4.8,8.5,7.5c6.6,6.8,12,14.4,16,22.9c0.2,0.5,0.4,0.9,0.6,1.4c0.1,0.3,0.1,0.6,0.1,0.9 c0,0.4-0.3,0.6-0.6,0.7c-0.4,0.1-0.8-0.1-1-0.5c-0.3-0.6-0.5-1.1-0.8-1.7c-0.6-1.2-1.3-2.5-2-3.7c-2.4-4.5-5.3-8.7-8.4-12.7 C98,80.3,97.6,80,97,80c-0.6-0.1-1.2-0.1-1.8-0.1c-0.7,0.1-1.3,0.3-2,0.5c-1.4,0.5-2.7,1.2-4,2c-1.2,0.8-2.4,1.6-3.7,2.3 c-6.3,3.8-13.1,5.5-20.4,5.4c-2.1,0-4.1-0.4-6.1-0.9c-4.2-1.1-8.1-3-11.7-5.3c-1.4-0.9-2.8-1.9-4.1-2.8c-0.6-0.4-1.3-0.9-2-1.3 c-0.5-0.3-0.7-0.6-0.6-1.3c0-0.2,0.1-0.3,0.1-0.5c0.1-0.5,0.4-0.7,0.8-0.8c0.2,0,0.5-0.1,0.7-0.1c0.8-0.1,1.7-0.1,2.5-0.2 c1.9-0.1,3.8-0.5,5.6-1c2.2-0.6,4.3-1.6,6.2-2.7c1.5-0.8,2.9-1.6,4.3-2.4c2.2-1.2,4.5-2.3,7-3.1c4.1-1.4,8.3-1.7,12.5-0.7 c1.9,0.4,3.8,1.1,5.5,2c0.3,0.2,0.6,0.4,1,0.4c0-0.1,0-0.2-0.1-0.2c-2.4-2-4.9-3.9-7.6-5.5c-1.9-1.2-4-2.2-6-3.2 c-1.7-0.9-3.5-1.6-5.3-2.3c-3.6-1.4-7.4-2.4-11.2-3.1c-5.2-0.9-10.5-1.5-15.8-2.1c-0.2,0-0.5,0-0.7-0.1c-0.3,0-0.6-0.2-0.7-0.5 c-0.2-0.6,0.1-1.2,0.7-1.3c0.4-0.1,0.8,0,1.2,0c4.3,0.5,8.7,1,13,1.7c5.9,0.8,11.6,2.3,17,4.8c0.3,0.1,0.6,0.2,0.9,0.3 C72.6,57.8,72.6,57.8,72.6,57.8z M46.5,78.9c0,0,0,0.1,0,0.1c0,0,0.1,0,0.1-0.1c0.1,0.1,0.2,0.1,0.4,0.2c2.5,0.4,4.9,0.7,7.4,0.3 c2.3-0.3,4.5-0.8,6.7-1.4c3-0.8,5.9-1.7,8.9-2.5c3.3-0.9,6.6-1.5,10-1.8c3.9-0.3,7.7,0.2,11.4,1.5c0.3,0.1,0.6,0.2,1,0.3 c0-0.2-0.1-0.3-0.2-0.4c-2-1.5-4.1-2.8-6.3-4c-4.1-2.1-8.5-3.1-13.2-2.4c-2,0.3-4,0.8-5.9,1.6c-2.2,0.9-4.3,2-6.4,3.1 c-1.6,0.9-3.1,1.8-4.7,2.6c-2.6,1.3-5.3,2.2-8.2,2.6c-0.3,0-0.6,0-0.8,0.3C46.6,79,46.6,79,46.5,78.9z M91.9,77.4 c-1.4-0.5-2.8-0.9-4.2-1.3c-2.3-0.6-4.6-0.7-7-0.6c-3,0.2-5.9,0.7-8.8,1.5c-2.9,0.8-5.8,1.6-8.6,2.4c-2.3,0.7-4.6,1.3-6.9,1.7 c-2.4,0.4-4.7,0.6-7.1,0.3c-0.6-0.1-1.2-0.2-1.8-0.2c-0.2,0-0.4,0-0.6,0c0.1,0.4,0.3,0.5,0.6,0.6c1.2,0.7,2.3,1.4,3.5,2.1 c2.2,1.2,4.4,2.2,6.8,3c2.9,0.9,5.8,1.4,8.8,1.4c6.8-0.1,13.1-1.9,18.9-5.6c0.8-0.5,1.7-1.1,2.5-1.6c1.7-1.1,3.4-2,5.3-2.6 c0.1,0,0.2-0.1,0.5-0.2C92.9,77.8,92.4,77.6,91.9,77.4z M75.8,55.4c0.1-2.2,0.6-4.3,1.4-6.3c0.4-1,0.7-1.9,1-2.9 c0.8-2.3,0.8-4.7,0-7c-1.3-3.5-3.4-6.4-6.4-8.6c-1.3-1-2.8-1.9-4.2-2.7c-0.1-0.1-0.2-0.1-0.4-0.2c-0.2,0.2,0,0.3,0.1,0.4 c1.7,1.8,3,3.9,3.9,6.1c0.8,1.9,1.2,3.8,1.5,5.8c0.1,1.3,0.3,2.6,0.3,3.9c0.3,3.6,0.8,7.2,2.1,10.7c0.1,0.3,0.2,0.6,0.3,0.9 c0,0.1,0.1,0.1,0.2,0.3C75.7,55.6,75.8,55.5,75.8,55.4z M65.2,29.2c1,2.2,1.5,4.5,1.9,6.8c0.5,3.1,1,6.2,1.6,9.2 c0.7,3.4,2.2,6.5,4.1,9.4c0.1,0.1,0.1,0.2,0.2,0.2c0.2-0.1,0.1-0.3,0-0.4c-1.1-3.3-1.6-6.8-1.9-10.3c-0.1-1.5-0.2-2.9-0.4-4.3 c-0.5-4.1-2.3-7.6-5.1-10.6c-0.1-0.1-0.2-0.2-0.4-0.3C65.2,29,65.2,29.1,65.2,29.2z"></path> <path d="M13.8,59.6c4.3,2.3,8.9,2.6,13.5,1.6c3.8-0.9,7.1-2.7,10.1-5.3c1-0.9,1.9-2,2.7-3.1c0.1-0.1,0.2-0.3,0.3-0.5 c-0.2,0-0.3,0-0.5,0c1-0.9,1.9-1.8,2.6-2.9c2.3-3.2,3.8-6.7,4.2-10.6c0.6-4.8-0.2-9.3-2.9-13.3c-1.1-1.7-2.6-3.1-4.2-4.3 c-0.8-0.6-1.5-1.1-2.3-1.7c-0.4-0.4-0.8-0.4-1.3-0.1c-2.3,1.2-4.4,2.8-6,5c-1.1,1.5-1.9,3.1-2.5,4.9c0,0.1-0.1,0.2-0.2,0.4 c0,0-0.1,0-0.1,0.1c-0.1,0-0.3,0-0.5-0.1c-3.2-0.9-6.4-0.8-9.6-0.3c-0.8,0.1-1.3,0.5-1.6,1.3c-1.2,2.8-1.4,5.6-0.7,8.6 c0.3,1.3,0.8,2.4,1.3,3.6c0,0.1,0,0.1-0.1,0.1C16,42.9,15.9,43,15.8,43c-1.7,0.7-3.2,1.7-4.6,3c-2,1.8-3.3,4-4.3,6.4 c-0.2,0.5-0.1,0.9,0.3,1.3c0.7,0.7,1.3,1.4,1.9,2.1C10.4,57.3,12,58.6,13.8,59.6z M24.4,51.9c0.1,0,0.2,0,0.4,0 c2.1,1.2,4.4,1.9,6.9,2.1c-0.7,0.4-2.4,0.8-4.7,1.2c-1.7,0.3-3.4,0.4-5.2,0.4c-1.7,0-3.4-0.2-5-0.6c-1.9-0.4-4.2-1.2-5-1.6 c0.3-0.1,0.4-0.1,0.6-0.1C16.4,52.6,20.4,52.2,24.4,51.9z M11.7,51.1c1.7-1.1,3.5-2,5.5-2.4c0.8-0.2,1.6-0.2,2.4-0.3 c0.4,0,0.6,0.1,0.9,0.3c0.5,0.4,1,0.8,1.4,1.3c-0.1,0.1-0.1,0.1-0.2,0.1c-3.4,0.4-6.7,0.8-10.1,1.2c-0.1,0-0.1,0-0.2-0.1 C11.6,51.2,11.6,51.1,11.7,51.1z M17.1,44.7c0.6,0.7,0.8,1,1.1,1.8c-2.5,0.3-4.8,1.2-7.1,2.6C12,47.4,15.4,45,17.1,44.7z M16.6,34.4c0,0.1,0,0.2,0,0.2c0.1,0.1,0.2,0.2,0.2,0.3c1,3.5,2.9,6.6,5.2,9.3c2.6,3.1,6,5.2,9.6,6.8c0.3,0.1,0.6,0.2,0.8,0.4 c0.3,0.1,0.5,0.2,0.8,0.4C33.1,52,33,52,32.9,52c-1.5,0-2.9-0.1-4.3-0.6c-2.1-0.7-3.9-1.7-5.6-3.1c-2.4-2-4.3-4.5-5.5-7.4 c-0.7-1.6-1.1-3.4-1.1-5.1c0-0.4-0.1-0.7,0.2-1.1C16.5,34.6,16.5,34.5,16.6,34.4C16.5,34.4,16.6,34.4,16.6,34.4z M33.1,24 c-1.2,2.4-1.8,4.8-1.8,7.3c-0.8-0.2-1.2-0.4-1.9-0.9C29.5,28.6,31.5,25,33.1,24z M35.4,24.1c0.1,0.1,0.1,0.1,0.1,0.2 c-0.1,3.4-0.1,6.8-0.2,10.1c0,0.1-0.1,0.1-0.1,0.2c-0.5-0.4-0.9-0.9-1.4-1.3c-0.3-0.2-0.4-0.5-0.4-0.9c0-0.8-0.1-1.6,0-2.4 c0.2-2.1,0.9-4,1.8-5.8C35.2,24.2,35.3,24.2,35.4,24.1z M37.5,24.1c0.5,0.8,1.5,3,2.1,4.8c0.5,1.6,0.9,3.3,1.1,5 c0.2,1.7,0.2,3.5,0.1,5.2c-0.1,2.6-0.4,4.4-0.8,5c0-0.1-0.1-0.3-0.1-0.4c-0.5-2-1.2-4-2.3-5.7c-0.2-0.3-0.3-0.7-0.3-1.1 c-0.1-4-0.1-8.1,0.1-12.1C37.4,24.6,37.4,24.4,37.5,24.1z M41.3,47.6C41.3,47.6,41.2,47.5,41.3,47.6c0-0.3,0.1-0.6,0.2-0.9 c1.1-3.7,1.5-7.5,1.3-11.4c-0.1-3-0.8-6-2-8.8c-0.3-0.7-0.6-1.4-0.9-2.2c-0.1-0.1-0.1-0.3-0.1-0.5c0.1,0,0.2,0,0.3,0.1 c0.1,0.1,0.2,0.2,0.3,0.3c1.7,1.6,2.9,3.6,3.7,5.8c1.2,3.3,1.4,6.6,0.6,10c-0.3,1.3-0.6,2.6-1.2,3.8c-0.5,1.2-1.1,2.3-1.8,3.4 C41.6,47.4,41.5,47.6,41.3,47.6z M38.2,47.6c-0.1-0.1-0.1-0.2-0.1-0.2c0-0.1-0.1-0.3-0.1-0.4c-0.6-2.4-1.8-4.4-3.3-6.3 c-2.3-2.8-5.1-5.1-8.2-6.9c-1.7-1-3.5-1.8-5.4-2.5c-0.2-0.1-0.4-0.1-0.4-0.3c3.6-0.4,8.9,0.8,12.4,4.2C37,39.1,38.5,44.5,38.2,47.6 z M36.2,49.5c-0.1-0.1-0.2-0.2-0.3-0.4c-1.6-1.7-3.2-3.3-4.7-5c-3.1-3.3-6.2-6.6-9.3-9.8c-0.2-0.2-0.3-0.4-0.5-0.6 c0.8,0.2,1.6,0.6,2.3,0.9c3.5,1.7,6.6,4,9.1,7c1.8,2.1,3,4.4,3.5,7.1c0,0.2,0.1,0.5,0.1,0.7C36.3,49.5,36.3,49.5,36.2,49.5z M30.8,46.6c1,1.1,2.1,2.1,2.9,3.3c-0.8-0.3-1.5-0.6-2.3-0.9c-2-1-4-2.2-5.7-3.6c-2.2-1.9-4-4.2-5.4-6.7c-0.7-1.3-1.3-2.7-1.7-4.1 c-0.1-0.2-0.1-0.4-0.1-0.9c1.2,1.1,2.2,2.3,3.2,3.3c1,1.1,2,2.1,3,3.2c1,1.1,2,2.2,3.1,3.3C28.8,44.4,29.8,45.5,30.8,46.6z M12.2,56.1c-0.1-0.1-0.2-0.2-0.3-0.3c0,0-0.1-0.1-0.1-0.3c0.2,0,0.4,0,0.5,0.1c0.7,0.2,1.5,0.4,2.2,0.7c2.9,0.9,5.9,1.2,8.9,1.1 c3.9-0.2,7.6-1,11.2-2.4c0.2-0.1,0.5-0.2,0.8-0.3c0,0,0.1,0,0.1,0c0.1,0.3-0.2,0.4-0.3,0.5c-1,0.8-2.1,1.5-3.2,2.1 c-1.2,0.6-2.4,1.1-3.6,1.5c-3.3,1.1-6.7,1.2-10,0.4C16,58.7,14,57.7,12.2,56.1z"></path> </g> </svg>