<svg xmlns="http://www.w3.org/2000/svg" xmlns:xlink="http://www.w3.org/1999/xlink" id="Capa_1" x="0px" y="0px" viewBox="0 0 96.4 96.9" style="enable-background:new 0 0 96.4 96.9;" xml:space="preserve"> <style type="text/css"> .st0{fill:#A19080;} </style> <g> <path class="st0" d="M58.2,27.4H37.7c-5.8,0-10.6,4.8-10.6,10.6v20.5c0,5.8,4.8,10.6,10.6,10.6h20.5c5.8,0,10.6-4.8,10.6-10.6V38 C68.8,32.1,64,27.4,58.2,27.4z M47.9,61.9c-7.6,0-13.7-6.2-13.7-13.7c0-7.6,6.2-13.7,13.7-13.7c7.6,0,13.7,6.2,13.7,13.7 C61.6,55.8,55.5,61.9,47.9,61.9z M62.3,36C61,36,60,35,60,33.7s1-2.3,2.3-2.3c1.3,0,2.3,1,2.3,2.3S63.6,36,62.3,36z"></path> <path class="st0" d="M47.9,1.4C22.1,1.4,1.2,22.4,1.2,48.2C1.2,74,22.1,95,47.9,95C73.8,95,94.7,74,94.7,48.2 C94.7,22.4,73.8,1.4,47.9,1.4z M74.8,58.5c0,9.1-7.4,16.6-16.6,16.6H37.7c-9.1,0-16.6-7.4-16.6-16.6V38c0-9.1,7.4-16.6,16.6-16.6 h20.5c9.1,0,16.6,7.4,16.6,16.6V58.5z"></path> <path class="st0" d="M47.9,39.9c-4.6,0-8.3,3.7-8.3,8.3c0,4.6,3.7,8.3,8.3,8.3s8.3-3.7,8.3-8.3C56.3,43.6,52.5,39.9,47.9,39.9z"></path> </g> </svg>