<svg xmlns="http://www.w3.org/2000/svg" xmlns:xlink="http://www.w3.org/1999/xlink" id="liverpool13" viewBox="0 0 250 60"><defs><style> .st0 { fill: #a99180; fill-rule: evenodd; } </style></defs><path class="st0" d="M1.1,1.1h4v40.8s0,2.9,2.6,2.9h21.4v4.4H5.8s-4.8,0-4.8-5.2V1.1h0Z"></path><path class="st0" d="M6.6,1.1h4v35s-.3,2.7,2.3,2.7h16.2v4.4H8.9s-2.3-.2-2.3-2.6c0-1.7,0-39.5,0-39.5h0Z"></path><path class="st0" d="M12.1,1.1h4v29.6s-.2,2,1.7,2h11.4v4.4h-15.4s-1.7-.3-1.7-2.4c0-1.8,0-33.5,0-33.5h0Z"></path><path class="st0" d="M17.5,1.1h4v23.9s-.3,1.7,1.5,1.7h6.1v4.4h-9.2c-1.6,0-2.3-.5-2.3-2.2,0-1.9,0-27.8,0-27.8h0Z"></path><path class="st0" d="M51,49.2h-4V8.4s0-2.9-2.6-2.9h-21.4V1h23.3s4.8,0,4.8,5.2c0,5.2,0,42.9,0,42.9h0Z"></path><path class="st0" d="M45.5,49.2h-4V14.2s.3-2.7-2.3-2.7h-16.2v-4.3h20.2s2.3.2,2.3,2.6c0,1.7,0,39.4,0,39.4h0Z"></path><path class="st0" d="M40,49.2h-4v-29.6s.2-2-1.7-2h-11.4v-4.4h15.3s1.7.4,1.7,2.4c0,1.8,0,33.5,0,33.5h0Z"></path><path class="st0" d="M34.6,49.2h-4v-23.9s.2-1.7-1.5-1.7h-6.1v-4.4h9.2c1.6,0,2.3.5,2.3,2.2,0,1.9,0,27.8,0,27.8h0Z"></path><polygon class="st0" points="91.5 11.1 95.6 11.1 95.6 15.6 91.5 15.6 91.5 11.1"></polygon><polygon class="st0" points="91.5 21 95.6 21 95.6 49.2 91.5 49.2 91.5 21"></polygon><polygon class="st0" points="236.1 11 240.2 11 240.2 49.2 236.1 49.2 236.1 11"></polygon><polygon class="st0" points="118.4 21 110.2 43.7 101.9 21 97.3 21 107.5 49.2 112.8 49.2 123.1 21 118.4 21"></polygon><path class="st0" d="M80,44.7c-1.4,0-2.4-1.2-2.4-2.7V11.1h-4.1v31.7c0,3.6,2.6,6.4,5.8,6.4h10.7v-4.4h-10.1Z"></path><path class="st0" d="M157.5,25.6c-1.4,0-2.4,1.2-2.4,2.7v21h-4.1v-21.7c0-3.5,2.6-6.4,5.8-6.4h4.3v4.4h-3.7Z"></path><path class="st0" d="M148.8,35.5v-.9c0-8.1-6.1-14.8-13.5-14.8s-13.5,6.6-13.5,14.8,6,14.7,13.5,14.7,11.6-4.6,13.1-11.2h-3.9c-1.4,4.3-5,7.1-9.1,7.1s-9.2-4.1-9.6-9.7h23.1ZM126.1,31.3c1.4-4.5,5.1-7.3,9.2-7.3s7.9,2.9,9.2,7.3h-18.5Z"></path><path class="st0" d="M220.5,19.7c-4.9,0-9.2,2.9-11.6,7.1-2.4-4.3-6.7-7.1-11.6-7.1s-9.2,2.9-11.6,7.1c-2.4-4.3-6.7-7.1-11.6-7.1-7.5,0-13.6,6.6-13.6,14.9v24.2h4.1v-13.5c2.4,2.6,5.8,4.2,9.5,4.2s9.2-2.8,11.6-7.1c2.4,4.3,6.7,7.1,11.6,7.1s9.2-2.8,11.6-7.1c2.4,4.3,6.7,7.1,11.6,7.1,7.5,0,13.6-6.7,13.6-14.9s-6.1-14.9-13.6-14.9h0ZM174.1,45c-5.2,0-9.6-4.7-9.6-10.5s4.3-10.5,9.6-10.5,9.6,4.7,9.6,10.5c0,5.8-4.3,10.5-9.6,10.5h0ZM197.3,45c-5.2,0-9.6-4.7-9.6-10.5s4.3-10.5,9.6-10.5,9.6,4.7,9.6,10.5-4.3,10.5-9.6,10.5h0ZM220.5,45c-5.2,0-9.6-4.7-9.6-10.5s4.3-10.5,9.6-10.5,9.6,4.7,9.6,10.5c0,5.8-4.3,10.5-9.6,10.5h0Z"></path><path class="st0" d="M245.3,17.7c-1.8,0-3.3-1.6-3.3-3.6s1.4-3.6,3.3-3.6,3.3,1.6,3.3,3.6c0,2-1.4,3.6-3.3,3.6h0ZM245.3,11.1c-1.5,0-2.7,1.3-2.7,2.9s1.2,3,2.7,3,2.7-1.4,2.7-3-1.2-2.9-2.7-2.9h0ZM243.9,12.3h1.5c.9,0,1.2.6,1.2,1,0,.6-.4,1.1-1,1.1h0c.3.1.5.4.8.9l.4.7h-.7l-.3-.6c-.4-.9-.6-1-1-1h-.3v1.6h-.5v-3.8h0ZM245.2,13.9c.4,0,.7-.2.7-.6s-.3-.5-.6-.5h-.9v1.1h.8Z"></path></svg>