<?xml version="1.0" standalone="no"?>
<!DOCTYPE svg PUBLIC "-//W3C//DTD SVG 20010904//EN"
 "http://www.w3.org/TR/2001/REC-SVG-20010904/DTD/svg10.dtd">
<svg version="1.0" xmlns="http://www.w3.org/2000/svg"
 width="11.000000pt" height="11.000000pt" viewBox="0 0 512.000000 512.000000"
 preserveAspectRatio="xMidYMid meet">

<g transform="translate(0.000000,512.000000) scale(0.100000,-0.100000)"
fill="#8A7362" stroke="none">
<path d="M455 5108 c-91 -17 -213 -84 -286 -157 -78 -78 -142 -198 -159 -301
-8 -46 -10 -671 -8 -2130 l3 -2065 26 -66 c72 -185 193 -302 379 -365 53 -18
129 -19 2155 -19 l2100 0 67 26 c181 70 287 176 357 358 l26 66 3 924 c3 1025
5 985 -63 1073 -98 129 -303 140 -420 23 -21 -21 -47 -59 -59 -84 -21 -45 -21
-57 -26 -831 l-5 -785 -23 -47 c-13 -26 -44 -65 -68 -87 -87 -77 66 -71 -1894
-71 -1992 0 -1813 -8 -1906 84 -92 93 -84 -86 -84 1906 0 1960 -6 1807 71
1894 22 24 61 55 87 68 l47 23 785 5 c774 5 786 5 831 26 215 100 222 407 12
511 l-58 28 -920 1 c-546 1 -940 -2 -970 -8z"/>
<path d="M3349 5113 c-83 -13 -185 -113 -210 -206 -27 -102 16 -229 100 -293
80 -61 102 -64 525 -64 l381 0 -1316 -1317 c-1463 -1464 -1354 -1345 -1354
-1488 0 -59 5 -79 30 -124 74 -134 228 -185 371 -122 41 18 269 241 1362 1334
l1312 1312 0 -381 c0 -423 3 -445 64 -525 18 -25 58 -58 87 -74 47 -26 64 -30
134 -30 71 0 86 3 135 31 66 37 114 97 135 166 22 76 23 1509 0 1585 -22 74
-74 136 -142 170 l-58 28 -765 1 c-421 1 -777 -1 -791 -3z"/>
</g>
</svg>
